<svg width="2523" height="928" viewBox="0 0 2523 928" fill="none" xmlns="http://www.w3.org/2000/svg">
<rect x="0.958862" y="0.167969" width="2522" height="926.971" fill="#1E2F43"/>
<g opacity="0.7">
<mask id="mask0_1_13" style="mask-type:alpha" maskUnits="userSpaceOnUse" x="0" y="0" width="2523" height="928">
<rect x="0.958862" y="0.167969" width="2522" height="926.971" fill="#1E2F43"/>
</mask>
<g mask="url(#mask0_1_13)">
<g filter="url(#filter0_f_1_13)">
<circle cx="1266" cy="396.968" r="422.79" fill="#2F94A7"/>
</g>
<g filter="url(#filter1_f_1_13)">
<circle cx="1688.79" cy="660.944" r="252.387" fill="#90D3DF"/>
</g>
<g filter="url(#filter2_f_1_13)">
<circle cx="792.109" cy="609.825" r="270.286" fill="#CE9F51"/>
</g>
<g style="mix-blend-mode:difference" opacity="0.2">
<path d="M255.564 -10.3745L299.224 33.285M299.224 33.285L342.883 -10.3745M299.224 33.285L342.883 76.9444L255.564 164.263M430.202 33.285L386.543 -10.3745L342.883 33.285L386.543 76.9444M430.202 33.285L473.862 -10.3745L517.521 33.285M430.202 33.285L386.543 76.9444M430.202 33.285L473.862 76.9444M517.521 33.285L561.181 -10.3745L604.84 33.285M517.521 33.285L473.862 76.9444M517.521 33.285L561.181 76.9444M604.84 -10.3745L648.5 33.285L604.84 76.9444L561.181 33.285M648.5 -10.3745L692.159 33.285M692.159 33.285L735.818 -10.3745M692.159 33.285L604.84 120.604L561.181 76.9444M735.818 33.285L779.478 -10.3745L823.137 33.285M735.818 33.285L692.159 76.9444M735.818 33.285L779.478 76.9444M823.137 -10.3745L866.797 33.285M866.797 33.285L910.456 -10.3745L954.116 33.285M866.797 33.285L823.137 76.9444M954.116 33.285L997.775 -10.3745L1041.43 33.285M954.116 33.285L910.456 76.9444M1041.43 33.285L1085.09 -10.3745M1041.43 33.285L997.775 76.9444M1041.43 33.285L1085.09 76.9444M1128.75 -10.3745L1085.09 33.285L1172.41 120.604M1216.07 -10.3745L1303.39 76.9444L1216.07 164.263L1172.41 120.604M1259.73 -10.3745L1347.05 76.9444M1303.39 -10.3745L1347.05 33.285L1390.71 -10.3745L1434.37 33.285M1434.37 33.285L1478.03 -10.3745L1521.69 33.285L1565.35 -10.3745M1434.37 33.285L1390.71 76.9444M1434.37 33.285L1478.03 76.9444M1609.01 -10.3745L1565.35 33.285M1565.35 33.285L1521.69 76.9444L1478.03 33.285M1565.35 33.285L1609.01 76.9444L1565.35 120.604L1609.01 164.263M1652.67 -10.3745L1609.01 33.285L1652.67 76.9444L1609.01 120.604M1696.33 -10.3745L1652.67 33.285L1696.33 76.9444M1739.99 -10.3745L1696.33 33.285M1739.99 33.285L1783.65 -10.3745L1827.31 33.285M1739.99 33.285L1696.33 76.9444M1739.99 33.285L1783.65 76.9444M1827.31 33.285L1870.96 -10.3745M1827.31 33.285L1783.65 76.9444M1958.28 33.285L1914.62 -10.3745L1827.31 76.9444M1958.28 33.285L2001.94 -10.3745L2045.6 33.285L2001.94 76.9444M1958.28 33.285L1914.62 76.9444M2045.6 -10.3745L2089.26 33.285L2001.94 120.604M255.564 33.285L299.224 76.9444L255.564 120.604M386.543 76.9444L255.564 207.923M473.862 76.9444L517.521 120.604L561.181 76.9444M692.159 76.9444L735.818 120.604M692.159 76.9444L604.84 164.263M779.478 33.285L823.137 76.9444M823.137 76.9444L779.478 120.604M823.137 76.9444L866.797 120.604M910.456 33.285L866.797 76.9444L910.456 120.604L997.775 33.285M997.775 76.9444L1041.43 120.604M997.775 76.9444L910.456 164.263M1085.09 76.9444L1041.43 120.604M1085.09 76.9444L1128.75 120.604L1085.09 164.263M1172.41 76.9444L1128.75 33.285L1172.41 -10.3745L1259.73 76.9444L1216.07 120.604M1172.41 33.285L1216.07 76.9444L1172.41 120.604M1347.05 76.9444L1390.71 33.285M1347.05 76.9444L1259.73 164.263M1390.71 76.9444L1347.05 120.604M1390.71 76.9444L1434.37 120.604L1478.03 76.9444M1478.03 76.9444L1521.69 120.604M1696.33 76.9444L1652.67 120.604M1783.65 76.9444L1696.33 164.263L1652.67 120.604M1827.31 76.9444L1870.96 120.604M1827.31 76.9444L1739.99 164.263M1914.62 33.285L1870.96 76.9444M1914.62 76.9444L1870.96 120.604M1914.62 76.9444L1958.28 120.604M2001.94 33.285L1958.28 76.9444L2001.94 120.604M386.543 120.604L430.202 76.9444L473.862 120.604M386.543 120.604L342.883 164.263M386.543 120.604L430.202 164.263M473.862 120.604L430.202 164.263M473.862 120.604L517.521 164.263L561.181 120.604L604.84 164.263M735.818 76.9444L779.478 120.604M779.478 120.604L735.818 164.263M866.797 120.604L910.456 164.263M866.797 120.604L779.478 207.923L735.818 164.263M1041.43 120.604L1085.09 164.263M1172.41 120.604L1128.75 164.263M1347.05 120.604L1303.39 164.263M1347.05 120.604L1390.71 164.263L1259.73 295.242L1303.39 338.901M1521.69 120.604L1565.35 76.9444M1521.69 120.604L1565.35 164.263L1521.69 207.923M1652.67 120.604L1609.01 164.263M1739.99 76.9444L1696.33 120.604M1870.96 120.604L1914.62 164.263M2001.94 120.604L1958.28 164.263L1914.62 120.604M2089.26 76.9444L2001.94 164.263M342.883 164.263L386.543 207.923M342.883 164.263L255.564 251.582M430.202 164.263L386.543 207.923M604.84 164.263L648.5 207.923M648.5 164.263L692.159 120.604L735.818 164.263M735.818 164.263L692.159 207.923L735.818 251.582M823.137 120.604L779.478 164.263M910.456 164.263L866.797 207.923L910.456 251.582M1085.09 164.263L1041.43 207.923L1085.09 251.582M1085.09 164.263L1128.75 207.923M1259.73 164.263L1216.07 207.923M1259.73 164.263L1303.39 207.923M1390.71 120.604L1434.37 164.263M1434.37 164.263L1478.03 120.604L1521.69 164.263L1478.03 207.923M1434.37 164.263L1303.39 295.242M1609.01 164.263L1652.67 207.923L1609.01 251.582M1609.01 164.263L1521.69 251.582M1739.99 164.263L1696.33 207.923M1739.99 164.263L1783.65 207.923L1827.31 164.263M1783.65 164.263L1827.31 120.604L1870.96 164.263L1783.65 251.582M1914.62 164.263L1958.28 207.923M1914.62 164.263L1783.65 295.242M2001.94 164.263L1958.28 207.923M2001.94 164.263L2045.6 207.923M2089.26 120.604L2045.6 164.263M386.543 207.923L255.564 338.901L299.224 382.561M430.202 207.923L473.862 164.263L517.521 207.923M430.202 207.923L473.862 251.582M430.202 207.923L299.224 338.901M517.521 207.923L561.181 164.263L604.84 207.923M517.521 207.923L473.862 251.582M648.5 207.923L692.159 164.263M648.5 207.923L604.84 251.582M648.5 207.923L692.159 251.582M866.797 164.263L823.137 207.923M823.137 207.923L779.478 251.582M823.137 207.923L866.797 251.582M997.775 164.263L954.116 207.923M997.775 207.923L1041.43 164.263L997.775 120.604L910.456 207.923L954.116 251.582M997.775 207.923L954.116 251.582M997.775 207.923L1041.43 251.582L997.775 295.242M1128.75 207.923L1172.41 164.263L1216.07 207.923M1128.75 207.923L1085.09 251.582M1216.07 207.923L1128.75 295.242M1303.39 207.923L1347.05 164.263M1303.39 207.923L1216.07 295.242M1478.03 164.263L1303.39 338.901M1478.03 207.923L1434.37 251.582M1478.03 207.923L1521.69 251.582M1652.67 164.263L1696.33 207.923M1696.33 207.923L1609.01 295.242M1958.28 207.923L1914.62 251.582M2045.6 207.923L2089.26 164.263M2045.6 207.923L2089.26 251.582L2001.94 338.901M2045.6 207.923L1958.28 295.242M342.883 207.923L255.564 295.242M473.862 251.582L517.521 295.242M517.521 251.582L561.181 207.923L604.84 251.582M604.84 251.582L561.181 295.242M604.84 251.582L648.5 295.242L692.159 251.582M692.159 251.582L735.818 295.242M735.818 207.923L779.478 251.582M779.478 251.582L735.818 295.242M866.797 251.582L910.456 295.242M866.797 251.582L735.818 382.561M954.116 251.582L910.456 295.242M954.116 251.582L997.775 295.242M1085.09 251.582L1041.43 295.242M1172.41 207.923L1041.43 338.901M1259.73 207.923L1172.41 295.242M1434.37 251.582L1478.03 295.242M1434.37 251.582L1303.39 382.561M1521.69 251.582L1478.03 295.242M1521.69 251.582L1565.35 295.242L1478.03 382.561M1609.01 207.923L1565.35 251.582L1609.01 295.242M1696.33 251.582L1739.99 207.923L1783.65 251.582M1696.33 251.582L1739.99 295.242M1696.33 251.582L1565.35 382.561M1783.65 251.582L1739.99 295.242M1914.62 207.923L1783.65 338.901M1914.62 251.582L1958.28 295.242M1914.62 251.582L1827.31 338.901M2001.94 207.923L1958.28 251.582M386.543 295.242L430.202 251.582L473.862 295.242M386.543 295.242L342.883 338.901M386.543 295.242L430.202 338.901L386.543 382.561M517.521 295.242L561.181 251.582M517.521 295.242L473.862 338.901M561.181 295.242L517.521 338.901M561.181 295.242L604.84 338.901M735.818 295.242L648.5 382.561L604.84 338.901M823.137 251.582L648.5 426.22M910.456 295.242L866.797 338.901M997.775 295.242L954.116 338.901L997.775 382.561M997.775 295.242L1041.43 338.901M1128.75 295.242L1085.09 338.901L1128.75 382.561M1128.75 295.242L1172.41 338.901L1216.07 295.242M1216.07 295.242L1259.73 338.901L1172.41 426.22M1478.03 295.242L1347.05 426.22M1609.01 295.242L1521.69 382.561M1739.99 295.242L1783.65 338.901M1739.99 295.242L1609.01 426.22M1958.28 295.242L1827.31 426.22L1870.96 469.88M2045.6 251.582L1958.28 338.901M342.883 338.901L299.224 382.561M342.883 338.901L386.543 382.561M430.202 295.242L473.862 338.901M473.862 338.901L430.202 382.561M517.521 338.901L561.181 382.561L604.84 338.901M517.521 338.901L430.202 426.22M604.84 295.242L648.5 338.901L692.159 295.242M866.797 295.242L779.478 382.561M866.797 338.901L910.456 382.561M866.797 338.901L779.478 426.22M954.116 295.242L910.456 338.901L954.116 382.561L910.456 426.22M1041.43 338.901L1085.09 382.561M1303.39 338.901L1216.07 426.22M1434.37 295.242L1347.05 382.561M1521.69 295.242L1434.37 382.561M1696.33 295.242L1609.01 382.561M1783.65 338.901L1827.31 382.561M1914.62 295.242L1827.31 382.561M1958.28 338.901L1914.62 382.561M1958.28 338.901L2001.94 382.561M2089.26 295.242L2001.94 382.561M299.224 382.561L255.564 426.22M299.224 382.561L342.883 426.22M386.543 382.561L430.202 426.22M735.818 382.561L692.159 426.22M735.818 382.561L779.478 426.22M997.775 382.561L954.116 426.22M997.775 382.561L1041.43 426.22M997.775 338.901L1085.09 426.22M1128.75 382.561L1085.09 426.22M1128.75 382.561L1172.41 426.22M1128.75 338.901L1172.41 382.561L1216.07 338.901M1303.39 382.561L1347.05 426.22M1303.39 382.561L1216.07 469.88L1172.41 426.22M1565.35 382.561L1543.29 404.621M1565.35 382.561L1609.01 426.22M1827.31 382.561L1783.65 426.22M1914.62 382.561L1870.96 426.22M1914.62 382.561L1958.28 426.22M2001.94 382.561L2045.6 426.22M2089.26 338.901L2045.6 382.561M342.883 382.561L386.543 426.22M386.543 426.22L342.883 469.88M386.543 426.22L430.202 469.88L386.543 513.539L430.202 557.199M430.202 426.22L473.862 469.88M473.862 426.22L517.521 382.561L561.181 426.22M561.181 426.22L604.84 382.561L648.5 426.22M561.181 426.22L604.84 469.88M648.5 426.22L692.159 469.88L735.818 426.22L779.478 469.88M779.478 426.22L823.137 469.88M823.137 426.22L866.797 382.561L910.456 426.22M910.456 426.22L954.116 469.88M1041.43 426.22L997.775 469.88M1041.43 426.22L1085.09 469.88L1041.43 513.539L997.775 469.88M1085.09 426.22L1128.75 469.88M1347.05 426.22L1259.73 513.539M1609.01 426.22L1565.35 469.88M1652.67 426.22L1696.33 469.88L1652.67 513.539M1652.67 426.22L1739.99 338.901L1783.65 382.561L1739.99 426.22M1652.67 426.22L1434.37 644.517L1478.03 688.177M1739.99 382.561L1696.33 426.22L1739.99 469.88M1783.65 426.22L1739.99 469.88M1783.65 426.22L1827.31 469.88M1958.28 382.561L2001.94 426.22M2001.94 426.22L1958.28 469.88M2001.94 426.22L2045.6 469.88M2045.6 426.22L2089.26 382.561M2045.6 426.22L2089.26 469.88L2045.6 513.539M255.564 469.88L299.224 426.22L342.883 469.88M342.883 469.88L255.564 557.199M473.862 469.88L517.521 426.22L561.181 469.88M473.862 469.88L430.202 513.539M473.862 469.88L517.521 513.539M604.84 469.88L561.181 513.539M604.84 469.88L648.5 513.539M604.84 426.22L692.159 513.539M823.137 469.88L866.797 426.22L910.456 469.88L866.797 513.539M823.137 469.88L779.478 513.539M954.116 469.88L997.775 426.22M954.116 469.88L866.797 557.199L823.137 513.539M997.775 469.88L954.116 513.539M1128.75 469.88L1172.41 513.539L1128.75 557.199M1128.75 469.88L1041.43 557.199M1128.75 426.22L1216.07 513.539M1303.39 426.22L1216.07 513.539M1739.99 469.88L1696.33 513.539M1870.96 469.88L1914.62 426.22L1958.28 469.88M1870.96 469.88L1827.31 513.539M1958.28 469.88L1914.62 513.539L1958.28 557.199M299.224 469.88L255.564 513.539M386.543 469.88L342.883 513.539M342.883 513.539L386.543 557.199L255.564 688.177M342.883 513.539L255.564 600.858M517.521 513.539L473.862 557.199M517.521 513.539L561.181 557.199M517.521 469.88L561.181 513.539M561.181 513.539L604.84 557.199M692.159 513.539L735.818 469.88L779.478 513.539M692.159 513.539L648.5 557.199L604.84 513.539M779.478 513.539L648.5 644.517M866.797 469.88L823.137 513.539M823.137 513.539L692.159 644.517M954.116 513.539L997.775 557.199L910.456 644.517M954.116 513.539L866.797 600.858L823.137 557.199L779.478 600.858M1216.07 513.539L1172.41 557.199L1259.73 644.517M1216.07 513.539L1259.73 557.199M1347.05 469.88L1259.73 557.199M1652.67 469.88L1609.01 513.539M1609.01 513.539L1652.67 557.199M1609.01 513.539L1521.69 600.858M1696.33 513.539L1652.67 557.199M1696.33 513.539L1739.99 557.199M1739.99 513.539L1783.65 469.88L1827.31 513.539M1827.31 513.539L1739.99 600.858M1914.62 469.88L1870.96 513.539M1870.96 513.539L1914.62 557.199L1870.96 600.858L1914.62 644.517M1870.96 513.539L1783.65 600.858M1958.28 513.539L2001.94 469.88L2045.6 513.539M2045.6 513.539L2089.26 557.199L2045.6 600.858M430.202 557.199L473.862 513.539M430.202 557.199L299.224 688.177M473.862 557.199L342.883 688.177M473.862 557.199L561.181 644.517M604.84 557.199L561.181 600.858L517.521 557.199M604.84 557.199L648.5 600.858L735.818 513.539M997.775 513.539L1041.43 557.199M1041.43 557.199L997.775 600.858M1041.43 557.199L1085.09 600.858L1128.75 557.199M1128.75 513.539L1085.09 557.199M1128.75 557.199L1216.07 644.517M1259.73 557.199L1303.39 600.858M1347.05 513.539L1303.39 557.199L1347.05 600.858M1652.67 557.199L1696.33 600.858L1739.99 557.199M1739.99 557.199L1783.65 513.539M1958.28 557.199L2001.94 513.539L2045.6 557.199M1958.28 557.199L1914.62 600.858M1958.28 557.199L2001.94 600.858L1914.62 688.177M342.883 557.199L255.564 644.517M779.478 600.858L692.159 688.177M779.478 600.858L866.797 688.177M954.116 557.199L866.797 644.517L823.137 600.858M997.775 600.858L954.116 644.517M997.775 600.858L1041.43 644.517L997.775 688.177M1216.07 557.199L1259.73 600.858M1303.39 600.858L1259.73 644.517M1303.39 600.858L1390.71 688.177M1347.05 600.858L1390.71 557.199M1347.05 600.858L1390.71 644.517M1521.69 600.858L1478.03 644.517M1521.69 600.858L1565.35 644.517M1565.35 600.858L1609.01 557.199L1652.67 600.858M1652.67 600.858L1609.01 644.517M1652.67 600.858L1696.33 644.517M1739.99 600.858L1696.33 644.517M1739.99 600.858L1783.65 644.517M1870.96 557.199L1827.31 600.858M1827.31 600.858L1783.65 644.517M1827.31 600.858L1870.96 644.517L1827.31 688.177M2001.94 557.199L2045.6 600.858M2045.6 600.858L2089.26 644.517L2045.6 688.177M2045.6 600.858L1958.28 688.177M561.181 644.517L604.84 600.858L648.5 644.517M561.181 644.517L473.862 731.836M648.5 644.517L692.159 688.177M910.456 644.517L866.797 688.177M910.456 644.517L954.116 688.177M1041.43 600.858L1085.09 644.517M1085.09 644.517L1128.75 600.858L1216.07 688.177M1085.09 644.517L1041.43 688.177M1085.09 644.517L1128.75 688.177L1085.09 731.836M1259.73 644.517L1216.07 688.177M1390.71 644.517L1434.37 600.858M1390.71 644.517L1434.37 688.177M1565.35 644.517L1609.01 600.858M1565.35 644.517L1609.01 688.177M1696.33 644.517L1652.67 688.177M1783.65 644.517L1696.33 731.836M1914.62 644.517L1958.28 600.858M1914.62 644.517L1870.96 688.177M299.224 688.177L255.564 731.836M299.224 688.177L342.883 731.836M473.862 644.517L342.883 775.496M561.181 688.177L604.84 644.517L692.159 731.836M561.181 688.177L517.521 731.836M561.181 688.177L692.159 819.155M692.159 688.177L735.818 731.836M823.137 688.177L779.478 644.517L735.818 688.177L779.478 731.836M866.797 688.177L823.137 731.836M954.116 688.177L997.775 644.517M954.116 688.177L866.797 775.496M997.775 688.177L1041.43 731.836M997.775 688.177L910.456 775.496M1128.75 644.517L1172.41 688.177M1172.41 688.177L1216.07 731.836L1172.41 775.496M1172.41 688.177L1085.09 775.496M1216.07 688.177L1259.73 731.836M1259.73 688.177L1303.39 644.517L1347.05 688.177L1303.39 731.836M1390.71 688.177L1347.05 731.836M1390.71 688.177L1434.37 731.836M1478.03 688.177L1521.69 644.517L1565.35 688.177M1478.03 688.177L1434.37 731.836M1478.03 688.177L1521.69 731.836M1609.01 688.177L1652.67 644.517M1609.01 688.177L1565.35 731.836M1609.01 688.177L1652.67 731.836M1739.99 644.517L1652.67 731.836M1827.31 644.517L1783.65 688.177M1783.65 688.177L1739.99 731.836L1783.65 775.496L1827.31 731.836M1783.65 688.177L1827.31 731.836M1870.96 688.177L1827.31 731.836M1870.96 688.177L1914.62 731.836L1958.28 688.177M1958.28 688.177L2001.94 731.836M2045.6 644.517L2001.94 688.177M2045.6 688.177L2001.94 731.836M2045.6 688.177L2089.26 731.836L2045.6 775.496M342.883 731.836L299.224 775.496M342.883 731.836L473.862 600.858L517.521 644.517L430.202 731.836M430.202 731.836L386.543 775.496M430.202 731.836L473.862 775.496L517.521 731.836M517.521 731.836L561.181 775.496L517.521 819.155L561.181 862.815L430.202 993.793L386.543 950.134M604.84 688.177L692.159 775.496M735.818 731.836L692.159 775.496M735.818 731.836L779.478 775.496M779.478 688.177L823.137 731.836M823.137 731.836L779.478 775.496M910.456 688.177L823.137 775.496M1041.43 731.836L1085.09 688.177M1041.43 731.836L997.775 775.496M1041.43 731.836L1085.09 775.496M1259.73 731.836L1303.39 688.177M1259.73 731.836L1216.07 775.496M1259.73 731.836L1303.39 775.496L1347.05 731.836M1347.05 731.836L1390.71 775.496M1434.37 731.836L1478.03 775.496M1521.69 731.836L1478.03 775.496M1521.69 731.836L1609.01 819.155L1652.67 775.496M1521.69 688.177L1565.35 731.836M1565.35 731.836L1609.01 775.496L1652.67 731.836M1696.33 731.836L1652.67 775.496M1696.33 731.836L1739.99 775.496M2001.94 731.836L1958.28 775.496M2001.94 731.836L2045.6 775.496M299.224 731.836L255.564 775.496M299.224 775.496L255.564 819.155M299.224 775.496L342.883 819.155L386.543 775.496M386.543 775.496L430.202 819.155M561.181 731.836L604.84 775.496M604.84 775.496L561.181 819.155L604.84 862.815M604.84 775.496L648.5 819.155L604.84 862.815M692.159 775.496L735.818 819.155L779.478 775.496M779.478 775.496L823.137 819.155M866.797 775.496L823.137 819.155M866.797 775.496L910.456 819.155L954.116 775.496M997.775 731.836L954.116 775.496M954.116 775.496L997.775 819.155M1085.09 775.496L1041.43 819.155M1085.09 775.496L1128.75 819.155L1085.09 862.815M1172.41 731.836L1128.75 775.496L1172.41 819.155M1216.07 775.496L1172.41 819.155M1216.07 775.496L1259.73 819.155M1390.71 731.836L1434.37 775.496M1434.37 775.496L1390.71 819.155M1434.37 775.496L1478.03 819.155M1478.03 775.496L1565.35 862.815M1652.67 775.496L1696.33 819.155M1739.99 775.496L1696.33 819.155M1739.99 775.496L1783.65 819.155L1827.31 775.496M1827.31 775.496L1870.96 731.836L1914.62 775.496L1958.28 731.836M1827.31 775.496L1914.62 862.815L1870.96 906.474L1827.31 862.815L1783.65 906.474M1958.28 775.496L1914.62 819.155M1958.28 775.496L2001.94 819.155L2045.6 775.496M2045.6 775.496L2089.26 819.155M430.202 775.496L473.862 819.155M473.862 819.155L517.521 775.496M473.862 819.155L430.202 862.815L386.543 819.155L342.883 862.815L299.224 819.155L255.564 862.815M473.862 819.155L517.521 862.815L430.202 950.134L386.543 906.474L342.883 950.134M692.159 819.155L648.5 862.815M692.159 819.155L735.818 862.815M823.137 819.155L866.797 862.815L823.137 906.474M997.775 819.155L1041.43 775.496M997.775 819.155L954.116 862.815M997.775 819.155L1041.43 862.815M1172.41 819.155L1128.75 862.815M1259.73 775.496L1303.39 819.155M1303.39 819.155L1347.05 775.496L1390.71 819.155M1303.39 819.155L1259.73 862.815L1216.07 819.155L1172.41 862.815M1303.39 819.155L1347.05 862.815M1390.71 819.155L1347.05 862.815M1478.03 819.155L1390.71 906.474M1478.03 819.155L1565.35 906.474L1609.01 862.815M1521.69 775.496L1609.01 862.815M1696.33 819.155L1652.67 862.815M1696.33 819.155L1739.99 862.815M1870.96 775.496L1914.62 819.155M1914.62 819.155L1958.28 862.815L1870.96 950.134L1827.31 906.474M604.84 862.815L517.521 950.134M648.5 862.815L692.159 906.474M648.5 862.815L561.181 950.134M735.818 862.815L779.478 819.155L823.137 862.815L779.478 906.474M735.818 862.815L779.478 906.474M866.797 819.155L910.456 862.815M910.456 862.815L954.116 819.155M910.456 862.815L866.797 906.474M954.116 862.815L910.456 906.474L954.116 950.134M954.116 862.815L997.775 906.474L1041.43 862.815M1041.43 862.815L1085.09 819.155M1041.43 862.815L1085.09 906.474L1128.75 862.815M1128.75 862.815L1172.41 906.474M1347.05 862.815L1390.71 906.474M1347.05 862.815L1259.73 950.134M1434.37 819.155L1390.71 862.815M1609.01 862.815L1652.67 819.155M1652.67 862.815L1609.01 906.474M1652.67 862.815L1696.33 906.474M1739.99 862.815L1696.33 906.474M1739.99 862.815L1783.65 906.474M1739.99 819.155L1783.65 862.815L1827.31 819.155L1870.96 862.815M1958.28 819.155L2001.94 862.815M2001.94 862.815L2045.6 819.155L2089.26 862.815L2045.6 906.474M2001.94 862.815L2045.6 906.474M2001.94 862.815L1914.62 950.134M473.862 862.815L430.202 906.474L386.543 862.815L342.883 906.474L299.224 862.815L255.564 906.474L299.224 950.134M692.159 906.474L648.5 950.134L692.159 993.793L648.5 1037.45M692.159 906.474L735.818 950.134L779.478 906.474M692.159 862.815L735.818 906.474M779.478 906.474L823.137 950.134M866.797 906.474L823.137 950.134M866.797 906.474L910.456 950.134M1172.41 906.474L1216.07 862.815L1259.73 906.474L1303.39 862.815M1172.41 906.474L1128.75 950.134M1390.71 906.474L1347.05 950.134M1434.37 906.474L1478.03 862.815L1521.69 906.474M1434.37 906.474L1390.71 950.134L1434.37 993.793M1434.37 906.474L1478.03 950.134M1521.69 906.474L1478.03 950.134M1521.69 906.474L1565.35 950.134L1609.01 906.474M1609.01 906.474L1652.67 950.134M1696.33 906.474L1652.67 950.134M1783.65 906.474L1827.31 950.134M2045.6 906.474L2089.26 950.134M299.224 950.134L255.564 993.793M299.224 950.134L342.883 993.793M299.224 906.474L342.883 950.134M342.883 950.134L386.543 993.793M517.521 950.134L473.862 993.793M517.521 950.134L561.181 993.793M648.5 906.474L604.84 950.134M604.84 950.134L561.181 993.793M604.84 950.134L648.5 993.793L604.84 1037.45L561.181 993.793M823.137 950.134L866.797 993.793M910.456 950.134L866.797 993.793M910.456 950.134L954.116 993.793M954.116 906.474L997.775 950.134M997.775 950.134L1041.43 906.474L1085.09 950.134M997.775 950.134L954.116 993.793M997.775 950.134L1041.43 993.793M1085.09 950.134L1128.75 906.474M1085.09 950.134L1128.75 993.793M1259.73 950.134L1216.07 906.474L1128.75 993.793M1259.73 950.134L1303.39 993.793L1347.05 950.134M1259.73 950.134L1172.41 1037.45M1347.05 906.474L1303.39 950.134M1347.05 950.134L1390.71 993.793M1478.03 950.134L1434.37 993.793M1652.67 950.134L1696.33 993.793M1783.65 950.134L1739.99 906.474L1696.33 950.134L1739.99 993.793L1696.33 1037.45L1609.01 950.134L1565.35 993.793L1521.69 950.134L1478.03 993.793M1827.31 950.134L1783.65 993.793M1827.31 950.134L1870.96 993.793L1914.62 950.134M1914.62 950.134L1958.28 993.793M2045.6 950.134L2001.94 906.474L1958.28 950.134L2001.94 993.793M2045.6 950.134L2001.94 993.793M2045.6 950.134L2089.26 993.793M386.543 993.793L342.883 1037.45L299.224 993.793L255.564 1037.45M386.543 993.793L430.202 1037.45L473.862 993.793M473.862 993.793L517.521 1037.45L561.181 993.793M692.159 950.134L735.818 993.793M735.818 993.793L779.478 950.134L823.137 993.793M735.818 993.793L692.159 1037.45M735.818 993.793L779.478 1037.45M866.797 993.793L823.137 1037.45L779.478 993.793M866.797 993.793L910.456 1037.45M954.116 993.793L997.775 1037.45L1041.43 993.793M1041.43 993.793L1085.09 1037.45L1128.75 993.793M1041.43 950.134L1085.09 993.793M1216.07 950.134L1128.75 1037.45M1434.37 993.793L1390.71 1037.45L1347.05 993.793L1303.39 1037.45L1259.73 993.793L1216.07 1037.45M1478.03 993.793L1434.37 1037.45M1478.03 993.793L1521.69 1037.45M1739.99 950.134L1783.65 993.793M1783.65 993.793L1739.99 1037.45M2001.94 993.793L1958.28 1037.45L1914.62 993.793L1870.96 1037.45L1827.31 993.793L1783.65 1037.45M910.456 993.793L954.116 1037.45M1521.69 993.793L1565.35 1037.45L1609.01 993.793L1652.67 1037.45M2001.94 1037.45L2045.6 993.793L2089.26 1037.45" stroke="url(#paint0_linear_1_13)" stroke-opacity="0.2" stroke-width="2.5" stroke-linecap="round"/>
</g>
</g>
</g>
<defs>
<filter id="filter0_f_1_13" x="528.209" y="-340.823" width="1475.58" height="1475.58" filterUnits="userSpaceOnUse" color-interpolation-filters="sRGB">
<feFlood flood-opacity="0" result="BackgroundImageFix"/>
<feBlend mode="normal" in="SourceGraphic" in2="BackgroundImageFix" result="shape"/>
<feGaussianBlur stdDeviation="157.5" result="effect1_foregroundBlur_1_13"/>
</filter>
<filter id="filter1_f_1_13" x="1121.4" y="93.5571" width="1134.77" height="1134.77" filterUnits="userSpaceOnUse" color-interpolation-filters="sRGB">
<feFlood flood-opacity="0" result="BackgroundImageFix"/>
<feBlend mode="normal" in="SourceGraphic" in2="BackgroundImageFix" result="shape"/>
<feGaussianBlur stdDeviation="157.5" result="effect1_foregroundBlur_1_13"/>
</filter>
<filter id="filter2_f_1_13" x="217.822" y="35.5391" width="1148.57" height="1148.57" filterUnits="userSpaceOnUse" color-interpolation-filters="sRGB">
<feFlood flood-opacity="0" result="BackgroundImageFix"/>
<feBlend mode="normal" in="SourceGraphic" in2="BackgroundImageFix" result="shape"/>
<feGaussianBlur stdDeviation="152" result="effect1_foregroundBlur_1_13"/>
</filter>
<linearGradient id="paint0_linear_1_13" x1="1022.65" y1="177.392" x2="1755.98" y2="753.576" gradientUnits="userSpaceOnUse">
<stop stop-color="#ED970D"/>
<stop offset="1" stop-color="#5FD1E9"/>
</linearGradient>
</defs>
</svg>
