<svg width="176" height="159" viewBox="0 0 176 159" fill="none" xmlns="http://www.w3.org/2000/svg">
<path d="M25.1182 20.8814C39.3027 7.571 58.0242 0.162598 77.4759 0.162598H141.625C160.403 0.162598 175.625 15.3849 175.625 34.1626V90.8397C175.625 110.855 166.748 129.84 151.389 142.674V142.674C139.239 152.826 123.91 158.388 108.077 158.388H34.9609C16.1833 158.388 0.960938 143.165 0.960938 124.388V76.6776C0.960938 55.5405 9.70466 35.3451 25.1182 20.8814V20.8814Z" fill="#ED970D"/>
<mask id="mask0_1_303" style="mask-type:alpha" maskUnits="userSpaceOnUse" x="0" y="0" width="176" height="159">
<path d="M25.1182 20.8814C39.3027 7.571 58.0242 0.162598 77.4759 0.162598H141.625C160.403 0.162598 175.625 15.3849 175.625 34.1626V90.8397C175.625 110.855 166.748 129.84 151.389 142.674V142.674C139.239 152.826 123.91 158.388 108.077 158.388H34.9609C16.1833 158.388 0.960938 143.165 0.960938 124.388V76.6776C0.960938 55.5405 9.70466 35.3451 25.1182 20.8814V20.8814Z" fill="#6E1552"/>
</mask>
<g mask="url(#mask0_1_303)">
<path d="M-564.199 456.614H-502.455M-502.455 456.614V394.87M-502.455 456.614H-440.712V580.102M-409.84 363.999L-471.584 363.999L-471.584 425.742L-409.84 425.742M-409.84 363.999L-409.84 302.255L-348.096 302.255M-409.84 363.999L-409.84 425.742M-409.84 363.999L-348.096 363.999M-348.096 302.255L-348.096 240.511L-286.352 240.511M-348.096 302.255L-348.096 363.999M-348.096 302.255L-286.352 302.255M-317.224 209.639L-255.48 209.639L-255.48 271.383L-317.224 271.383M-286.352 178.767L-224.608 178.767M-224.608 178.767L-224.608 117.023M-224.608 178.767L-224.608 302.255L-286.352 302.255M-193.736 147.895L-193.736 86.1514L-131.993 86.1514M-193.736 147.895L-193.736 209.639M-193.736 147.895L-131.993 147.895M-162.864 55.2795L-101.121 55.2795M-101.121 55.2795L-101.121 -6.46429L-39.3769 -6.4643M-101.121 55.2795L-101.121 117.023M-39.3769 -6.4643L-39.3768 -68.2081L22.3669 -68.2081M-39.3769 -6.4643L-39.3769 55.2795M22.3669 -68.2081L22.367 -129.952M22.3669 -68.2081L22.3669 -6.46427M22.3669 -68.2081L84.1108 -68.2081M53.2389 -160.824L53.2389 -99.08L176.726 -99.08M114.983 -222.568L238.47 -222.568L238.47 -99.08L176.726 -99.08M145.855 -253.439L269.342 -253.439M176.726 -284.311L238.47 -284.311L238.47 -346.055L300.214 -346.055M300.214 -346.055L300.214 -407.799L361.958 -407.799L361.958 -469.543M300.214 -346.055L300.214 -284.311M300.214 -346.055L361.958 -346.055M392.83 -500.415L392.83 -438.671M392.83 -438.671L392.83 -376.927L331.086 -376.927M392.83 -438.671L454.574 -438.671L454.574 -376.927L516.317 -376.927M423.702 -531.287L423.702 -469.543L485.445 -469.543L485.445 -407.799M454.574 -562.159L454.574 -500.415L516.317 -500.415M485.445 -593.03L485.445 -531.287M516.317 -562.159L516.317 -623.902L578.061 -623.902M516.317 -562.159L516.317 -500.415M516.317 -562.159L578.061 -562.158M578.061 -623.902L578.061 -685.646M578.061 -623.902L578.061 -562.158M670.677 -716.518L608.933 -716.518L608.933 -593.03M670.677 -716.518L670.677 -778.262L732.421 -778.262L732.421 -716.518M670.677 -716.518L670.677 -654.774M701.549 -809.134L763.293 -809.134L763.293 -685.646M-533.327 487.486H-471.584L-471.584 549.23M-409.84 425.742L-409.84 610.974M-348.096 363.999L-286.352 363.999L-286.352 302.255M-193.736 209.639L-131.993 209.639M-193.736 209.639L-193.736 333.127M-162.864 117.023L-101.121 117.023M-101.121 117.023L-101.121 178.767M-101.121 117.023L-39.3768 117.023M-70.2488 24.4076L-70.2488 86.1514L-8.50497 86.1514L-8.50494 -37.3362M22.3669 -6.46427L84.1107 -6.46429M22.3669 -6.46427L22.3669 117.023M84.1108 -68.2081L84.1107 -6.46429M84.1108 -68.2081L145.855 -68.2081L145.855 -6.4643M145.855 -129.952L84.1107 -129.952L84.1107 -191.696L207.598 -191.696L207.598 -129.952M114.983 -160.824L176.726 -160.824L176.726 -99.08M269.342 -253.439L269.342 -315.183M269.342 -253.439L269.342 -129.952M300.214 -284.311L300.214 -222.568M300.214 -284.311L361.958 -284.311L361.958 -346.055M361.958 -346.055L423.702 -346.055M516.317 -500.415L516.317 -438.671M578.061 -562.158L578.061 -438.671L516.317 -438.671M608.933 -593.03L670.677 -593.03M608.933 -593.03L608.933 -469.543M639.805 -685.646L639.805 -623.902M670.677 -654.774L670.677 -593.03M670.677 -654.774L732.421 -654.774M701.549 -747.39L701.549 -685.646L763.293 -685.646M-378.968 456.614L-378.968 394.87L-317.224 394.87M-378.968 456.614L-378.968 518.358M-378.968 456.614H-317.224M-317.224 394.87V456.614M-317.224 394.87L-255.48 394.87L-255.48 333.127L-193.736 333.127M-162.864 178.767L-101.121 178.767M-101.121 178.767L-101.121 240.511M-39.3768 117.023L22.3669 117.023M-39.3768 117.023L-39.3769 240.511L-101.121 240.511M84.1107 -6.46429L145.855 -6.4643M176.726 -99.08L176.726 -37.3362M300.214 -222.568L300.214 -160.824M300.214 -222.568L361.958 -222.568L361.958 -37.3362L423.702 -37.3362M423.702 -346.055L423.702 -407.799M423.702 -346.055L485.445 -346.055L485.446 -284.311M516.317 -438.671L516.317 -376.927M547.189 -531.287L547.189 -469.543M670.677 -593.03L732.421 -593.03M763.293 -685.646L763.293 -623.902L701.549 -623.902M794.165 -778.262L794.164 -654.774M-378.968 518.358L-317.224 518.358M-378.968 518.358L-378.968 641.846M-317.224 456.614V518.358M-193.736 333.127L-131.993 333.127M-162.864 302.255L-162.864 240.511L-101.121 240.511M-101.121 240.511L-101.121 302.255H-39.3769M-70.2488 147.895L-70.2488 209.639M22.3669 117.023L22.3669 178.767L84.1107 178.767M145.855 -6.4643L145.855 55.2795L207.598 55.2795M145.855 -6.4643L207.598 -6.46431M269.342 -129.952L269.342 -68.2081M269.342 -129.952L331.086 -129.952M331.086 -253.44L392.83 -253.44M392.83 -253.44L392.83 -315.183L454.574 -315.183L454.574 -253.439M392.83 -253.44L392.83 -68.2081M516.317 -376.927L578.061 -376.927L578.061 -315.183M516.317 -376.927L516.317 -253.439M608.933 -469.543L608.933 -407.799M608.933 -469.543L670.677 -469.543L670.677 -531.287M639.805 -500.415L639.805 -562.159L701.549 -562.159L701.549 -438.671M732.421 -593.03L794.165 -593.03M732.421 -593.03L732.421 -407.799M794.164 -654.774L794.165 -593.03M794.164 -654.774L855.908 -654.774M825.036 -747.39L825.036 -685.646M-317.224 518.358L-317.224 703.589L-255.48 703.589M-286.352 487.486V425.742L-224.608 425.742M-286.352 487.486L-224.608 487.486M-286.352 487.486L-286.352 672.718M-224.608 425.742L-224.608 363.999L-162.864 363.999M-224.608 425.742V487.486M-131.993 333.127L-131.993 271.383M-131.993 333.127L-131.993 394.87M-131.993 333.127H-70.2488M-8.50493 147.895L-8.50495 209.639M-8.50495 209.639L-8.50497 271.383M-8.50495 209.639L53.2389 209.639M207.598 -6.46431L207.598 -68.2081L269.342 -68.2081M207.598 -6.46431L207.598 55.2795M269.342 -68.2081L269.342 55.2795M331.086 -129.952L331.086 -191.696M331.086 -129.952V-6.46431M423.702 -284.311L423.702 -37.3362M454.574 -253.439L454.574 -191.696M454.574 -253.439L516.317 -253.439M547.189 -407.799L608.933 -407.799M608.933 -407.799L608.933 -284.311M794.165 -593.03L794.165 -531.287M855.908 -654.774L855.908 -716.518M855.908 -654.774L917.652 -654.774L917.652 -531.287M855.908 -654.774L855.908 -531.287M-348.096 549.23L-348.096 672.718M-224.608 487.486H-162.864M-193.736 456.614L-193.736 394.87L-131.993 394.87M-131.993 394.87V456.614M-131.993 394.87L-70.2488 394.87V333.127M-70.2488 333.127H-8.50499M-70.2488 271.383L-8.50497 271.383M-8.50497 271.383L-8.50499 333.127M53.2389 209.639L114.983 209.639M53.2389 209.639L53.2388 394.87M114.983 147.895L53.2388 147.895L53.2389 24.4076L114.983 24.4076L114.983 55.2795M114.983 147.895L114.983 86.1514L176.726 86.1514L176.726 147.895M114.983 147.895L114.983 209.639M114.983 147.895L176.726 147.895M207.598 55.2795L207.598 117.023M238.47 -37.3362L238.47 147.895M300.214 -99.08L300.214 24.4076M454.574 -191.696L516.317 -191.696M454.574 -191.696V-6.46429M516.317 -253.439L516.317 -191.696M516.317 -253.439L578.061 -253.44L578.061 -129.952M547.189 -346.055L547.189 -284.311L608.933 -284.311M639.805 -376.927L639.805 -438.671L701.549 -438.671M639.805 -376.927L701.549 -376.927M639.805 -376.927V-191.696M701.549 -438.671L701.549 -376.927M763.293 -562.158L763.293 -376.927M794.165 -531.287L855.908 -531.287M794.165 -531.287L794.164 -407.799M825.036 -623.902L825.036 -562.159M-255.48 580.102L-255.48 518.358L-193.736 518.358M-255.48 580.102L-255.48 641.846M-255.48 580.102L-193.736 580.102L-193.736 641.846M-162.864 487.486V425.742M-162.864 487.486V549.23M-131.993 456.614V518.358M-131.993 456.614H-70.2488M-8.50499 333.127L-8.50497 456.614H-70.2488M22.367 240.511L22.3669 487.486M114.983 209.639L114.983 271.383M176.726 147.895L176.726 209.639H238.47M176.726 147.895L238.47 147.895M269.342 55.2795L269.342 117.023H331.086M269.342 55.2795L331.086 55.2795L331.086 -6.46431M331.086 -6.46431L392.83 -6.46433L392.83 117.023M516.317 -191.696V-6.46426M608.933 -284.311L608.933 -160.824M701.549 -376.927L763.293 -376.927M701.549 -376.927V-191.696M855.908 -531.287V-346.055L917.652 -346.055M886.78 -623.902L886.78 -500.415M-255.48 641.846L-255.48 703.589M-255.48 641.846L-193.736 641.846M-224.608 549.23L-162.864 549.23M-162.864 549.23L-162.864 610.974M-131.993 518.358L-70.2488 518.358L-70.2488 456.614M-131.993 518.358L-131.993 641.846M-101.121 425.742H-39.3769V363.999M84.1108 240.511L84.1107 363.999M114.983 271.383H176.726M114.983 271.383L114.983 394.87M145.855 178.767L145.855 240.511H207.598L207.598 302.255M238.47 147.895H300.214M423.702 -37.3362L423.702 86.1514M485.445 -160.824L485.445 -37.3362M547.189 -222.568L547.189 -99.08M670.677 -346.055L670.677 -222.568M763.293 -376.927L825.036 -376.927M825.036 -500.415L825.036 -376.927M886.78 -500.415L886.78 -438.671M886.78 -500.415L948.524 -500.415M948.524 -623.902L948.524 -500.415M-255.48 703.589L-255.48 765.333M-255.48 703.589L-193.736 703.589M-193.736 641.846L-131.993 641.846M53.2388 394.87L53.2388 456.614M53.2388 394.87H114.983M238.47 209.639L238.47 271.383M238.47 209.639L300.214 209.639M207.598 178.767L331.086 178.767M331.086 117.023L331.086 178.767M331.086 117.023L392.83 117.023M300.214 86.1514L361.958 86.1514L361.958 24.4076M454.574 -6.46429L516.317 -6.46426M454.574 -6.46429V117.023L392.83 117.023M639.805 -191.696L639.805 -160.499M639.805 -191.696L701.549 -191.696M825.036 -376.927L825.036 -315.183M886.78 -438.671L886.78 -376.927M886.78 -438.671L948.524 -438.671M948.524 -500.415L1010.27 -500.415M979.396 -593.03L979.396 -531.287M-224.608 672.718L-162.864 672.718M-162.864 672.718L-162.864 734.461M-162.864 672.718L-101.121 672.718L-101.121 734.461L-39.3769 734.461M-131.993 641.846L-70.2488 641.846M-101.121 610.974L-101.121 549.23H-39.3769M-39.3769 549.23V487.486L22.3669 487.486M-39.3769 549.23H22.3669M22.3669 487.486H84.1107V425.742L145.855 425.742M114.983 394.87L176.726 394.87M145.855 363.999L145.855 302.255L207.598 302.255M207.598 302.255L269.342 302.255M300.214 209.639L300.214 271.383M300.214 209.639L361.958 209.639V271.383H300.214M331.086 178.767L392.83 178.767M516.317 -6.46426L516.317 117.023M701.549 -191.696L701.549 -129.952M732.421 -222.568L794.164 -222.568L794.165 -160.824M732.421 -222.568L732.421 -346.055L794.164 -346.055L794.164 -284.311M732.421 -222.568L732.421 86.1514L794.164 86.1515M763.293 -315.183L763.293 -253.44L825.036 -253.439M825.036 -315.183L825.036 -253.439M825.036 -315.183L886.78 -315.183M917.652 -469.543L979.396 -469.543M979.396 -469.543L979.396 -407.799M979.396 -469.543L1041.14 -469.543M1010.27 -500.415L1010.27 -562.159M1010.27 -500.415L1072.01 -500.415L1072.01 -438.671M-224.608 796.205L-224.608 734.461L-162.864 734.461M-162.864 734.461L-162.864 857.949M-70.2488 641.846V580.102H-8.50499M-70.2488 641.846L-70.2488 703.589M-70.2488 641.846L-8.50497 641.846M22.3669 549.23L22.3669 610.974M22.3669 549.23H84.1107M-8.50497 518.358L114.983 518.358M176.726 394.87L176.726 333.127L238.47 333.127V394.87M176.726 394.87V456.614M269.342 302.255L269.342 240.511M269.342 302.255L269.342 425.742H207.598M300.214 271.383L300.214 333.127M392.83 178.767L454.574 178.767V240.511M392.83 178.767V302.255M361.958 147.895L485.445 147.895M485.445 24.4076L485.445 147.895M825.036 -253.439L825.036 -191.696M917.652 -346.055L917.652 -407.799L979.396 -407.799M917.652 -346.055L917.652 -284.311M979.396 -407.799L979.396 -346.055L1041.14 -346.055M-193.736 765.333L-193.736 827.077M-131.993 703.589L-131.993 765.333M-131.993 765.333L-70.2488 765.333V950.565M-131.993 765.333L-131.993 888.821M-8.50497 641.846L-8.50496 703.589M-8.50497 641.846L53.2388 641.846M-39.3769 610.974H22.3669M22.3669 610.974L84.1107 610.974M114.983 518.358V456.614L176.726 456.614M114.983 518.358L114.983 580.102L53.2388 580.102M176.726 456.614V641.846M207.598 363.999L207.598 425.742M207.598 425.742L207.598 610.974M300.214 333.127H361.958L361.958 456.614M300.214 333.127L300.214 456.614H238.47V518.358M485.445 147.895V209.639L608.933 209.639M485.445 147.895H547.189M547.189 24.4077L547.189 147.895M763.293 -191.696L763.293 -129.952M763.293 -129.952L825.036 -129.952M763.293 -129.952L763.293 -6.46429M825.036 -191.696L825.036 -129.952M825.036 -191.696L886.78 -191.696M855.908 -222.568L855.908 -284.311L917.652 -284.311M917.652 -284.311V-160.824M948.524 -376.927L948.524 -315.183M948.524 -315.183L1010.27 -315.183L1010.27 -253.439H1072.01M948.524 -315.183L948.524 -191.696M1010.27 -376.927L1010.27 -438.671L1072.01 -438.671M1072.01 -438.671L1133.76 -438.671L1133.76 -376.927M-39.3769 734.461L-39.3769 672.718M-39.3769 734.461L-39.3769 919.693M-8.50496 703.589L-8.50495 888.821M-8.50496 703.589L114.983 703.589M84.1107 610.974L84.1108 672.718L22.367 672.718M84.1107 610.974H145.855L145.855 487.486M331.086 302.255H392.83M392.83 302.255V363.999M392.83 302.255H454.574L454.574 240.511M423.702 209.639V271.383M454.574 240.511L578.061 240.511M547.189 147.895L608.933 147.895M578.061 55.2795L578.061 117.023L639.805 117.023M825.036 -129.952L886.78 -129.952L886.78 -191.696M886.78 -191.696L886.78 -253.439M1041.14 -346.055L1041.14 -407.799L1102.88 -407.799M1041.14 -346.055L1041.14 -284.311M1041.14 -346.055L1102.88 -346.055L1102.88 -222.568M-101.121 796.205L-101.121 919.693M238.47 518.358L238.47 641.846M238.47 518.358L361.958 518.358M331.086 363.999V487.486H269.342M392.83 363.999V425.742M392.83 363.999L454.574 363.999V425.742M516.317 178.767H578.061M608.933 147.895V209.639M608.933 147.895L732.421 147.895M639.805 117.023L639.805 55.2796M639.805 117.023H701.549M763.293 -6.46429L763.293 55.2795M763.293 -6.46429H825.036M794.165 -37.3362L794.164 -99.08L855.908 -99.0799M855.908 -99.0799V-37.3362M855.908 -99.0799L917.652 -99.08M917.652 -160.824V-99.08M917.652 -160.824H979.396M979.396 -284.311L979.396 -222.568M979.396 -222.568L979.396 -160.824M979.396 -222.568H1041.14L1041.14 -160.824M1072.01 -376.927L1133.76 -376.927M1133.76 -376.927L1195.5 -376.927L1195.5 -315.183M1133.76 -376.927L1133.76 -253.439M114.983 703.589L114.983 641.846H176.726M114.983 703.589L114.983 827.077M176.726 641.846L238.47 641.846M361.958 456.614L361.958 518.358M361.958 456.614H423.702M423.702 333.127H485.445M485.445 333.127V271.383L608.933 271.383M485.445 333.127V394.87M485.445 333.127H547.189V394.87M608.933 209.639V271.383M701.549 117.023L701.549 55.2795M701.549 117.023L763.293 117.023M825.036 -6.46429L825.036 -68.2081M825.036 -6.46429L886.78 -6.46424M917.652 -99.08L917.652 -37.3362M979.396 -160.824L979.396 -37.3362M1072.01 -253.439L1072.01 -315.183M1072.01 -253.439L1072.01 -191.696M-39.3769 919.693L-39.3768 981.437M-39.3769 919.693L22.367 919.693M53.2388 765.333L53.2388 950.565M145.855 734.461L145.855 672.718L269.342 672.718M145.855 734.461L145.855 796.205M145.855 734.461H331.086M238.47 641.846L300.214 641.846M331.086 549.23H269.342L269.342 610.974L331.086 610.974M361.958 518.358V580.102M423.702 456.614V394.87M423.702 456.614L423.702 580.102M454.574 425.742H516.317M454.574 425.742V549.23M516.317 302.255H578.061M578.061 302.255H639.805L639.805 363.999M578.061 302.255V425.742M608.933 271.383H670.677M639.805 240.511V178.767L701.549 178.767L701.549 240.511M732.421 147.895L732.421 209.639M732.421 147.895L794.165 147.895M794.164 86.1515L794.164 24.4077L855.908 24.4076M794.164 86.1515L794.165 147.895M794.164 86.1515L855.908 86.1515M886.78 -6.46424L886.78 -68.208M886.78 -6.46424L886.78 55.2795M886.78 -6.46424L948.524 -6.4642M948.524 -129.952V-6.4642M1010.27 -191.696L1010.27 -129.952M1010.27 -129.952L1010.27 -68.208H1072.01L1072.01 -129.952M1010.27 -129.952L1072.01 -129.952M1072.01 -191.696L1072.01 -129.952M1072.01 -191.696L1133.76 -191.696L1133.76 -253.439M1133.76 -253.439L1195.5 -253.439M1164.63 -346.055L1164.63 -284.311M1195.5 -315.183L1195.5 -253.439M1195.5 -315.183L1257.24 -315.183L1257.24 -253.439M22.367 919.693L22.3669 981.437M22.367 919.693L22.3669 734.461L84.1107 734.461L84.1108 857.949M84.1108 857.949L84.1107 919.693M84.1108 857.949L145.855 857.949L145.855 796.205M145.855 796.205L207.598 796.205L207.598 857.949L269.342 857.949L269.342 1043.18L207.598 1043.18M176.726 703.589H300.214M300.214 641.846L300.214 703.589M300.214 641.846L361.958 641.846M300.214 580.102H361.958M361.958 580.102L361.958 641.846M392.83 487.486V610.974M516.317 425.742V363.999M516.317 425.742L516.317 487.486M516.317 425.742L578.061 425.742M670.677 271.383L670.677 209.639M670.677 271.383L670.677 333.127M670.677 271.383H732.421V209.639M732.421 209.639H794.164M794.165 147.895H855.908M855.908 86.1515V147.895M855.908 86.1515L979.396 86.1515L979.396 24.4076M825.036 55.2795L886.78 55.2795M886.78 55.2795H948.524V-6.4642M979.396 -37.3362V24.4076M979.396 -37.3362H1041.14M1195.5 -253.439V-191.696M1195.5 -253.439H1257.24M-8.50498 950.565L-8.50497 1012.31M22.3669 981.437L22.367 1043.18M22.3669 981.437L84.1108 981.437L84.1107 919.693M84.1107 919.693L145.855 919.693M176.726 765.333L238.47 765.333M238.47 765.333L238.47 827.077L300.214 827.077M238.47 765.333H300.214V827.077M300.214 703.589L361.958 703.59V641.846M361.958 641.846H423.702M423.702 580.102L423.702 641.846M423.702 580.102H485.445V518.358M485.445 456.614V518.358M485.445 518.358H547.189M578.061 425.742V487.486M578.061 425.742H639.805V487.486M608.933 333.127V394.87H670.677M670.677 333.127V394.87M670.677 333.127H732.421M763.293 178.767L825.036 178.767M825.036 178.767L825.036 240.511M825.036 178.767L886.78 178.767M855.908 147.895H979.396M979.396 24.4076L1041.14 24.4076M1041.14 -37.3362L1041.14 24.4076M1041.14 -37.3362L1102.88 -37.3361L1102.88 -99.08M1102.88 -99.08L1102.88 -160.824L1164.63 -160.824L1164.63 -222.568M1102.88 -99.08L1226.37 -99.0799V-37.3362L1164.63 -37.3362L1164.63 24.4077M1195.5 -191.696L1195.5 -129.952M1195.5 -191.696L1257.24 -191.696L1257.24 -253.439M1257.24 -253.439L1318.99 -253.439M114.983 888.821L176.726 888.821M176.726 888.821L176.726 827.077M176.726 888.821L176.726 950.565L114.983 950.565L114.983 1012.31L53.2389 1012.31L53.2389 1074.05M176.726 888.821L238.47 888.821L238.47 1012.31L176.726 1012.31L176.726 1074.05M331.086 734.461L331.086 796.205M331.086 734.461L392.83 734.461M423.702 641.846H485.446L485.445 703.589M547.189 518.358L547.189 456.614M547.189 518.358V580.102M547.189 518.358L608.933 518.358M670.677 394.87V456.614M701.549 302.255H763.293M763.293 302.255L763.293 240.511L825.036 240.511M763.293 302.255L763.293 363.999H701.549V425.742M763.293 302.255L825.036 302.255M825.036 240.511L825.036 302.255M886.78 178.767L886.78 302.255M886.78 178.767L1010.27 178.767V117.023M886.78 117.023L1010.27 117.023M1041.14 24.4076L1041.14 86.1514M1041.14 24.4076L1102.88 24.4077M1133.76 -129.952L1195.5 -129.952M1195.5 -129.952L1257.24 -129.952L1257.24 -6.46424L1195.5 -6.46429M300.214 827.077V950.565M331.086 796.205L392.83 796.205M331.086 796.205L331.086 919.693M392.83 734.461V672.718H454.574L454.574 734.461M392.83 734.461L454.574 734.461M454.574 610.974H516.317M516.317 610.974V549.23M516.317 610.974L516.317 672.718M547.189 580.102L547.189 641.846H608.933M547.189 580.102L608.933 580.102V518.358M608.933 518.358V456.614M608.933 518.358L670.677 518.358V456.614M670.677 456.614L732.421 456.614M825.036 302.255H886.78M825.036 302.255L825.036 425.742M855.908 209.639L855.908 271.383M1010.27 117.023L1010.27 55.2796M1041.14 86.1514L1041.14 147.895M1041.14 86.1514H1102.88M1102.88 24.4077V86.1514M1102.88 24.4077H1164.63M1072.01 -6.46424L1133.76 -6.4642L1133.76 -68.2081L1195.5 -68.208M1226.37 -160.824L1288.11 -160.824M1288.11 -160.824L1288.11 -222.568L1349.86 -222.568L1349.86 -160.824M1288.11 -160.824H1349.86M1288.11 -160.824L1288.11 -37.3362M207.598 919.693L207.598 981.437L145.855 981.437L145.855 1043.18L84.1107 1043.18L84.1107 1104.92L145.855 1104.92M392.83 796.205L392.83 857.949L454.574 857.949L454.574 919.693M392.83 796.205L454.574 796.205V734.461M361.958 765.333L423.702 765.333M454.574 734.461H516.317M516.317 672.718L516.317 734.461M516.317 672.718H578.061M732.421 456.614V394.87H794.165L794.164 333.127M732.421 456.614V518.358M886.78 302.255L886.78 363.999M917.652 271.383L917.652 209.639L979.396 209.639M917.652 271.383L917.652 333.127L979.396 333.127M917.652 271.383L979.396 271.383M979.396 209.639L979.396 271.383M979.396 209.639L1041.14 209.639L1041.14 147.895M1041.14 147.895L1102.88 147.895M1102.88 86.1514L1102.88 147.895M1164.63 24.4077L1226.37 24.4076M1349.86 -160.824L1411.6 -160.824M145.855 1104.92L145.855 1166.67M145.855 1104.92L207.598 1104.92M114.983 1074.05L176.726 1074.05M176.726 1074.05L238.47 1074.05M300.214 950.565L300.214 1012.31M300.214 950.565L361.958 950.565M361.958 827.077L361.958 888.821M361.958 888.821V950.565M361.958 888.821L423.702 888.821L423.702 950.565L361.958 950.565M516.317 734.461H578.061M578.061 672.718L578.061 734.461M578.061 672.718H639.805M578.061 610.974H639.805M639.805 610.974L639.805 549.23H701.549M639.805 610.974V672.718M639.805 610.974L701.549 610.974M701.549 549.23V487.486M701.549 549.23H763.293M825.036 425.742H763.293L763.293 549.23M825.036 425.742L886.78 425.742L886.78 363.999M825.036 425.742L825.036 549.23M855.908 333.127L855.908 394.87M886.78 363.999L948.524 363.999M979.396 271.383L979.396 333.127M1102.88 147.895L1164.63 147.895M1195.5 55.2796L1133.76 55.2795L1133.76 117.023L1195.5 117.023V178.767L1072.01 178.767L1072.01 240.511L1010.27 240.511L1010.27 302.255M1226.37 24.4076L1226.37 86.1515M1226.37 24.4076L1288.11 24.4077L1288.11 -37.3362M1288.11 -37.3362L1349.86 -37.3362M1380.73 -129.952L1318.99 -129.952L1318.99 -68.2081L1380.73 -68.208M1380.73 -129.952L1380.73 -68.208M1380.73 -129.952L1442.47 -129.952M238.47 1074.05L238.47 1135.8L176.726 1135.8L176.726 1197.54M238.47 1074.05L300.214 1074.05L300.214 1012.31M300.214 1012.31L361.958 1012.31L361.958 950.565M423.702 827.077L485.445 827.077M485.445 827.077V765.333H547.189M485.445 827.077L485.445 888.821M485.445 827.077L547.189 827.077M578.061 734.461L578.061 796.205H516.317M578.061 734.461H639.805M639.805 672.718L701.549 672.718V610.974M701.549 610.974L763.293 610.974L763.293 549.23M670.677 580.102H732.421M794.165 456.614L794.164 580.102M979.396 333.127L979.396 394.871L917.652 394.87L917.652 456.614L855.908 456.614V518.358M1010.27 302.255V363.999M1010.27 302.255H1072.01M1164.63 86.1515L1226.37 86.1515M1226.37 86.1515V147.895M1380.73 -68.208V-6.46429L1318.99 -6.46424L1318.99 55.2795L1257.24 55.2795L1257.24 117.023M608.933 703.589H670.677M1041.14 271.383L1102.88 271.383L1102.88 209.639L1164.63 209.639M1411.6 -37.3362L1411.6 -99.08L1473.35 -99.08" stroke="white" stroke-opacity="0.3" stroke-width="2" stroke-linecap="round"/>
</g>
<path d="M107.21 78.1729C106.717 77.8445 106.142 77.68 105.567 77.762H105.321L92.0116 77.7626L93.4901 51.637V51.5551V51.3086V51.0622C93.4901 50.9803 93.4901 50.9803 93.4081 50.8977C93.4081 50.8158 93.3262 50.7333 93.3262 50.6513C93.3262 50.5694 93.2442 50.5694 93.2442 50.4868C93.1623 50.4049 93.1623 50.3224 93.0797 50.2404C93.0797 50.1585 92.9978 50.1585 92.9978 50.0759C92.9158 49.994 92.8333 49.9115 92.8333 49.8295L92.7514 49.7476C92.6694 49.6656 92.5869 49.5831 92.5049 49.5011C92.5049 49.5011 92.423 49.5011 92.423 49.4192C92.3411 49.3372 92.2585 49.3372 92.0946 49.2547C92.0127 49.2547 92.0127 49.1728 91.9302 49.1728C91.8482 49.1728 91.7657 49.0908 91.6837 49.0908H91.4373H91.2728H91.1909H91.0264H90.698H90.6161C90.4516 49.0908 90.3697 49.1728 90.2052 49.1728C90.0407 49.2547 89.9588 49.2547 89.7943 49.3372L89.7123 49.4192C89.6304 49.5011 89.5479 49.5837 89.384 49.6656L89.302 49.7476C89.2201 49.8295 89.1376 49.912 89.0556 49.994L61.2033 90.2489C61.1213 90.3309 61.0388 90.4953 60.9569 90.6598V90.7417C60.9569 90.8237 60.8749 90.9062 60.8749 90.9882C60.8749 91.0701 60.793 91.1526 60.793 91.1526V91.2346V91.6455V91.81V92.1383C60.793 92.2203 60.8749 92.3028 60.8749 92.3848C60.8749 92.4667 60.8749 92.5492 60.9569 92.6312C60.9569 92.7131 61.0388 92.7957 61.0388 92.8776C61.0388 92.9596 61.1208 93.0421 61.1208 93.124C61.2027 93.206 61.2027 93.2885 61.2852 93.2885L61.4497 93.453C61.5317 93.5349 61.6142 93.6174 61.6961 93.6994L61.7781 93.7813C61.7781 93.7813 61.86 93.7813 61.86 93.8633C61.942 93.9452 62.0245 93.9452 62.1884 94.0278C62.2704 94.0278 62.2704 94.0278 62.3529 94.1097C62.4348 94.1097 62.5174 94.1917 62.6813 94.1917H62.8457C63.0102 94.1917 63.1741 94.2736 63.2566 94.2736H77.0585L75.58 120.399V120.481V120.728V120.974C75.58 121.056 75.58 121.138 75.662 121.138C75.662 121.22 75.7439 121.303 75.7439 121.385C75.7439 121.467 75.8259 121.467 75.8259 121.549C75.9078 121.631 75.9078 121.714 75.9903 121.796C75.9903 121.878 76.0723 121.878 76.0723 121.96C76.1542 122.042 76.1542 122.125 76.2367 122.207L76.3187 122.289C76.4006 122.371 76.4832 122.453 76.5651 122.535C76.6471 122.535 76.6471 122.617 76.7296 122.617C76.8115 122.617 76.8941 122.699 76.976 122.699C77.058 122.781 77.2224 122.781 77.3044 122.781H77.4689C77.5508 122.781 77.6333 122.781 77.7153 122.863H77.7972H77.9617C78.1262 122.863 78.3726 122.863 78.5371 122.781H78.619C78.7835 122.781 78.8655 122.699 79.0299 122.616C79.1119 122.616 79.1119 122.534 79.1944 122.534C79.3589 122.453 79.4408 122.37 79.5228 122.288L79.6047 122.206C79.7692 122.042 79.8511 121.96 80.0156 121.795L107.784 81.621C108.607 80.4725 108.36 78.9947 107.21 78.1729Z" fill="#DFE1E4"/>
</svg>
