<svg width="358" height="731" viewBox="0 0 358 731" fill="none" xmlns="http://www.w3.org/2000/svg">
<mask id="mask0_3_25" style="mask-type:alpha" maskUnits="userSpaceOnUse" x="0" y="0" width="358" height="731">
<path d="M31.7595 0.860352H320C340.987 0.860352 358 17.8735 358 38.8604V692.809C358 713.796 340.987 730.809 320 730.809H38C17.0132 730.809 0 713.796 0 692.809V33.3566C0 15.6951 14.1026 1.26529 31.7595 0.860352V0.860352Z" fill="#3E82DB"/>
</mask>
<g mask="url(#mask0_3_25)">
<path d="M24.5589 10.4401C29.0924 4.40865 36.1984 0.860352 43.7437 0.860352H321C341.435 0.860352 358 17.4258 358 37.8604V694.445C358 714.879 341.435 731.445 321 731.445H37C16.5655 731.445 0 714.879 0 694.445V51.1273C0 45.9257 1.6899 40.865 4.81524 36.707L24.5589 10.4401Z" fill="#1E2F43"/>
<path d="M-652.21 234.984L-622.336 264.859M-622.336 264.859L-592.461 234.984M-622.336 264.859L-592.461 294.733L-652.21 354.482M-532.713 264.859L-562.587 234.984L-592.461 264.859L-562.587 294.733M-532.713 264.859L-502.838 234.984L-472.964 264.859M-532.713 264.859L-562.587 294.733M-532.713 264.859L-502.838 294.733M-472.964 264.859L-443.089 234.984L-413.215 264.859M-472.964 264.859L-502.838 294.733M-472.964 264.859L-443.089 294.733M-413.215 234.984L-383.341 264.859L-413.215 294.733L-443.089 264.859M-383.341 234.984L-353.466 264.859M-353.466 264.859L-323.592 234.984M-353.466 264.859L-413.215 324.608L-443.089 294.733M-323.592 264.859L-293.717 234.984L-263.843 264.859M-323.592 264.859L-353.466 294.733M-323.592 264.859L-293.717 294.733M-263.843 234.984L-233.968 264.859M-233.968 264.859L-204.094 234.984L-174.22 264.859M-233.968 264.859L-263.843 294.733M-174.22 264.859L-144.345 234.984L-114.471 264.859M-174.22 264.859L-204.094 294.733M-114.471 264.859L-84.5964 234.984M-114.471 264.859L-144.345 294.733M-114.471 264.859L-84.5964 294.733M-54.722 234.984L-84.5964 264.859L-24.8476 324.608M5.02677 234.984L64.7756 294.733L5.02677 354.482L-24.8476 324.608M34.9012 234.984L94.65 294.733M64.7756 234.984L94.65 264.859L124.524 234.984L154.399 264.859M154.399 264.859L184.273 234.984L214.148 264.859L244.022 234.984M154.399 264.859L124.524 294.733M154.399 264.859L184.273 294.733M273.896 234.984L244.022 264.859M244.022 264.859L214.148 294.733L184.273 264.859M244.022 264.859L273.896 294.733L244.022 324.608L273.896 354.482M303.771 234.984L273.896 264.859L303.771 294.733L273.896 324.608M333.645 234.984L303.771 264.859L333.645 294.733M363.52 234.984L333.645 264.859M363.52 264.859L393.394 234.984L423.268 264.859M363.52 264.859L333.645 294.733M363.52 264.859L393.394 294.733M423.268 264.859L453.143 234.984M423.268 264.859L393.394 294.733M512.892 264.859L483.017 234.984L423.268 294.733M512.892 264.859L542.766 234.984L572.64 264.859L542.766 294.733M512.892 264.859L483.017 294.733M572.641 234.984L602.515 264.859L542.766 324.608M-652.21 264.859L-622.336 294.733L-652.21 324.608M-562.587 294.733L-652.21 384.356M-502.838 294.733L-472.964 324.608L-443.089 294.733M-353.466 294.733L-323.592 324.608M-353.466 294.733L-413.215 354.482M-293.717 264.859L-263.843 294.733M-263.843 294.733L-293.717 324.608M-263.843 294.733L-233.968 324.608M-204.094 264.859L-233.969 294.733L-204.094 324.608L-144.345 264.859M-144.345 294.733L-114.471 324.608M-144.345 294.733L-204.094 354.482M-84.5964 294.733L-114.471 324.608M-84.5964 294.733L-54.722 324.608L-84.5964 354.482M-24.8476 294.733L-54.7221 264.859L-24.8476 234.984L34.9012 294.733L5.02677 324.608M-24.8476 264.859L5.02677 294.733L-24.8476 324.608M94.65 294.733L124.524 264.859M94.65 294.733L34.9012 354.482M124.524 294.733L94.65 324.608M124.524 294.733L154.399 324.608L184.273 294.733M184.273 294.733L214.148 324.608M333.645 294.733L303.771 324.608M393.394 294.733L333.645 354.482L303.771 324.608M423.268 294.733L453.143 324.608M423.268 294.733L363.52 354.482M483.017 264.859L453.143 294.733M483.017 294.733L453.143 324.608M483.017 294.733L512.892 324.608M542.766 264.859L512.892 294.733L542.766 324.608M-562.587 324.608L-532.713 294.733L-502.838 324.608M-562.587 324.608L-592.461 354.482M-562.587 324.608L-532.713 354.482M-502.838 324.608L-532.713 354.482M-502.838 324.608L-472.964 354.482L-443.089 324.608L-413.215 354.482M-323.592 294.733L-293.717 324.608M-293.717 324.608L-323.592 354.482M-233.968 324.608L-204.094 354.482M-233.968 324.608L-293.717 384.356L-323.592 354.482M-114.471 324.608L-84.5964 354.482M-24.8476 324.608L-54.7221 354.482M94.65 324.608L64.7756 354.482M94.65 324.608L124.524 354.482L34.9012 444.105L64.7756 473.98M214.148 324.608L244.022 294.733M214.148 324.608L244.022 354.482L214.148 384.356M303.771 324.608L273.896 354.482M363.52 294.733L333.645 324.608M453.143 324.608L483.017 354.482M542.766 324.608L512.892 354.482L483.017 324.608M602.515 294.733L542.766 354.482M-592.461 354.482L-562.587 384.356M-592.461 354.482L-652.21 414.231M-532.713 354.482L-562.587 384.356M-413.215 354.482L-383.341 384.356M-383.341 354.482L-353.466 324.608L-323.592 354.482M-323.592 354.482L-353.466 384.356L-323.592 414.231M-263.843 324.608L-293.717 354.482M-204.094 354.482L-233.969 384.356L-204.094 414.231M-84.5964 354.482L-114.471 384.356L-84.5964 414.231M-84.5964 354.482L-54.722 384.356M34.9012 354.482L5.02677 384.356M34.9012 354.482L64.7756 384.356M124.524 324.608L154.399 354.482M154.399 354.482L184.273 324.608L214.148 354.482L184.273 384.356M154.399 354.482L64.7756 444.105M273.896 354.482L303.771 384.356L273.896 414.231M273.896 354.482L214.148 414.231M363.52 354.482L333.645 384.356M363.52 354.482L393.394 384.356L423.268 354.482M393.394 354.482L423.268 324.608L453.143 354.482L393.394 414.231M483.017 354.482L512.892 384.356M483.017 354.482L393.394 444.105M542.766 354.482L512.892 384.356M542.766 354.482L572.64 384.356M602.515 324.608L572.641 354.482M-562.587 384.356L-652.21 473.98L-622.336 503.854M-532.713 384.356L-502.838 354.482L-472.964 384.356M-532.713 384.356L-502.838 414.231M-532.713 384.356L-622.336 473.98M-472.964 384.356L-443.089 354.482L-413.215 384.356M-472.964 384.356L-502.838 414.231M-383.341 384.356L-353.466 354.482M-383.341 384.356L-413.215 414.231M-383.341 384.356L-353.466 414.231M-233.968 354.482L-263.843 384.356M-263.843 384.356L-293.717 414.231M-263.843 384.356L-233.968 414.231M-144.345 354.482L-174.22 384.356M-144.345 384.356L-114.471 354.482L-144.345 324.608L-204.094 384.356L-174.22 414.231M-144.345 384.356L-174.22 414.231M-144.345 384.356L-114.471 414.231L-144.345 444.105M-54.722 384.356L-24.8476 354.482L5.02677 384.356M-54.722 384.356L-84.5964 414.231M5.02677 384.356L-54.7221 444.105M64.7756 384.356L94.65 354.482M64.7756 384.356L5.02677 444.105M184.273 354.482L64.7756 473.98M184.273 384.356L154.399 414.231M184.273 384.356L214.148 414.231M303.771 354.482L333.645 384.356M333.645 384.356L273.896 444.105M512.892 384.356L483.017 414.231M572.64 384.356L602.515 354.482M572.64 384.356L602.515 414.231L542.766 473.98M572.64 384.356L512.892 444.105M-592.461 384.356L-652.21 444.105M-502.838 414.231L-472.964 444.105M-472.964 414.231L-443.089 384.356L-413.215 414.231M-413.215 414.231L-443.089 444.105M-413.215 414.231L-383.341 444.105L-353.466 414.231M-353.466 414.231L-323.592 444.105M-323.592 384.356L-293.717 414.231M-293.717 414.231L-323.592 444.105M-233.968 414.231L-204.094 444.105M-233.968 414.231L-323.592 503.854M-174.22 414.231L-204.094 444.105M-174.22 414.231L-144.345 444.105M-84.5964 414.231L-114.471 444.105M-24.8476 384.356L-114.471 473.98M34.9012 384.356L-24.8476 444.105M154.399 414.231L184.273 444.105M154.399 414.231L64.7756 503.854M214.148 414.231L184.273 444.105M214.148 414.231L244.022 444.105L184.273 503.854M273.896 384.356L244.022 414.231L273.896 444.105M333.645 414.231L363.52 384.356L393.394 414.231M333.645 414.231L363.52 444.105M333.645 414.231L244.022 503.854M393.394 414.231L363.52 444.105M483.017 384.356L393.394 473.98M483.017 414.231L512.892 444.105M483.017 414.231L423.268 473.98M542.766 384.356L512.892 414.231M-562.587 444.105L-532.713 414.231L-502.838 444.105M-562.587 444.105L-592.461 473.98M-562.587 444.105L-532.713 473.98L-562.587 503.854M-472.964 444.105L-443.089 414.231M-472.964 444.105L-502.838 473.98M-443.089 444.105L-472.964 473.98M-443.089 444.105L-413.215 473.98M-323.592 444.105L-383.341 503.854L-413.215 473.98M-263.843 414.231L-383.341 533.728M-204.094 444.105L-233.969 473.98M-144.345 444.105L-174.22 473.98L-144.345 503.854M-144.345 444.105L-114.471 473.98M-54.7221 444.105L-84.5964 473.98L-54.722 503.854M-54.7221 444.105L-24.8476 473.98L5.02677 444.105M5.02677 444.105L34.9012 473.98L-24.8476 533.728M184.273 444.105L94.65 533.728M273.896 444.105L214.148 503.854M363.52 444.105L393.394 473.98M363.52 444.105L273.896 533.728M512.892 444.105L423.268 533.728L453.143 563.603M572.64 414.231L512.892 473.98M-592.461 473.98L-622.336 503.854M-592.461 473.98L-562.587 503.854M-532.713 444.105L-502.838 473.98M-502.838 473.98L-532.713 503.854M-472.964 473.98L-443.089 503.854L-413.215 473.98M-472.964 473.98L-532.713 533.728M-413.215 444.105L-383.341 473.98L-353.466 444.105M-233.968 444.105L-293.717 503.854M-233.969 473.98L-204.094 503.854M-233.969 473.98L-293.717 533.728M-174.22 444.105L-204.094 473.98L-174.22 503.854L-204.094 533.728M-114.471 473.98L-84.5964 503.854M64.7756 473.98L5.02677 533.728M154.399 444.105L94.65 503.854M214.148 444.105L154.399 503.854M333.645 444.105L273.896 503.854M393.394 473.98L423.268 503.854M483.017 444.105L423.268 503.854M512.892 473.98L483.017 503.854M512.892 473.98L542.766 503.854M602.515 444.105L542.766 503.854M-622.336 503.854L-652.21 533.728M-622.336 503.854L-592.461 533.728M-562.587 503.854L-532.713 533.728M-323.592 503.854L-353.466 533.728M-323.592 503.854L-293.717 533.728M-144.345 503.854L-174.22 533.728M-144.345 503.854L-114.471 533.728M-144.345 473.98L-84.5964 533.728M-54.722 503.854L-84.5964 533.728M-54.722 503.854L-24.8476 533.728M-54.7221 473.98L-24.8476 503.854L5.02677 473.98M64.7756 503.854L94.65 533.728M64.7756 503.854L5.02677 563.603L-24.8476 533.728M244.022 503.854L228.928 518.949M244.022 503.854L273.896 533.728M423.268 503.854L393.394 533.728M483.017 503.854L453.143 533.728M483.017 503.854L512.892 533.728M542.766 503.854L572.64 533.728M602.515 473.98L572.641 503.854M-592.461 503.854L-562.587 533.728M-562.587 533.728L-592.461 563.603M-562.587 533.728L-532.713 563.603L-562.587 593.477L-532.713 623.352M-532.713 533.728L-502.838 563.603M-502.838 533.728L-472.964 503.854L-443.089 533.728M-443.089 533.728L-413.215 503.854L-383.341 533.728M-443.089 533.728L-413.215 563.603M-383.341 533.728L-353.466 563.603L-323.592 533.728L-293.717 563.603M-293.717 533.728L-263.843 563.603M-263.843 533.728L-233.968 503.854L-204.094 533.728M-204.094 533.728L-174.22 563.603M-114.471 533.728L-144.345 563.603M-114.471 533.728L-84.5964 563.603L-114.471 593.477L-144.345 563.603M-84.5964 533.728L-54.722 563.603M94.65 533.728L34.9012 593.477M273.896 533.728L244.022 563.603M303.771 533.728L333.645 563.603L303.771 593.477M303.771 533.728L363.52 473.98L393.394 503.854L363.52 533.728M303.771 533.728L229.085 608.414L191.742 645.757L170.53 667.221M363.52 503.854L333.645 533.728L363.52 563.603M393.394 533.728L363.52 563.603M393.394 533.728L423.268 563.603M512.892 503.854L542.766 533.728M542.766 533.728L512.892 563.603M542.766 533.728L572.64 563.603M572.64 533.728L602.515 503.854M572.64 533.728L602.515 563.603L572.64 593.477M-652.21 563.603L-622.336 533.728L-592.461 563.603M-592.461 563.603L-652.21 623.352M-502.838 563.603L-472.964 533.728L-443.089 563.603M-502.838 563.603L-532.713 593.477M-502.838 563.603L-472.964 593.477M-413.215 563.603L-443.089 593.477M-413.215 563.603L-383.341 593.477M-413.215 533.728L-353.466 593.477M-263.843 563.603L-233.968 533.728L-204.094 563.603L-233.969 593.477M-263.843 563.603L-293.717 593.477M-174.22 563.603L-144.345 533.728M-174.22 563.603L-233.968 623.352L-263.843 593.477M-144.345 563.603L-174.22 593.477M-54.722 563.603L-24.8476 593.477L-54.7221 623.352M-54.722 563.603L-114.471 623.352M-54.7221 533.728L5.02677 593.477M64.7756 533.728L5.02677 593.477M363.52 563.603L333.645 593.477M453.143 563.603L483.017 533.728L512.892 563.603M453.143 563.603L423.268 593.477M512.892 563.603L483.017 593.477L512.892 623.352M-622.336 563.603L-652.21 593.477M-562.587 563.603L-592.461 593.477M-592.461 593.477L-562.587 623.352L-652.21 712.975M-592.461 593.477L-652.21 653.226M-472.964 593.477L-502.838 623.352M-472.964 593.477L-443.089 623.352M-472.964 563.603L-443.089 593.477M-443.089 593.477L-413.215 623.352M-353.466 593.477L-323.592 563.603L-293.717 593.477M-353.466 593.477L-383.341 623.352L-413.215 593.477M-293.717 593.477L-383.341 683.1M-233.968 563.603L-263.843 593.477M-263.843 593.477L-353.466 683.1M-174.22 593.477L-144.345 623.352L-204.094 683.1M-174.22 593.477L-233.968 653.226L-263.843 623.352L-293.717 653.226M5.02677 593.477L-24.8476 623.352L34.9012 683.1M5.02677 593.477L34.9012 623.352M94.65 563.603L34.9012 623.352M303.771 563.603L273.896 593.477M273.896 593.477L303.771 623.352M273.896 593.477L244.022 623.352L229.085 638.289M333.645 593.477L303.771 623.352M333.645 593.477L363.52 623.352M363.52 593.477L393.394 563.603L423.268 593.477M423.268 593.477L363.52 653.226M483.017 563.603L453.143 593.477M453.143 593.477L483.017 623.352L453.143 653.226L483.017 683.1M453.143 593.477L393.394 653.226M512.892 593.477L542.766 563.603L572.64 593.477M572.64 593.477L602.515 623.352L572.64 653.226M-532.713 623.352L-502.838 593.477M-532.713 623.352L-622.336 712.975M-502.838 623.352L-592.461 712.975M-502.838 623.352L-443.089 683.1M-413.215 623.352L-443.089 653.226L-472.964 623.352M-413.215 623.352L-383.341 653.226L-323.592 593.477M-144.345 593.477L-114.471 623.352M-114.471 623.352L-144.345 653.226M-114.471 623.352L-84.5964 653.226L-54.7221 623.352M-54.722 593.477L-84.5964 623.352M-54.7221 623.352L5.02677 683.1M34.9012 623.352L64.7756 653.226M94.65 593.477L64.7756 623.352L94.65 653.226M303.771 623.352L333.645 653.226L363.52 623.352M363.52 623.352L393.394 593.477M512.892 623.352L542.766 593.477L572.64 623.352M512.892 623.352L483.017 653.226M512.892 623.352L542.766 653.226L483.017 712.975M-592.461 623.352L-652.21 683.1M-293.717 653.226L-353.466 712.975M-293.717 653.226L-233.968 712.975M-174.22 623.352L-233.968 683.1L-263.843 653.226M-144.345 653.226L-174.22 683.1M-144.345 653.226L-114.471 683.1L-144.345 712.975M5.02677 623.352L34.9012 653.226M64.7756 653.226L34.9012 683.1M64.7756 653.226L124.524 712.975M94.65 653.226L124.524 623.352M94.65 653.226L124.524 683.1M244.022 653.226L273.896 623.352L303.771 653.226M303.771 653.226L273.896 683.1M303.771 653.226L333.645 683.1M363.52 653.226L333.645 683.1M363.52 653.226L393.394 683.1M453.143 623.352L423.268 653.226M423.268 653.226L393.394 683.1M423.268 653.226L453.143 683.1L423.268 712.975M542.766 623.352L572.64 653.226M572.64 653.226L602.515 683.1L572.641 712.975M572.64 653.226L512.892 712.975M-443.089 683.1L-413.215 653.226L-383.341 683.1M-443.089 683.1L-502.838 742.849M-383.341 683.1L-353.466 712.975M-204.094 683.1L-233.968 712.975M-204.094 683.1L-174.22 712.975M-114.471 653.226L-84.5964 683.1M-84.5964 683.1L-54.722 653.226L5.02677 712.975M-84.5964 683.1L-114.471 712.975M-84.5964 683.1L-54.722 712.975L-84.5964 742.849M34.9012 683.1L5.02677 712.975M124.524 683.1L154.399 653.226M124.524 683.1L154.399 712.975M154.399 683.1L184.273 712.975M184.273 683.1L214.148 653.226L244.022 683.1M244.022 683.1L273.896 653.226M244.022 683.1L273.896 712.975M333.645 683.1L303.771 712.975M393.394 683.1L333.645 742.849M483.017 683.1L512.892 653.226M483.017 683.1L453.143 712.975M-622.336 712.975L-652.21 742.849M-622.336 712.975L-592.461 742.849M-502.838 683.1L-592.461 772.724M-443.089 712.975L-413.215 683.1L-353.466 742.849M-443.089 712.975L-472.964 742.849M-443.089 712.975L-353.466 802.598M-353.466 712.975L-323.592 742.849M-263.843 712.975L-293.717 683.1L-323.592 712.975L-293.717 742.849M-233.968 712.975L-263.843 742.849M-174.22 712.975L-144.345 683.1M-174.22 712.975L-233.969 772.724M-144.345 712.975L-114.471 742.849M-144.345 712.975L-204.094 772.724M-54.7221 683.1L-24.8476 712.975M-24.8476 712.975L5.02677 742.849L-24.8476 772.724M-24.8476 712.975L-84.5964 772.724M5.02677 712.975L34.9012 742.849M34.9012 712.975L64.7756 683.1L94.65 712.975L64.7756 742.849M124.524 712.975L94.65 742.849M124.524 712.975L154.399 742.849M184.273 712.975L214.148 683.1L244.022 712.975M184.273 712.975L154.399 742.849M184.273 712.975L214.148 742.849M273.896 712.975L303.771 683.1M273.896 712.975L244.022 742.849M273.896 712.975L303.771 742.849M363.52 683.1L303.771 742.849M423.268 683.1L393.394 712.975M393.394 712.975L363.52 742.849L393.394 772.724L423.268 742.849M393.394 712.975L423.268 742.849M453.143 712.975L423.268 742.849M453.143 712.975L483.017 742.849L512.892 712.975M512.892 712.975L542.766 742.849M572.64 683.1L542.766 712.975M572.641 712.975L542.766 742.849M572.641 712.975L602.515 742.849L572.64 772.724M-592.461 742.849L-622.336 772.724M-592.461 742.849L-502.838 653.226L-472.964 683.1L-532.713 742.849M-532.713 742.849L-562.587 772.724M-532.713 742.849L-502.838 772.724L-472.964 742.849M-472.964 742.849L-443.089 772.724L-472.964 802.598L-443.089 832.473L-532.713 922.096L-562.587 892.221M-413.215 712.975L-353.466 772.724M-323.592 742.849L-353.466 772.724M-323.592 742.849L-293.717 772.724M-293.717 712.975L-263.843 742.849M-263.843 742.849L-293.717 772.724M-204.094 712.975L-263.843 772.724M-114.471 742.849L-84.5964 712.975M-114.471 742.849L-144.345 772.724M-114.471 742.849L-84.5964 772.724M34.9012 742.849L64.7756 712.975M34.9012 742.849L5.02677 772.724M34.9012 742.849L64.7756 772.724L94.65 742.849M94.65 742.849L124.524 772.724M154.399 742.849L184.273 772.724M214.148 742.849L184.273 772.724M214.148 742.849L273.896 802.598L303.771 772.724M214.148 712.975L244.022 742.849M244.022 742.849L273.896 772.724L303.771 742.849M333.645 742.849L303.771 772.724M333.645 742.849L363.52 772.724M542.766 742.849L512.892 772.724M542.766 742.849L572.64 772.724M-622.336 742.849L-652.21 772.724M-622.336 772.724L-652.21 802.598M-622.336 772.724L-592.461 802.598L-562.587 772.724M-562.587 772.724L-532.713 802.598M-443.089 742.849L-413.215 772.724M-413.215 772.724L-443.089 802.598L-413.215 832.473M-413.215 772.724L-383.341 802.598L-413.215 832.473M-353.466 772.724L-323.592 802.598L-293.717 772.724M-293.717 772.724L-263.843 802.598M-233.969 772.724L-263.843 802.598M-233.969 772.724L-204.094 802.598L-174.22 772.724M-144.345 742.849L-174.22 772.724M-174.22 772.724L-144.345 802.598M-84.5964 772.724L-114.471 802.598M-84.5964 772.724L-54.722 802.598L-84.5964 832.473M-24.8476 742.849L-54.7221 772.724L-24.8476 802.598M5.02677 772.724L-24.8476 802.598M5.02677 772.724L34.9012 802.598M124.524 742.849L154.399 772.724M154.399 772.724L124.524 802.598M154.399 772.724L184.273 802.598M184.273 772.724L244.022 832.473M303.771 772.724L333.645 802.598M363.52 772.724L333.645 802.598M363.52 772.724L393.394 802.598L423.268 772.724M423.268 772.724L453.143 742.849L483.017 772.724L512.892 742.849M423.268 772.724L483.017 832.473L453.143 862.347L423.268 832.473L393.394 862.347M512.892 772.724L483.017 802.598M512.892 772.724L542.766 802.598L572.64 772.724M572.64 772.724L602.515 802.598M-532.713 772.724L-502.838 802.598M-502.838 802.598L-472.964 772.724M-502.838 802.598L-532.713 832.473L-562.587 802.598L-592.461 832.473L-622.336 802.598L-652.21 832.473M-502.838 802.598L-472.964 832.473L-532.713 892.221L-562.587 862.347L-592.461 892.221M-353.466 802.598L-383.341 832.473M-353.466 802.598L-323.592 832.473M-263.843 802.598L-233.968 832.473L-263.843 862.347M-144.345 802.598L-114.471 772.724M-144.345 802.598L-174.22 832.473M-144.345 802.598L-114.471 832.473M-24.8476 802.598L-54.7221 832.473M34.9012 772.724L64.7756 802.598M64.7756 802.598L94.65 772.724L124.524 802.598M64.7756 802.598L34.9012 832.473L5.02677 802.598L-24.8476 832.473M64.7756 802.598L94.65 832.473M124.524 802.598L94.65 832.473M184.273 802.598L124.524 862.347M184.273 802.598L244.022 862.347L273.896 832.473M214.148 772.724L273.896 832.473M333.645 802.598L303.771 832.473M333.645 802.598L363.52 832.473M453.143 772.724L483.017 802.598M483.017 802.598L512.892 832.473L453.143 892.221L423.268 862.347M-413.215 832.473L-472.964 892.221M-383.341 832.473L-353.466 862.347M-383.341 832.473L-443.089 892.221M-323.592 832.473L-293.717 802.598L-263.843 832.473L-293.717 862.347M-323.592 832.473L-293.717 862.347M-233.969 802.598L-204.094 832.473M-204.094 832.473L-174.22 802.598M-204.094 832.473L-233.969 862.347M-174.22 832.473L-204.094 862.347L-174.22 892.221M-174.22 832.473L-144.345 862.347L-114.471 832.473M-114.471 832.473L-84.5964 802.598M-114.471 832.473L-84.5964 862.347L-54.7221 832.473M-54.7221 832.473L-24.8476 862.347M94.65 832.473L124.524 862.347M94.65 832.473L34.9012 892.221M154.399 802.598L124.524 832.473M273.896 832.473L303.771 802.598M303.771 832.473L273.896 862.347M303.771 832.473L333.645 862.347M363.52 832.473L333.645 862.347M363.52 832.473L393.394 862.347M363.52 802.598L393.394 832.473L423.268 802.598L453.143 832.473M512.892 802.598L542.766 832.473M542.766 832.473L572.64 802.598L602.515 832.473L572.64 862.347M542.766 832.473L572.64 862.347M542.766 832.473L483.017 892.221M-502.838 832.473L-532.713 862.347L-562.587 832.473L-592.461 862.347L-622.336 832.473L-652.21 862.347L-622.336 892.221M-353.466 862.347L-383.341 892.221L-353.466 922.096L-383.341 951.97M-353.466 862.347L-323.592 892.221L-293.717 862.347M-353.466 832.473L-323.592 862.347M-293.717 862.347L-263.843 892.221M-233.969 862.347L-263.843 892.221M-233.969 862.347L-204.094 892.221M-24.8476 862.347L5.02677 832.473L34.9012 862.347L64.7756 832.473M-24.8476 862.347L-54.7221 892.221M124.524 862.347L94.65 892.221M154.399 862.347L184.273 832.473L214.148 862.347M154.399 862.347L124.524 892.221L154.399 922.096M154.399 862.347L184.273 892.221M214.148 862.347L184.273 892.221M214.148 862.347L244.022 892.221L273.896 862.347M273.896 862.347L303.771 892.221M333.645 862.347L303.771 892.221M393.394 862.347L423.268 892.221M572.64 862.347L602.515 892.221M-622.336 892.221L-652.21 922.096M-622.336 892.221L-592.461 922.096M-622.336 862.347L-592.461 892.221M-592.461 892.221L-562.587 922.096M-472.964 892.221L-502.838 922.096M-472.964 892.221L-443.089 922.096M-383.341 862.347L-413.215 892.221M-413.215 892.221L-443.089 922.096M-413.215 892.221L-383.341 922.096L-413.215 951.97L-443.089 922.096M-263.843 892.221L-233.968 922.096M-204.094 892.221L-233.968 922.096M-204.094 892.221L-174.22 922.096M-174.22 862.347L-144.345 892.221M-144.345 892.221L-114.471 862.347L-84.5964 892.221M-144.345 892.221L-174.22 922.096M-144.345 892.221L-114.471 922.096M-84.5964 892.221L-54.722 862.347M-84.5964 892.221L-54.722 922.096M34.9012 892.221L5.02677 862.347L-54.722 922.096M34.9012 892.221L64.7756 922.096L94.65 892.221M34.9012 892.221L-24.8476 951.97M94.65 862.347L64.7756 892.221M94.65 892.221L124.524 922.096M184.273 892.221L154.399 922.096M303.771 892.221L333.645 922.096M393.394 892.221L363.52 862.347L333.645 892.221L363.52 922.096L333.645 951.97L273.896 892.221L244.022 922.096L214.148 892.221L184.273 922.096M423.268 892.221L393.394 922.096M423.268 892.221L453.143 922.096L483.017 892.221M483.017 892.221L512.892 922.096M572.64 892.221L542.766 862.347L512.892 892.221L542.766 922.096M572.64 892.221L542.766 922.096M572.64 892.221L602.515 922.096M-562.587 922.096L-592.461 951.97L-622.336 922.096L-652.21 951.97M-562.587 922.096L-532.713 951.97L-502.838 922.096M-502.838 922.096L-472.964 951.97L-443.089 922.096M-353.466 892.221L-323.592 922.096M-323.592 922.096L-293.717 892.221L-263.843 922.096M-323.592 922.096L-353.466 951.97M-323.592 922.096L-293.717 951.97M-233.968 922.096L-263.843 951.97L-293.717 922.096M-233.968 922.096L-204.094 951.97M-174.22 922.096L-144.345 951.97L-114.471 922.096M-114.471 922.096L-84.5964 951.97L-54.722 922.096M-114.471 892.221L-84.5964 922.096M5.02677 892.221L-54.7221 951.97M154.399 922.096L124.524 951.97L94.65 922.096L64.7756 951.97L34.9012 922.096L5.02677 951.97M184.273 922.096L154.399 951.97M184.273 922.096L214.148 951.97M363.52 892.221L393.394 922.096M393.394 922.096L363.52 951.97M542.766 922.096L512.892 951.97L483.017 922.096L453.143 951.97L423.268 922.096L393.394 951.97M-204.094 922.096L-174.22 951.97M214.148 922.096L244.022 951.97L273.896 922.096L303.771 951.97M542.766 951.97L572.64 922.096L602.515 951.97" stroke="url(#paint0_linear_3_25)" stroke-opacity="0.2" stroke-width="1.71065" stroke-linecap="round"/>
<path d="M351.099 139.124C355.508 143.359 358 149.208 358 155.322L358 805.142C358 817.545 347.945 827.601 335.541 827.601L25.251 827.601C12.847 827.601 2.79162 817.545 2.79162 805.142L2.79165 101.834C2.79165 89.4304 12.847 79.375 25.251 79.375L279.857 79.375C285.657 79.375 291.232 81.6189 295.415 85.6369L351.099 139.124Z" fill="url(#paint1_linear_3_25)"/>
<path opacity="0.2" d="M266.362 -40.1929L179.387 45.322C173.446 51.1629 174.377 60.9882 181.309 65.6095V65.6095C186.549 69.1034 193.533 68.3837 197.951 63.8944L299.603 -39.4013" stroke="white" stroke-width="1.50878"/>
<path opacity="0.4" d="M390.628 15.7183L303.652 101.233C297.711 107.074 298.642 116.899 305.574 121.521V121.521C310.815 125.015 317.798 124.295 322.216 119.805L423.868 16.5099" stroke="white" stroke-width="1.50878"/>
<path d="M299.591 760.472L371.531 688.533C375.559 684.505 375.559 677.974 371.531 673.945V673.945C367.503 669.917 360.972 669.917 356.944 673.945L312.183 718.706C307.773 723.116 300.624 723.116 296.214 718.706V718.706C291.804 714.296 291.804 707.146 296.214 702.736L310.955 687.995C314.686 684.264 314.686 678.214 310.955 674.483V674.483C307.223 670.751 301.174 670.751 297.442 674.483L282.548 689.377C278.054 693.871 270.767 693.871 266.272 689.377V689.377C261.778 684.883 261.778 677.596 266.272 673.101L281.32 658.054C285.136 654.238 285.136 648.051 281.32 644.235V644.235C277.504 640.419 271.317 640.419 267.501 644.235L255.216 656.519C249.62 662.115 240.547 662.115 234.951 656.519L224.504 646.072C218.907 640.476 209.835 640.476 204.238 646.072L176.365 673.945C172.337 677.974 165.806 677.974 161.778 673.945V673.945C157.75 669.917 157.75 663.386 161.778 659.358L169.072 652.065L176.115 645.299C178.927 642.597 180.517 638.866 180.517 634.965V626.558" stroke="white" stroke-width="1.36472"/>
<path d="M-178.098 774.425L-116.002 712.329C-111.925 708.252 -105.315 708.252 -101.238 712.329V712.329C-97.161 716.406 -97.161 723.016 -101.238 727.093L-119.997 745.852C-124.362 750.217 -124.362 757.294 -119.997 761.658V761.658C-115.632 766.023 -108.555 766.023 -104.19 761.658L-73.4451 730.913C-67.2584 724.726 -67.2584 714.696 -73.4451 708.509L-85.4313 696.523C-90.0841 691.87 -90.0841 684.326 -85.4313 679.674V679.674C-80.7785 675.021 -73.2348 675.021 -68.582 679.674L-5.70256 742.553C0.4842 748.74 0.484199 758.771 -5.70256 764.957L-19.1655 778.42" stroke="url(#paint2_linear_3_25)" stroke-width="1.50878"/>
<g opacity="0.7" filter="url(#filter0_f_3_25)">
<g filter="url(#filter1_f_3_25)">
<circle cx="111.814" cy="646.578" r="124.736" transform="rotate(60 111.814 646.578)" fill="#78F6FC"/>
</g>
<g filter="url(#filter2_f_3_25)">
<ellipse cx="117.762" cy="517.031" rx="141.331" ry="83.0731" transform="rotate(60 117.762 517.031)" fill="#FC78DF"/>
</g>
<g opacity="0.7" filter="url(#filter3_f_3_25)">
<circle cx="328.595" cy="420.216" r="144.692" transform="rotate(60 328.595 420.216)" fill="#F7C765"/>
</g>
</g>
<circle cx="172.78" cy="560.777" r="60.9524" fill="#ED970D"/>
<circle opacity="0.5" cx="172.78" cy="560.777" r="66.7399" stroke="white" stroke-width="1.50878"/>
<g filter="url(#filter4_d_3_25)">
<path fill-rule="evenodd" clip-rule="evenodd" d="M150.032 598.843C156.485 602.862 163.618 604.872 171.431 604.872C179.922 604.872 187.593 602.494 194.443 597.739C200.715 593.333 205.539 587.789 208.916 581.105C209.402 580.143 208.835 579 207.786 578.756L199.027 576.721C198.276 576.546 197.504 576.899 197.116 577.565C194.424 582.177 190.957 585.845 186.716 588.568C182.187 591.512 177.092 592.984 171.431 592.984C166.222 592.927 161.467 591.682 157.165 589.247C152.919 586.756 149.409 583.388 146.635 579.142C144.245 575.407 142.643 571.234 141.83 566.623C141.651 565.61 142.45 564.707 143.479 564.707H211.921C212.833 564.707 213.587 563.991 213.608 563.079C213.753 556.731 212.913 550.791 211.087 545.261C209.162 539.26 206.275 534.023 202.425 529.551C198.632 525.079 194.075 521.597 188.754 519.106C183.489 516.616 177.715 515.37 171.431 515.37C165.6 515.37 160.109 516.531 154.957 518.852C149.805 521.173 145.276 524.4 141.37 528.532C137.521 532.608 134.492 537.363 132.284 542.798C130.076 548.176 128.973 553.979 128.973 560.206C128.973 568.415 130.869 575.915 134.662 582.709C138.511 589.445 143.635 594.823 150.032 598.843ZM175.307 539.128C175.206 538.556 175.416 537.982 175.777 537.527C176.593 536.497 177.08 535.194 177.08 533.778C177.08 530.44 174.374 527.734 171.036 527.734C167.698 527.734 164.992 530.44 164.992 533.778C164.992 535.24 165.511 536.581 166.375 537.626C166.755 538.086 166.98 538.674 166.876 539.261L164.637 551.918C164.452 552.965 165.257 553.925 166.32 553.925H175.887C176.95 553.925 177.755 552.965 177.57 551.918L175.307 539.128Z" fill="white"/>
</g>
</g>
<defs>
<filter id="filter0_f_3_25" x="-157.786" y="130.657" width="775.94" height="785.521" filterUnits="userSpaceOnUse" color-interpolation-filters="sRGB">
<feFlood flood-opacity="0" result="BackgroundImageFix"/>
<feBlend mode="normal" in="SourceGraphic" in2="BackgroundImageFix" result="shape"/>
<feGaussianBlur stdDeviation="72.4214" result="effect1_foregroundBlur_3_25"/>
</filter>
<filter id="filter1_f_3_25" x="-96.4612" y="438.304" width="416.55" height="416.55" filterUnits="userSpaceOnUse" color-interpolation-filters="sRGB">
<feFlood flood-opacity="0" result="BackgroundImageFix"/>
<feBlend mode="normal" in="SourceGraphic" in2="BackgroundImageFix" result="shape"/>
<feGaussianBlur stdDeviation="41.7592" result="effect1_foregroundBlur_3_25"/>
</filter>
<filter id="filter2_f_3_25" x="-66.5998" y="304.226" width="368.724" height="425.611" filterUnits="userSpaceOnUse" color-interpolation-filters="sRGB">
<feFlood flood-opacity="0" result="BackgroundImageFix"/>
<feBlend mode="normal" in="SourceGraphic" in2="BackgroundImageFix" result="shape"/>
<feGaussianBlur stdDeviation="41.7592" result="effect1_foregroundBlur_3_25"/>
</filter>
<filter id="filter3_f_3_25" x="100.361" y="191.982" width="456.469" height="456.469" filterUnits="userSpaceOnUse" color-interpolation-filters="sRGB">
<feFlood flood-opacity="0" result="BackgroundImageFix"/>
<feBlend mode="normal" in="SourceGraphic" in2="BackgroundImageFix" result="shape"/>
<feGaussianBlur stdDeviation="41.7592" result="effect1_foregroundBlur_3_25"/>
</filter>
<filter id="filter4_d_3_25" x="110.867" y="507.826" width="120.862" height="125.713" filterUnits="userSpaceOnUse" color-interpolation-filters="sRGB">
<feFlood flood-opacity="0" result="BackgroundImageFix"/>
<feColorMatrix in="SourceAlpha" type="matrix" values="0 0 0 0 0 0 0 0 0 0 0 0 0 0 0 0 0 0 127 0" result="hardAlpha"/>
<feOffset dy="10.5615"/>
<feGaussianBlur stdDeviation="9.05268"/>
<feComposite in2="hardAlpha" operator="out"/>
<feColorMatrix type="matrix" values="0 0 0 0 0.00875 0 0 0 0 0.0595 0 0 0 0 0.51625 0 0 0 0.25 0"/>
<feBlend mode="normal" in2="BackgroundImageFix" result="effect1_dropShadow_3_25"/>
<feBlend mode="normal" in="SourceGraphic" in2="effect1_dropShadow_3_25" result="shape"/>
</filter>
<linearGradient id="paint0_linear_3_25" x1="-127.322" y1="363.465" x2="374.463" y2="757.725" gradientUnits="userSpaceOnUse">
<stop stop-color="#ED970D"/>
<stop offset="1" stop-color="#5FD1E9"/>
</linearGradient>
<linearGradient id="paint1_linear_3_25" x1="156.269" y1="79.375" x2="163.48" y2="695.626" gradientUnits="userSpaceOnUse">
<stop offset="0.481402" stop-color="#1E2F43" stop-opacity="0.96"/>
<stop offset="1" stop-color="#1E2F43" stop-opacity="0"/>
</linearGradient>
<linearGradient id="paint2_linear_3_25" x1="-16.1831" y1="742.733" x2="-147.931" y2="755.692" gradientUnits="userSpaceOnUse">
<stop stop-color="white"/>
<stop offset="1" stop-color="white" stop-opacity="0"/>
</linearGradient>
</defs>
</svg>
