<svg width="1242" height="594" viewBox="0 0 1242 594" fill="none" xmlns="http://www.w3.org/2000/svg">
<mask id="mask0_1_56" style="mask-type:alpha" maskUnits="userSpaceOnUse" x="4" y="0" width="1234" height="586">
<path d="M102.817 12.0129C109.982 4.55331 119.878 0.336914 130.222 0.336914H1199.32C1220.31 0.336914 1237.32 17.3501 1237.32 38.3369V547.515C1237.32 568.501 1220.31 585.515 1199.32 585.515H42.6796C21.6928 585.515 4.67969 568.501 4.67969 547.515V129.474C4.67969 119.661 8.47627 110.228 15.2745 103.15L102.817 12.0129Z" fill="#3E82DB"/>
</mask>
<g mask="url(#mask0_1_56)">
<path d="M103.112 11.7056C110.089 4.44235 119.725 0.336914 129.796 0.336914H1200.32C1220.76 0.336914 1237.32 16.9024 1237.32 37.3369V548.515C1237.32 568.949 1220.76 585.515 1200.32 585.515H41.6797C21.2451 585.515 4.67969 568.949 4.67969 548.515V129.072C4.67969 119.517 8.37636 110.332 14.9957 103.441L103.112 11.7056Z" fill="#1E2F43"/>
<path d="M-270.965 -184.629L-227.305 -140.969M-227.305 -140.969L-183.646 -184.629M-227.305 -140.969L-183.646 -97.31L-270.965 -9.99104M-96.327 -140.969L-139.986 -184.629L-183.646 -140.969L-139.986 -97.31M-96.327 -140.969L-52.6675 -184.629L-9.00806 -140.969M-96.327 -140.969L-139.986 -97.31M-96.327 -140.969L-52.6675 -97.31M-9.00806 -140.969L34.6514 -184.629L78.3109 -140.969M-9.00806 -140.969L-52.6675 -97.31M-9.00806 -140.969L34.6514 -97.31M78.3109 -184.629L121.97 -140.969L78.3109 -97.31L34.6514 -140.969M121.97 -184.629L165.63 -140.969M165.63 -140.969L209.289 -184.629M165.63 -140.969L78.3109 -53.6505L34.6514 -97.31M209.289 -140.969L252.949 -184.629L296.608 -140.969M209.289 -140.969L165.63 -97.31M209.289 -140.969L252.949 -97.31M296.608 -184.629L340.268 -140.969M340.268 -140.969L383.927 -184.629L427.587 -140.969M340.268 -140.969L296.608 -97.31M427.587 -140.969L471.246 -184.629L514.906 -140.969M427.587 -140.969L383.927 -97.31M514.906 -140.969L558.565 -184.629M514.906 -140.969L471.246 -97.31M514.906 -140.969L558.565 -97.31M602.224 -184.629L558.565 -140.969L645.884 -53.6505M689.543 -184.629L776.862 -97.31L689.543 -9.99104L645.884 -53.6505M733.203 -184.629L820.522 -97.31M776.862 -184.629L820.522 -140.969L864.181 -184.629L907.841 -140.969M907.841 -140.969L951.5 -184.629L995.16 -140.969L1038.82 -184.629M907.841 -140.969L864.181 -97.31M907.841 -140.969L951.5 -97.31M1082.48 -184.629L1038.82 -140.969M1038.82 -140.969L995.16 -97.31L951.5 -140.969M1038.82 -140.969L1082.48 -97.31L1038.82 -53.6505L1082.48 -9.99104M1126.14 -184.629L1082.48 -140.969L1126.14 -97.31L1082.48 -53.6505M1169.8 -184.629L1126.14 -140.969L1169.8 -97.31M1213.46 -184.629L1169.8 -140.969M1213.46 -140.969L1257.12 -184.629L1300.78 -140.969M1213.46 -140.969L1169.8 -97.31M1213.46 -140.969L1257.12 -97.31M1300.78 -140.969L1344.44 -184.629M1300.78 -140.969L1257.12 -97.31M1431.75 -140.969L1388.09 -184.629L1300.78 -97.31M1431.75 -140.969L1475.41 -184.629L1519.07 -140.969L1475.41 -97.31M1431.75 -140.969L1388.09 -97.31M1519.07 -184.629L1562.73 -140.969L1475.41 -53.6505M-270.965 -140.969L-227.305 -97.31L-270.965 -53.6505M-139.986 -97.31L-270.965 33.6684M-52.6675 -97.31L-9.00806 -53.6505L34.6514 -97.31M165.63 -97.31L209.289 -53.6505M165.63 -97.31L78.3109 -9.99104M252.949 -140.969L296.608 -97.31M296.608 -97.31L252.949 -53.6505M296.608 -97.31L340.268 -53.6505M383.927 -140.969L340.268 -97.31L383.927 -53.6505L471.246 -140.969M471.246 -97.31L514.906 -53.6505M471.246 -97.31L383.927 -9.99104M558.565 -97.31L514.906 -53.6505M558.565 -97.31L602.224 -53.6505L558.565 -9.99104M645.884 -97.31L602.224 -140.969L645.884 -184.629L733.203 -97.31L689.543 -53.6505M645.884 -140.969L689.543 -97.31L645.884 -53.6505M820.522 -97.31L864.181 -140.969M820.522 -97.31L733.203 -9.99104M864.181 -97.31L820.522 -53.6505M864.181 -97.31L907.841 -53.6505L951.5 -97.31M951.5 -97.31L995.16 -53.6505M1169.8 -97.31L1126.14 -53.6505M1257.12 -97.31L1169.8 -9.99104L1126.14 -53.6505M1300.78 -97.31L1344.44 -53.6505M1300.78 -97.31L1213.46 -9.99104M1388.09 -140.969L1344.44 -97.31M1388.09 -97.31L1344.44 -53.6505M1388.09 -97.31L1431.75 -53.6505M1475.41 -140.969L1431.75 -97.31L1475.41 -53.6505M-139.986 -53.6505L-96.327 -97.31L-52.6675 -53.6505M-139.986 -53.6505L-183.646 -9.99104M-139.986 -53.6505L-96.327 -9.99104M-52.6675 -53.6505L-96.327 -9.99104M-52.6675 -53.6505L-9.00806 -9.99104L34.6514 -53.6505L78.3109 -9.99104M209.289 -97.31L252.949 -53.6505M252.949 -53.6505L209.289 -9.99104M340.268 -53.6505L383.927 -9.99104M340.268 -53.6505L252.949 33.6684L209.289 -9.99104M514.906 -53.6505L558.565 -9.99104M645.884 -53.6505L602.224 -9.99104M820.522 -53.6505L776.862 -9.99104M820.522 -53.6505L864.181 -9.99104L733.203 120.987L776.862 164.647M995.16 -53.6505L1038.82 -97.31M995.16 -53.6505L1038.82 -9.99104L995.16 33.6684M1126.14 -53.6505L1082.48 -9.99104M1213.46 -97.31L1169.8 -53.6505M1344.44 -53.6505L1388.09 -9.99104M1475.41 -53.6505L1431.75 -9.99104L1388.09 -53.6505M1562.73 -97.31L1475.41 -9.99104M-183.646 -9.99104L-139.986 33.6684M-183.646 -9.99104L-270.965 77.3279M-96.327 -9.99104L-139.986 33.6684M78.3109 -9.99104L121.97 33.6684M121.97 -9.99104L165.63 -53.6505L209.289 -9.99104M209.289 -9.99104L165.63 33.6684L209.289 77.3279M296.608 -53.6505L252.949 -9.99104M383.927 -9.99104L340.268 33.6684L383.927 77.3279M558.565 -9.99104L514.906 33.6684L558.565 77.3279M558.565 -9.99104L602.224 33.6684M733.203 -9.99104L689.543 33.6684M733.203 -9.99104L776.862 33.6684M864.181 -53.6505L907.841 -9.99104M907.841 -9.99104L951.5 -53.6505L995.16 -9.99104L951.5 33.6684M907.841 -9.99104L776.862 120.987M1082.48 -9.99104L1126.14 33.6684L1082.48 77.3279M1082.48 -9.99104L995.16 77.3279M1213.46 -9.99104L1169.8 33.6684M1213.46 -9.99104L1257.12 33.6684L1300.78 -9.99104M1257.12 -9.99104L1300.78 -53.6505L1344.44 -9.99104L1257.12 77.3279M1388.09 -9.99104L1431.75 33.6684M1388.09 -9.99104L1257.12 120.987M1475.41 -9.99104L1431.75 33.6684M1475.41 -9.99104L1519.07 33.6684M1562.73 -53.6505L1519.07 -9.99104M-139.986 33.6684L-270.965 164.647L-227.305 208.306M-96.327 33.6684L-52.6675 -9.99104L-9.00806 33.6684M-96.327 33.6684L-52.6675 77.3279M-96.327 33.6684L-227.305 164.647M-9.00806 33.6684L34.6514 -9.99104L78.3109 33.6684M-9.00806 33.6684L-52.6675 77.3279M121.97 33.6684L165.63 -9.99104M121.97 33.6684L78.3109 77.3279M121.97 33.6684L165.63 77.3279M340.268 -9.99104L296.608 33.6684M296.608 33.6684L252.949 77.3279M296.608 33.6684L340.268 77.3279M471.246 -9.99104L427.587 33.6684M471.246 33.6684L514.906 -9.99104L471.246 -53.6505L383.927 33.6684L427.587 77.3279M471.246 33.6684L427.587 77.3279M471.246 33.6684L514.906 77.3279L471.246 120.987M602.224 33.6684L645.884 -9.99104L689.543 33.6684M602.224 33.6684L558.565 77.3279M689.543 33.6684L602.224 120.987M776.862 33.6684L820.522 -9.99104M776.862 33.6684L689.543 120.987M951.5 -9.99104L776.862 164.647M951.5 33.6684L907.841 77.3279M951.5 33.6684L995.16 77.3279M1126.14 -9.99104L1169.8 33.6684M1169.8 33.6684L1082.48 120.987M1431.75 33.6684L1388.09 77.3279M1519.07 33.6684L1562.73 -9.99104M1519.07 33.6684L1562.73 77.3279L1475.41 164.647M1519.07 33.6684L1431.75 120.987M-183.646 33.6684L-270.965 120.987M-52.6675 77.3279L-9.00806 120.987M-9.00806 77.3279L34.6514 33.6684L78.3109 77.3279M78.3109 77.3279L34.6514 120.987M78.3109 77.3279L121.97 120.987L165.63 77.3279M165.63 77.3279L209.289 120.987M209.289 33.6684L252.949 77.3279M252.949 77.3279L209.289 120.987M340.268 77.3279L383.927 120.987M340.268 77.3279L209.289 208.306M427.587 77.3279L383.927 120.987M427.587 77.3279L471.246 120.987M558.565 77.3279L514.906 120.987M645.884 33.6684L514.906 164.647M733.203 33.6684L645.884 120.987M907.841 77.3279L951.5 120.987M907.841 77.3279L776.862 208.306M995.16 77.3279L951.5 120.987M995.16 77.3279L1038.82 120.987L951.5 208.306M1082.48 33.6684L1038.82 77.3279L1082.48 120.987M1169.8 77.3279L1213.46 33.6684L1257.12 77.3279M1169.8 77.3279L1213.46 120.987M1169.8 77.3279L1038.82 208.306M1257.12 77.3279L1213.46 120.987M1388.09 33.6684L1257.12 164.647M1388.09 77.3279L1431.75 120.987M1388.09 77.3279L1300.78 164.647M1475.41 33.6684L1431.75 77.3279M-139.986 120.987L-96.327 77.3279L-52.6675 120.987M-139.986 120.987L-183.646 164.647M-139.986 120.987L-96.327 164.647L-139.986 208.306M-9.00806 120.987L34.6514 77.3279M-9.00806 120.987L-52.6675 164.647M34.6514 120.987L-9.00806 164.647M34.6514 120.987L78.3109 164.647M209.289 120.987L121.97 208.306L78.3109 164.647M296.608 77.3279L121.97 251.966M383.927 120.987L340.268 164.647M471.246 120.987L427.587 164.647L471.246 208.306M471.246 120.987L514.906 164.647M602.224 120.987L558.565 164.647L602.224 208.306M602.224 120.987L645.884 164.647L689.543 120.987M689.543 120.987L733.203 164.647L645.884 251.966M951.5 120.987L820.522 251.966M1082.48 120.987L995.16 208.306M1213.46 120.987L1257.12 164.647M1213.46 120.987L1082.48 251.966M1431.75 120.987L1300.78 251.966L1344.44 295.625M1519.07 77.3279L1431.75 164.647M-183.646 164.647L-227.305 208.306M-183.646 164.647L-139.986 208.306M-96.327 120.987L-52.6675 164.647M-52.6675 164.647L-96.327 208.306M-9.00806 164.647L34.6514 208.306L78.3109 164.647M-9.00806 164.647L-96.327 251.966M78.3109 120.987L121.97 164.647L165.63 120.987M340.268 120.987L252.949 208.306M340.268 164.647L383.927 208.306M340.268 164.647L252.949 251.966M427.587 120.987L383.927 164.647L427.587 208.306L383.927 251.966M514.906 164.647L558.565 208.306M776.862 164.647L689.543 251.966M907.841 120.987L820.522 208.306M995.16 120.987L907.841 208.306M1169.8 120.987L1082.48 208.306M1257.12 164.647L1300.78 208.306M1388.09 120.987L1300.78 208.306M1431.75 164.647L1388.09 208.306M1431.75 164.647L1475.41 208.306M1562.73 120.987L1475.41 208.306M-227.305 208.306L-270.965 251.966M-227.305 208.306L-183.646 251.966M-139.986 208.306L-96.327 251.966M209.289 208.306L165.63 251.966M209.289 208.306L252.949 251.966M471.246 208.306L427.587 251.966M471.246 208.306L514.906 251.966M471.246 164.647L558.565 251.966M602.224 208.306L558.565 251.966M602.224 208.306L645.884 251.966M602.224 164.647L645.884 208.306L689.543 164.647M776.862 208.306L820.522 251.966M776.862 208.306L689.543 295.625L645.884 251.966M1038.82 208.306L1016.76 230.366M1038.82 208.306L1082.48 251.966M1300.78 208.306L1257.12 251.966M1388.09 208.306L1344.44 251.966M1388.09 208.306L1431.75 251.966M1475.41 208.306L1519.07 251.966M1562.73 164.647L1519.07 208.306M-183.646 208.306L-139.986 251.966M-139.986 251.966L-183.646 295.625M-139.986 251.966L-96.327 295.625L-139.986 339.285L-96.327 382.944M-96.327 251.966L-52.6675 295.625M-52.6675 251.966L-9.00806 208.306L34.6514 251.966M34.6514 251.966L78.3109 208.306L121.97 251.966M34.6514 251.966L78.3109 295.625M121.97 251.966L165.63 295.625L209.289 251.966L252.949 295.625M252.949 251.966L296.608 295.625M296.608 251.966L340.268 208.306L383.927 251.966M383.927 251.966L427.587 295.625M514.906 251.966L471.246 295.625M514.906 251.966L558.565 295.625L514.906 339.285L471.246 295.625M558.565 251.966L602.224 295.625M820.522 251.966L733.203 339.285M1082.48 251.966L1038.82 295.625M1126.14 251.966L1169.8 295.625L1126.14 339.285M1126.14 251.966L1213.46 164.647L1257.12 208.306L1213.46 251.966M1126.14 251.966L1016.99 361.114L962.415 415.689L931.416 447.056M1213.46 208.306L1169.8 251.966L1213.46 295.625M1257.12 251.966L1213.46 295.625M1257.12 251.966L1300.78 295.625M1431.75 208.306L1475.41 251.966M1475.41 251.966L1431.75 295.625M1475.41 251.966L1519.07 295.625M1519.07 251.966L1562.73 208.306M1519.07 251.966L1562.73 295.625L1519.07 339.285M-270.965 295.625L-227.305 251.966L-183.646 295.625M-183.646 295.625L-270.965 382.944M-52.6675 295.625L-9.00806 251.966L34.6514 295.625M-52.6675 295.625L-96.327 339.285M-52.6675 295.625L-9.00806 339.285M78.3109 295.625L34.6514 339.285M78.3109 295.625L121.97 339.285M78.3109 251.966L165.63 339.285M296.608 295.625L340.268 251.966L383.927 295.625L340.268 339.285M296.608 295.625L252.949 339.285M427.587 295.625L471.246 251.966M427.587 295.625L340.268 382.944L296.608 339.285M471.246 295.625L427.587 339.285M602.224 295.625L645.884 339.285L602.224 382.944M602.224 295.625L514.906 382.944M602.224 251.966L689.543 339.285M776.862 251.966L689.543 339.285M1213.46 295.625L1169.8 339.285M1344.44 295.625L1388.09 251.966L1431.75 295.625M1344.44 295.625L1300.78 339.285M1431.75 295.625L1388.09 339.285L1431.75 382.944M-227.305 295.625L-270.965 339.285M-139.986 295.625L-183.646 339.285M-183.646 339.285L-139.986 382.944L-270.965 513.923M-183.646 339.285L-270.965 426.604M-9.00806 339.285L-52.6675 382.944M-9.00806 339.285L34.6514 382.944M-9.00806 295.625L34.6514 339.285M34.6514 339.285L78.3109 382.944M165.63 339.285L209.289 295.625L252.949 339.285M165.63 339.285L121.97 382.944L78.3109 339.285M252.949 339.285L121.97 470.263M340.268 295.625L296.608 339.285M296.608 339.285L165.63 470.263M427.587 339.285L471.246 382.944L383.927 470.263M427.587 339.285L340.268 426.604L296.608 382.944L252.949 426.604M689.543 339.285L645.884 382.944L733.203 470.263M689.543 339.285L733.203 382.944M820.522 295.625L733.203 382.944M1126.14 295.625L1082.48 339.285M1082.48 339.285L1126.14 382.944M1082.48 339.285L1038.82 382.944L1016.99 404.774M1169.8 339.285L1126.14 382.944M1169.8 339.285L1213.46 382.944M1213.46 339.285L1257.12 295.625L1300.78 339.285M1300.78 339.285L1213.46 426.604M1388.09 295.625L1344.44 339.285M1344.44 339.285L1388.09 382.944L1344.44 426.604L1388.09 470.263M1344.44 339.285L1257.12 426.604M1431.75 339.285L1475.41 295.625L1519.07 339.285M1519.07 339.285L1562.73 382.944L1519.07 426.604M-96.327 382.944L-52.6675 339.285M-96.327 382.944L-227.305 513.923M-52.6675 382.944L-183.646 513.923M-52.6675 382.944L34.6514 470.263M78.3109 382.944L34.6514 426.604L-9.00806 382.944M78.3109 382.944L121.97 426.604L209.289 339.285M471.246 339.285L514.906 382.944M514.906 382.944L471.246 426.604M514.906 382.944L558.565 426.604L602.224 382.944M602.224 339.285L558.565 382.944M602.224 382.944L689.543 470.263M733.203 382.944L776.862 426.604M820.522 339.285L776.862 382.944L820.522 426.604M1126.14 382.944L1169.8 426.604L1213.46 382.944M1213.46 382.944L1257.12 339.285M1431.75 382.944L1475.41 339.285L1519.07 382.944M1431.75 382.944L1388.09 426.604M1431.75 382.944L1475.41 426.604L1388.09 513.923M-183.646 382.944L-270.965 470.263M252.949 426.604L165.63 513.923M252.949 426.604L340.268 513.923M427.587 382.944L340.268 470.263L296.608 426.604M471.246 426.604L427.587 470.263M471.246 426.604L514.906 470.263L471.246 513.923M689.543 382.944L733.203 426.604M776.862 426.604L733.203 470.263M776.862 426.604L864.181 513.923M820.522 426.604L864.181 382.944M820.522 426.604L864.181 470.263M1038.82 426.604L1082.48 382.944L1126.14 426.604M1126.14 426.604L1082.48 470.263M1126.14 426.604L1169.8 470.263M1213.46 426.604L1169.8 470.263M1213.46 426.604L1257.12 470.263M1344.44 382.944L1300.78 426.604M1300.78 426.604L1257.12 470.263M1300.78 426.604L1344.44 470.263L1300.78 513.923M1475.41 382.944L1519.07 426.604M1519.07 426.604L1562.73 470.263L1519.07 513.923M1519.07 426.604L1431.75 513.923M34.6514 470.263L78.3109 426.604L121.97 470.263M34.6514 470.263L-52.6675 557.582M121.97 470.263L165.63 513.923M383.927 470.263L340.268 513.923M383.927 470.263L427.587 513.923M514.906 426.604L558.565 470.263M558.565 470.263L602.224 426.604L689.543 513.923M558.565 470.263L514.906 513.923M558.565 470.263L602.224 513.923L558.565 557.582M733.203 470.263L689.543 513.923M864.181 470.263L907.841 426.604M864.181 470.263L907.841 513.923M907.841 470.263L951.5 513.923M951.5 470.263L995.16 426.604L1038.82 470.263M1038.82 470.263L1082.48 426.604M1038.82 470.263L1082.48 513.923M1169.8 470.263L1126.14 513.923M1257.12 470.263L1169.8 557.582M1388.09 470.263L1431.75 426.604M1388.09 470.263L1344.44 513.923M-227.305 513.923L-270.965 557.582M-227.305 513.923L-183.646 557.582M-52.6675 470.263L-183.646 601.241M34.6514 513.923L78.3109 470.263L165.63 557.582M34.6514 513.923L-9.00806 557.582M34.6514 513.923L165.63 644.901M165.63 513.923L209.289 557.582M296.608 513.923L252.949 470.263L209.289 513.923L252.949 557.582M340.268 513.923L296.608 557.582M427.587 513.923L471.246 470.263M427.587 513.923L340.268 601.241M471.246 513.923L514.906 557.582M471.246 513.923L383.927 601.241M602.224 470.263L645.884 513.923M645.884 513.923L689.543 557.582L645.884 601.241M645.884 513.923L558.565 601.241M689.543 513.923L733.203 557.582M733.203 513.923L776.862 470.263L820.522 513.923L776.862 557.582M864.181 513.923L820.522 557.582M864.181 513.923L907.841 557.582M951.5 513.923L995.16 470.263L1038.82 513.923M951.5 513.923L907.841 557.582M951.5 513.923L995.16 557.582M1082.48 513.923L1126.14 470.263M1082.48 513.923L1038.82 557.582M1082.48 513.923L1126.14 557.582M1213.46 470.263L1126.14 557.582M1300.78 470.263L1257.12 513.923M1257.12 513.923L1213.46 557.582L1257.12 601.241L1300.78 557.582M1257.12 513.923L1300.78 557.582M1344.44 513.923L1300.78 557.582M1344.44 513.923L1388.09 557.582L1431.75 513.923M1431.75 513.923L1475.41 557.582M1519.07 470.263L1475.41 513.923M1519.07 513.923L1475.41 557.582M1519.07 513.923L1562.73 557.582L1519.07 601.241M-183.646 557.582L-227.305 601.241M-183.646 557.582L-52.6675 426.604L-9.00806 470.263L-96.327 557.582M-96.327 557.582L-139.986 601.241M-96.327 557.582L-52.6675 601.241L-9.00806 557.582M-9.00806 557.582L34.6514 601.241L-9.00806 644.901L34.6514 688.56L-96.327 819.539L-139.986 775.879M78.3109 513.923L165.63 601.241M209.289 557.582L165.63 601.241M209.289 557.582L252.949 601.241M252.949 513.923L296.608 557.582M296.608 557.582L252.949 601.241M383.927 513.923L296.608 601.241M514.906 557.582L558.565 513.923M514.906 557.582L471.246 601.241M514.906 557.582L558.565 601.241M733.203 557.582L776.862 513.923M733.203 557.582L689.543 601.241M733.203 557.582L776.862 601.241L820.522 557.582M820.522 557.582L864.181 601.241M907.841 557.582L951.5 601.241M995.16 557.582L951.5 601.241M995.16 557.582L1082.48 644.901L1126.14 601.241M995.16 513.923L1038.82 557.582M1038.82 557.582L1082.48 601.241L1126.14 557.582M1169.8 557.582L1126.14 601.241M1169.8 557.582L1213.46 601.241M1475.41 557.582L1431.75 601.241M1475.41 557.582L1519.07 601.241M-227.305 557.582L-270.965 601.241M-227.305 601.241L-270.965 644.901M-227.305 601.241L-183.646 644.901L-139.986 601.241M-139.986 601.241L-96.327 644.901M34.6514 557.582L78.3109 601.241M78.3109 601.241L34.6514 644.901L78.3109 688.56M78.3109 601.241L121.97 644.901L78.3109 688.56M165.63 601.241L209.289 644.901L252.949 601.241M252.949 601.241L296.608 644.901M340.268 601.241L296.608 644.901M340.268 601.241L383.927 644.901L427.587 601.241M471.246 557.582L427.587 601.241M427.587 601.241L471.246 644.901M558.565 601.241L514.906 644.901M558.565 601.241L602.224 644.901L558.565 688.56M645.884 557.582L602.224 601.241L645.884 644.901M689.543 601.241L645.884 644.901M689.543 601.241L733.203 644.901M864.181 557.582L907.841 601.241M907.841 601.241L864.181 644.901M907.841 601.241L951.5 644.901M951.5 601.241L1038.82 688.56M1126.14 601.241L1169.8 644.901M1213.46 601.241L1169.8 644.901M1213.46 601.241L1257.12 644.901L1300.78 601.241M1300.78 601.241L1344.44 557.582L1388.09 601.241L1431.75 557.582M1300.78 601.241L1388.09 688.56L1344.44 732.22L1300.78 688.56L1257.12 732.22M1431.75 601.241L1388.09 644.901M1431.75 601.241L1475.41 644.901L1519.07 601.241M1519.07 601.241L1562.73 644.901M-96.327 601.241L-52.6675 644.901M-52.6675 644.901L-9.00806 601.241M-52.6675 644.901L-96.327 688.56L-139.986 644.901L-183.646 688.56L-227.305 644.901L-270.965 688.56M-52.6675 644.901L-9.00806 688.56L-96.327 775.879L-139.986 732.22L-183.646 775.879M165.63 644.901L121.97 688.56M165.63 644.901L209.289 688.56M296.608 644.901L340.268 688.56L296.608 732.22M471.246 644.901L514.906 601.241M471.246 644.901L427.587 688.56M471.246 644.901L514.906 688.56M645.884 644.901L602.224 688.56M733.203 601.241L776.862 644.901M776.862 644.901L820.522 601.241L864.181 644.901M776.862 644.901L733.203 688.56L689.543 644.901L645.884 688.56M776.862 644.901L820.522 688.56M864.181 644.901L820.522 688.56M951.5 644.901L864.181 732.22M951.5 644.901L1038.82 732.22L1082.48 688.56M995.16 601.241L1082.48 688.56M1169.8 644.901L1126.14 688.56M1169.8 644.901L1213.46 688.56M1344.44 601.241L1388.09 644.901M1388.09 644.901L1431.75 688.56L1344.44 775.879L1300.78 732.22M78.3109 688.56L-9.00806 775.879M121.97 688.56L165.63 732.22M121.97 688.56L34.6514 775.879M209.289 688.56L252.949 644.901L296.608 688.56L252.949 732.22M209.289 688.56L252.949 732.22M340.268 644.901L383.927 688.56M383.927 688.56L427.587 644.901M383.927 688.56L340.268 732.22M427.587 688.56L383.927 732.22L427.587 775.879M427.587 688.56L471.246 732.22L514.906 688.56M514.906 688.56L558.565 644.901M514.906 688.56L558.565 732.22L602.224 688.56M602.224 688.56L645.884 732.22M820.522 688.56L864.181 732.22M820.522 688.56L733.203 775.879M907.841 644.901L864.181 688.56M1082.48 688.56L1126.14 644.901M1126.14 688.56L1082.48 732.22M1126.14 688.56L1169.8 732.22M1213.46 688.56L1169.8 732.22M1213.46 688.56L1257.12 732.22M1213.46 644.901L1257.12 688.56L1300.78 644.901L1344.44 688.56M1431.75 644.901L1475.41 688.56M1475.41 688.56L1519.07 644.901L1562.73 688.56L1519.07 732.22M1475.41 688.56L1519.07 732.22M1475.41 688.56L1388.09 775.879M-52.6675 688.56L-96.327 732.22L-139.986 688.56L-183.646 732.22L-227.305 688.56L-270.965 732.22L-227.305 775.879M165.63 732.22L121.97 775.879L165.63 819.539L121.97 863.198M165.63 732.22L209.289 775.879L252.949 732.22M165.63 688.56L209.289 732.22M252.949 732.22L296.608 775.879M340.268 732.22L296.608 775.879M340.268 732.22L383.927 775.879M645.884 732.22L689.543 688.56L733.203 732.22L776.862 688.56M645.884 732.22L602.224 775.879M864.181 732.22L820.522 775.879M907.841 732.22L951.5 688.56L995.16 732.22M907.841 732.22L864.181 775.879L907.841 819.539M907.841 732.22L951.5 775.879M995.16 732.22L951.5 775.879M995.16 732.22L1038.82 775.879L1082.48 732.22M1082.48 732.22L1126.14 775.879M1169.8 732.22L1126.14 775.879M1257.12 732.22L1300.78 775.879M1519.07 732.22L1562.73 775.879M-227.305 775.879L-270.965 819.539M-227.305 775.879L-183.646 819.539M-227.305 732.22L-183.646 775.879M-183.646 775.879L-139.986 819.539M-9.00806 775.879L-52.6675 819.539M-9.00806 775.879L34.6514 819.539M121.97 732.22L78.3109 775.879M78.3109 775.879L34.6514 819.539M78.3109 775.879L121.97 819.539L78.3109 863.198L34.6514 819.539M296.608 775.879L340.268 819.539M383.927 775.879L340.268 819.539M383.927 775.879L427.587 819.539M427.587 732.22L471.246 775.879M471.246 775.879L514.906 732.22L558.565 775.879M471.246 775.879L427.587 819.539M471.246 775.879L514.906 819.539M558.565 775.879L602.224 732.22M558.565 775.879L602.224 819.539M733.203 775.879L689.543 732.22L602.224 819.539M733.203 775.879L776.862 819.539L820.522 775.879M733.203 775.879L645.884 863.198M820.522 732.22L776.862 775.879M820.522 775.879L864.181 819.539M951.5 775.879L907.841 819.539M1126.14 775.879L1169.8 819.539M1257.12 775.879L1213.46 732.22L1169.8 775.879L1213.46 819.539L1169.8 863.198L1082.48 775.879L1038.82 819.539L995.16 775.879L951.5 819.539M1300.78 775.879L1257.12 819.539M1300.78 775.879L1344.44 819.539L1388.09 775.879M1388.09 775.879L1431.75 819.539M1519.07 775.879L1475.41 732.22L1431.75 775.879L1475.41 819.539M1519.07 775.879L1475.41 819.539M1519.07 775.879L1562.73 819.539M-139.986 819.539L-183.646 863.198L-227.305 819.539L-270.965 863.198M-139.986 819.539L-96.327 863.198L-52.6675 819.539M-52.6675 819.539L-9.00806 863.198L34.6514 819.539M165.63 775.879L209.289 819.539M209.289 819.539L252.949 775.879L296.608 819.539M209.289 819.539L165.63 863.198M209.289 819.539L252.949 863.198M340.268 819.539L296.608 863.198L252.949 819.539M340.268 819.539L383.927 863.198M427.587 819.539L471.246 863.198L514.906 819.539M514.906 819.539L558.565 863.198L602.224 819.539M514.906 775.879L558.565 819.539M689.543 775.879L602.224 863.198M907.841 819.539L864.181 863.198L820.522 819.539L776.862 863.198L733.203 819.539L689.543 863.198M951.5 819.539L907.841 863.198M951.5 819.539L995.16 863.198M1213.46 775.879L1257.12 819.539M1257.12 819.539L1213.46 863.198M1475.41 819.539L1431.75 863.198L1388.09 819.539L1344.44 863.198L1300.78 819.539L1257.12 863.198M383.927 819.539L427.587 863.198M995.16 819.539L1038.82 863.198L1082.48 819.539L1126.14 863.198M1475.41 863.198L1519.07 819.539L1562.73 863.198" stroke="url(#paint0_linear_1_56)" stroke-opacity="0.2" stroke-width="2.5" stroke-linecap="round"/>
<path opacity="0.5" d="M879.34 -5.85986L764.047 107.496C756.173 115.239 757.407 128.263 766.595 134.389V134.389C773.542 139.021 782.799 138.066 788.655 132.115L923.402 -4.81054" stroke="#DFE1E4" stroke-width="2"/>
<path d="M1097.09 -92.6245L981.801 20.7318C973.927 28.4743 975.161 41.4985 984.349 47.6245V47.6245C991.296 52.2559 1000.55 51.3018 1006.41 45.3508L1141.16 -91.5752" stroke="#DFE1E4" stroke-width="2"/>
<path d="M1120.12 585.717L1225.55 480.289C1231.45 474.386 1231.45 464.815 1225.55 458.912V458.912C1219.65 453.009 1210.08 453.009 1204.17 458.912L1138.58 524.508C1132.11 530.971 1121.64 530.971 1115.17 524.508V524.508C1108.71 518.046 1108.71 507.568 1115.17 501.105L1136.78 479.502C1142.25 474.034 1142.25 465.168 1136.78 459.699V459.699C1131.31 454.231 1122.44 454.231 1116.97 459.699L1095.15 481.527C1088.56 488.114 1077.88 488.114 1071.29 481.527V481.527C1064.71 474.94 1064.71 464.261 1071.29 457.674L1093.35 435.622C1098.94 430.03 1098.94 420.963 1093.35 415.371V415.371C1087.75 409.778 1078.69 409.778 1073.09 415.371L1055.09 433.374C1046.89 441.575 1033.59 441.575 1025.39 433.374L1010.08 418.063C1001.88 409.862 988.585 409.862 980.384 418.063L939.535 458.912C933.632 464.815 924.061 464.815 918.158 458.912V458.912C912.254 453.009 912.254 443.438 918.158 437.534L928.846 426.846L939.168 416.931C943.29 412.971 945.62 407.502 945.62 401.786V389.465" stroke="#DFE1E4" stroke-width="2"/>
<path d="M466.605 585.475L548.918 503.162C554.322 497.757 563.084 497.757 568.489 503.162V503.162C573.893 508.566 573.893 517.328 568.489 522.733L543.623 547.599C537.837 553.385 537.837 562.766 543.622 568.551V568.551C549.408 574.337 558.789 574.337 564.575 568.551L605.33 527.796C613.531 519.595 613.531 506.299 605.33 498.098L589.442 482.209C583.274 476.042 583.274 466.042 589.442 459.874V459.874C595.609 453.707 605.609 453.707 611.777 459.874L695.128 543.226C703.329 551.427 703.329 564.723 695.128 572.924L677.282 590.77" stroke="url(#paint1_linear_1_56)" stroke-width="2"/>
<g opacity="0.7" filter="url(#filter0_f_1_56)">
<g filter="url(#filter1_f_1_56)">
<circle cx="850.908" cy="416.004" r="165.346" transform="rotate(60 850.908 416.004)" fill="#78F6FC"/>
</g>
<g filter="url(#filter2_f_1_56)">
<ellipse cx="858.793" cy="244.279" rx="187.344" ry="110.12" transform="rotate(60 858.793 244.279)" fill="#FC78DF"/>
</g>
<g opacity="0.7" filter="url(#filter3_f_1_56)">
<circle cx="1138.27" cy="115.944" r="191.8" transform="rotate(60 1138.27 115.944)" fill="#F7C765"/>
</g>
</g>
<circle cx="931.722" cy="302.267" r="80.7969" fill="#ED970D"/>
<circle opacity="0.5" cx="931.723" cy="302.267" r="88.4688" stroke="#DFE1E4" stroke-width="2"/>
<g filter="url(#filter4_d_1_56)">
<path fill-rule="evenodd" clip-rule="evenodd" d="M901.568 352.726C910.123 358.054 919.578 360.718 929.934 360.718C941.19 360.718 951.358 357.567 960.438 351.263C968.752 345.423 975.147 338.073 979.623 329.213C980.267 327.939 979.516 326.423 978.125 326.1L966.515 323.402C965.519 323.17 964.496 323.638 963.981 324.521C960.413 330.635 955.818 335.497 950.195 339.106C944.192 343.009 937.438 344.96 929.934 344.96C923.03 344.885 916.726 343.234 911.023 340.007C905.395 336.705 900.742 332.24 897.065 326.612C893.897 321.661 891.774 316.129 890.695 310.017C890.459 308.674 891.518 307.476 892.882 307.476H983.607C984.815 307.476 985.815 306.527 985.842 305.319C986.035 296.904 984.921 289.031 982.501 281.699C979.949 273.745 976.122 266.803 971.019 260.875C965.991 254.947 959.951 250.332 952.897 247.03C945.918 243.728 938.263 242.077 929.934 242.077C922.204 242.077 914.925 243.616 908.097 246.692C901.268 249.769 895.264 254.046 890.087 259.524C884.984 264.927 880.969 271.231 878.042 278.435C875.116 285.564 873.652 293.256 873.652 301.51C873.652 312.391 876.166 322.334 881.194 331.34C886.297 340.27 893.088 347.399 901.568 352.726ZM935.073 273.57C934.938 272.812 935.217 272.051 935.695 271.448C936.777 270.082 937.422 268.356 937.422 266.478C937.422 262.054 933.835 258.467 929.411 258.467C924.986 258.467 921.399 262.054 921.399 266.478C921.399 268.416 922.087 270.194 923.233 271.58C923.736 272.189 924.034 272.968 923.896 273.746L920.928 290.524C920.683 291.912 921.75 293.184 923.159 293.184H935.841C937.25 293.184 938.317 291.912 938.072 290.524L935.073 273.57Z" fill="#DFE1E4"/>
</g>
<path d="M103.112 11.7056C110.089 4.44235 119.725 0.336914 129.796 0.336914H1200.32C1220.76 0.336914 1237.32 16.9024 1237.32 37.3369V548.515C1237.32 568.949 1220.76 585.515 1200.32 585.515H41.6797C21.2451 585.515 4.67969 568.949 4.67969 548.515V129.072C4.67969 119.517 8.37636 110.332 14.9957 103.441L103.112 11.7056Z" fill="url(#paint2_linear_1_56)"/>
</g>
<defs>
<filter id="filter0_f_1_56" x="493.534" y="-267.888" width="1028.56" height="1041.27" filterUnits="userSpaceOnUse" color-interpolation-filters="sRGB">
<feFlood flood-opacity="0" result="BackgroundImageFix"/>
<feBlend mode="normal" in="SourceGraphic" in2="BackgroundImageFix" result="shape"/>
<feGaussianBlur stdDeviation="96" result="effect1_foregroundBlur_1_56"/>
</filter>
<filter id="filter1_f_1_56" x="574.824" y="139.92" width="552.168" height="552.168" filterUnits="userSpaceOnUse" color-interpolation-filters="sRGB">
<feFlood flood-opacity="0" result="BackgroundImageFix"/>
<feBlend mode="normal" in="SourceGraphic" in2="BackgroundImageFix" result="shape"/>
<feGaussianBlur stdDeviation="55.3549" result="effect1_foregroundBlur_1_56"/>
</filter>
<filter id="filter2_f_1_56" x="614.408" y="-37.8107" width="488.771" height="564.179" filterUnits="userSpaceOnUse" color-interpolation-filters="sRGB">
<feFlood flood-opacity="0" result="BackgroundImageFix"/>
<feBlend mode="normal" in="SourceGraphic" in2="BackgroundImageFix" result="shape"/>
<feGaussianBlur stdDeviation="55.3549" result="effect1_foregroundBlur_1_56"/>
</filter>
<filter id="filter3_f_1_56" x="835.725" y="-186.598" width="605.083" height="605.083" filterUnits="userSpaceOnUse" color-interpolation-filters="sRGB">
<feFlood flood-opacity="0" result="BackgroundImageFix"/>
<feBlend mode="normal" in="SourceGraphic" in2="BackgroundImageFix" result="shape"/>
<feGaussianBlur stdDeviation="55.3549" result="effect1_foregroundBlur_1_56"/>
</filter>
<filter id="filter4_d_1_56" x="849.652" y="232.077" width="160.211" height="166.641" filterUnits="userSpaceOnUse" color-interpolation-filters="sRGB">
<feFlood flood-opacity="0" result="BackgroundImageFix"/>
<feColorMatrix in="SourceAlpha" type="matrix" values="0 0 0 0 0 0 0 0 0 0 0 0 0 0 0 0 0 0 127 0" result="hardAlpha"/>
<feOffset dy="14"/>
<feGaussianBlur stdDeviation="12"/>
<feComposite in2="hardAlpha" operator="out"/>
<feColorMatrix type="matrix" values="0 0 0 0 0.00875 0 0 0 0 0.0595 0 0 0 0 0.51625 0 0 0 0.25 0"/>
<feBlend mode="normal" in2="BackgroundImageFix" result="effect1_dropShadow_1_56"/>
<feBlend mode="normal" in="SourceGraphic" in2="effect1_dropShadow_1_56" result="shape"/>
</filter>
<linearGradient id="paint0_linear_1_56" x1="496.124" y1="3.13748" x2="1229.45" y2="579.322" gradientUnits="userSpaceOnUse">
<stop stop-color="#ED970D"/>
<stop offset="1" stop-color="#5FD1E9"/>
</linearGradient>
<linearGradient id="paint1_linear_1_56" x1="681.235" y1="543.465" x2="506.594" y2="560.643" gradientUnits="userSpaceOnUse">
<stop stop-color="white"/>
<stop offset="1" stop-color="white" stop-opacity="0"/>
</linearGradient>
<linearGradient id="paint2_linear_1_56" x1="4.67969" y1="332.673" x2="798.123" y2="320.586" gradientUnits="userSpaceOnUse">
<stop offset="0.613305" stop-color="#1E2F43" stop-opacity="0.96"/>
<stop offset="1" stop-color="#1E2F43" stop-opacity="0"/>
</linearGradient>
</defs>
</svg>
