<svg width="725" height="722" viewBox="0 0 725 722" fill="none" xmlns="http://www.w3.org/2000/svg">
<path d="M0.519531 266.293V57.1528C0.519531 25.6726 26.0393 0.152832 57.5196 0.152832H286.225C301.342 0.152832 315.84 6.15815 326.53 16.8477L707.323 397.641C718.013 408.331 724.018 422.829 724.018 437.946V664.268C724.018 695.748 698.498 721.268 667.018 721.268H455.494C440.377 721.268 425.879 715.262 415.189 704.573L17.2144 306.598C6.52487 295.908 0.519531 281.41 0.519531 266.293Z" fill="#F7C45E"/>
<path fill-rule="evenodd" clip-rule="evenodd" d="M124.949 207.928C133.504 213.256 142.959 215.92 153.315 215.92C164.571 215.92 174.739 212.768 183.819 206.465C192.133 200.624 198.528 193.275 203.004 184.415C203.648 183.14 202.898 181.625 201.507 181.301L189.896 178.603C188.9 178.372 187.878 178.839 187.362 179.722C183.794 185.836 179.199 190.698 173.576 194.308C167.573 198.21 160.819 200.161 153.315 200.161C146.411 200.086 140.107 198.435 134.404 195.208C128.776 191.906 124.124 187.441 120.447 181.813C117.278 176.862 115.155 171.331 114.077 165.219C113.84 163.875 114.899 162.678 116.263 162.678H206.988C208.197 162.678 209.196 161.729 209.224 160.521C209.416 152.105 208.303 144.232 205.882 136.901C203.33 128.946 199.503 122.005 194.4 116.077C189.373 110.148 183.332 105.533 176.278 102.231C169.299 98.9295 161.645 97.2786 153.315 97.2786C145.586 97.2786 138.306 98.8169 131.478 101.894C124.649 104.97 118.646 109.248 113.468 114.726C108.365 120.129 104.35 126.432 101.423 133.636C98.4968 140.765 97.0334 148.457 97.0334 156.712C97.0334 167.593 99.5474 177.536 104.575 186.541C109.678 195.471 116.469 202.6 124.949 207.928ZM158.454 128.771C158.32 128.013 158.598 127.253 159.076 126.649C160.158 125.283 160.803 123.557 160.803 121.68C160.803 117.255 157.216 113.668 152.792 113.668C148.367 113.668 144.78 117.255 144.78 121.68C144.78 123.618 145.468 125.395 146.614 126.781C147.118 127.39 147.415 128.169 147.277 128.948L144.309 145.725C144.064 147.113 145.131 148.386 146.54 148.386H159.222C160.631 148.386 161.698 147.113 161.453 145.725L158.454 128.771Z" fill="white"/>
</svg>
