<svg width="226" height="519" viewBox="0 0 226 519" fill="none" xmlns="http://www.w3.org/2000/svg">
<path fill-rule="evenodd" clip-rule="evenodd" d="M6.30629 114.494C5.63962 114.88 4.80485 114.399 4.80485 113.628L4.80485 92.2112C4.80485 91.8546 4.99478 91.525 5.30332 91.3461L74.7557 51.0839C75.356 50.7358 75.4281 49.8971 74.8959 49.4518L41.0448 21.1245C40.8648 20.9739 40.6376 20.8914 40.403 20.8914L5.80485 20.8914C5.25257 20.8914 4.80485 20.4437 4.80485 19.8914L4.80486 1.2578C4.80486 0.705518 5.25258 0.257803 5.80486 0.257803L224.879 0.257812C225.431 0.257812 225.879 0.705527 225.879 1.25781L225.879 19.8914C225.879 20.4437 225.431 20.8914 224.879 20.8914L75.6452 20.8914C74.7113 20.8914 74.2871 22.0578 75.0027 22.6577L151.83 87.0612C152.057 87.2512 152.188 87.5318 152.188 87.8276L152.188 112.184C152.188 113.034 151.194 113.497 150.544 112.949L93.3298 64.8214C93.0073 64.5501 92.5493 64.5101 92.1846 64.7215L6.30629 114.494ZM4.80485 146.05C4.80485 145.497 5.25257 145.05 5.80485 145.05L224.879 145.05C225.431 145.05 225.879 145.498 225.879 146.05L225.879 164.683C225.879 165.236 225.431 165.683 224.879 165.683L5.80485 165.683C5.25256 165.683 4.80485 165.236 4.80485 164.683L4.80485 146.05ZM11.437 227.738C4.46093 238.939 0.972889 251.32 0.972889 264.879C0.972888 279.617 5.0996 292.931 13.353 304.82C21.4678 316.371 31.8089 325.094 44.3763 330.987C44.9469 331.255 45.6154 330.924 45.758 330.31L50.1731 311.312C50.2752 310.872 50.0696 310.42 49.6748 310.201C41.0526 305.431 34.2511 299.166 29.2703 291.408C24.1611 283.547 21.6064 274.704 21.6064 264.879C21.7047 255.839 23.8663 247.586 28.0913 240.119C32.4145 232.749 38.2607 226.658 45.6298 221.843C52.7018 217.317 60.6786 214.42 69.5603 213.151C70.1563 213.066 70.6849 213.532 70.6849 214.134L70.6849 337.028C70.6849 337.562 71.1038 338.002 71.6367 338.023C83.3615 338.494 94.2944 337.055 104.436 333.707C114.851 330.366 123.939 325.355 131.701 318.674C139.463 312.09 145.506 304.181 149.829 294.945C154.153 285.807 156.314 275.785 156.314 264.879C156.314 254.759 154.3 245.228 150.272 236.287C146.243 227.345 140.643 219.485 133.47 212.705C126.396 206.024 118.142 200.767 108.71 196.935C99.3754 193.103 89.3042 191.187 78.4962 191.187C64.2492 191.187 51.2304 194.479 39.4398 201.062C27.7474 207.743 18.4132 216.636 11.437 227.738ZM151.188 361.806C151.74 361.806 152.188 362.254 152.188 362.806L152.188 381.44C152.188 381.992 151.74 382.44 151.188 382.44L5.80484 382.44C5.25255 382.44 4.80484 381.992 4.80484 381.44L4.80484 362.806C4.80484 362.254 5.25255 361.806 5.80484 361.806L151.188 361.806ZM177.98 372.27C177.98 368.929 179.06 366.08 181.222 363.722C183.482 361.462 186.282 360.332 189.623 360.332C192.963 360.332 195.715 361.462 197.876 363.722C200.136 366.08 201.266 368.929 201.266 372.27C201.266 375.513 200.136 378.264 197.876 380.524C195.715 382.882 192.963 384.061 189.623 384.061C186.282 384.061 183.482 382.931 181.222 380.671C179.06 378.411 177.98 375.611 177.98 372.27ZM6.42602 438.747C3.67488 446.411 2.20106 454.271 2.00454 462.328C1.70977 471.957 3.28187 480.996 6.7208 489.446C10.258 497.896 15.3181 504.774 21.9012 510.08C28.4843 515.386 36.1973 518.039 45.0403 518.039C53.2937 518.137 60.1225 515.779 65.5265 510.964C70.9305 506.15 75.4502 499.812 79.0857 491.952C82.7211 484.091 85.9636 475.691 88.813 466.749C91.0728 459.773 93.0379 453.485 94.7083 447.884C96.4769 442.382 98.7367 438.01 101.488 434.767C104.337 431.525 108.464 429.904 113.868 429.904C119.272 429.904 123.841 431.525 127.575 434.767C131.308 438.108 134.109 442.48 135.975 447.884C137.941 453.288 138.874 459.135 138.776 465.423C138.677 470.434 137.793 475.347 136.123 480.161C134.452 485.074 132.143 489.446 129.196 493.278C126.501 496.782 123.354 499.423 119.755 501.202C119.217 501.468 119.002 502.134 119.308 502.651L128.127 517.525C128.396 517.979 128.973 518.147 129.438 517.897C137.698 513.446 144.348 506.419 149.387 496.815C154.595 486.99 157.199 476.084 157.199 464.096C157.199 454.762 155.381 445.968 151.745 437.715C148.208 429.56 143.148 422.928 136.565 417.818C130.08 412.807 122.367 410.302 113.426 410.302C104.976 410.302 98.0489 412.513 92.6449 416.934C87.3391 421.454 82.9668 427.693 79.5279 435.652C76.0889 443.61 72.9448 452.797 70.0954 463.212C68.425 468.911 66.6564 474.462 64.7896 479.866C63.021 485.271 60.5646 489.741 57.4204 493.278C54.3745 496.815 50.1496 498.584 44.7455 498.584C39.7345 498.584 35.3622 496.914 31.6285 493.573C27.993 490.331 25.1928 486.106 23.2277 480.898C21.2626 475.691 20.28 470.09 20.28 464.096C20.28 458.692 21.2134 453.239 23.0803 447.737C25.0454 442.235 27.6 437.322 30.7442 432.999C33.7227 429.118 36.9499 426.356 40.4258 424.713C40.931 424.475 41.1749 423.882 40.9543 423.369L34.08 407.373C33.8646 406.872 33.2864 406.634 32.7873 406.855C27.1582 409.343 22.1048 413.292 17.6271 418.703C12.9109 424.401 9.17717 431.083 6.42602 438.747ZM116.138 271.41C116.473 271.351 116.812 271.469 117.056 271.706C118.945 273.544 121.525 274.676 124.37 274.676C130.163 274.676 134.86 269.979 134.86 264.186C134.86 258.393 130.163 253.696 124.37 253.696C121.436 253.696 118.783 254.901 116.879 256.842C116.635 257.091 116.287 257.217 115.944 257.156L90.577 252.668C89.9645 252.56 89.4028 253.031 89.4028 253.653L89.4028 274.947C89.4028 275.569 89.9645 276.04 90.577 275.932L116.138 271.41Z" fill="#F7C45E"/>
</svg>
