<svg width="868" height="747" viewBox="0 0 868 747" fill="none" xmlns="http://www.w3.org/2000/svg">
<path d="M0 186.14V57C0 25.5198 25.5198 0 57 0H285.705C300.823 0 315.321 6.00532 326.01 16.6949L829.27 519.955C850.522 541.206 851.621 575.308 831.783 597.884L737.529 705.148C728.48 715.446 716.022 722.138 702.44 723.997L564.932 742.817C547.274 745.233 529.501 739.251 516.898 726.648L16.6949 226.445C6.00534 215.755 0 201.257 0 186.14Z" fill="#F7C45E"/>
<path fill-rule="evenodd" clip-rule="evenodd" d="M56.4279 77.4581C56.6058 77.765 56.3843 78.1493 56.0296 78.1493H53.2739C53.1097 78.1493 52.9579 78.0619 52.8756 77.9198L46.6948 67.258C46.5346 66.9817 46.1485 66.9485 45.9434 67.1935L41.7272 72.2318C41.6579 72.3147 41.6199 72.4193 41.6199 72.5273V77.6889C41.6199 77.9432 41.4138 78.1493 41.1595 78.1493H38.7586C38.5043 78.1493 38.2982 77.9432 38.2982 77.6889V43.0201C38.2982 42.7658 38.5043 42.5597 38.7586 42.5597H41.1595C41.4138 42.5597 41.6199 42.7658 41.6199 43.0201V65.9219C41.6199 66.3518 42.1569 66.5471 42.4331 66.2176L52.1825 54.5875C52.27 54.4832 52.3992 54.4229 52.5353 54.4229H55.6736C56.0649 54.4229 56.2778 54.8802 56.0259 55.1797L48.8274 63.7372C48.7025 63.8857 48.6841 64.0965 48.7814 64.2644L56.4279 77.4581ZM62.068 78.1493C61.8137 78.1493 61.6076 77.9432 61.6076 77.6889V43.0201C61.6076 42.7658 61.8137 42.5597 62.068 42.5597H64.4689C64.7231 42.5597 64.9293 42.7658 64.9293 43.0201V77.6889C64.9293 77.9432 64.7231 78.1493 64.4689 78.1493H62.068ZM74.9192 77.0816C76.7224 78.2047 78.7154 78.7662 80.8983 78.7662C83.2709 78.7662 85.4142 78.1019 87.3281 76.7732C89.0863 75.5381 90.4374 73.9826 91.3814 72.1068C91.5118 71.8476 91.3593 71.5396 91.0767 71.474L88.5962 70.8975C88.3939 70.8505 88.186 70.9454 88.0815 71.125C87.3285 72.419 86.3577 73.4476 85.169 74.2107C83.9036 75.0333 82.48 75.4445 80.8983 75.4445C79.443 75.4287 78.1144 75.0807 76.9122 74.4005C75.7259 73.7046 74.7452 72.7634 73.9701 71.5771C73.299 70.5284 72.8503 69.356 72.6241 68.0601C72.5764 67.787 72.7916 67.5436 73.0688 67.5436H92.2281C92.4736 67.5436 92.6767 67.3508 92.6825 67.1053C92.725 65.3254 92.4903 63.6604 91.9785 62.1103C91.4407 60.4336 90.634 58.9705 89.5584 57.7209C88.4986 56.4713 87.2253 55.4985 85.7384 54.8025C84.2674 54.1066 82.654 53.7586 80.8983 53.7586C79.269 53.7586 77.7347 54.0828 76.2953 54.7313C74.8559 55.3799 73.5905 56.2815 72.4991 57.4362C71.4235 58.575 70.5773 59.9037 69.9604 61.4222C69.3435 62.9249 69.0351 64.5462 69.0351 66.2861C69.0351 68.5797 69.5649 70.6755 70.6247 72.5736C71.7003 74.4559 73.1318 75.9586 74.9192 77.0816ZM96.5021 54.8833C96.5021 54.629 96.7082 54.4229 96.9625 54.4229H99.3634C99.6177 54.4229 99.8238 54.629 99.8238 54.8833V77.6889C99.8238 77.9432 99.6177 78.1493 99.3634 78.1493H96.9625C96.7082 78.1493 96.5021 77.9432 96.5021 77.6889V54.8833ZM98.1867 50.2708C97.6489 50.2708 97.1902 50.0968 96.8105 49.7488C96.4467 49.385 96.2648 48.9342 96.2648 48.3964C96.2648 47.8586 96.4467 47.4157 96.8105 47.0677C97.1902 46.7039 97.6489 46.522 98.1867 46.522C98.7086 46.522 99.1515 46.7039 99.5153 47.0677C99.895 47.4157 100.085 47.8586 100.085 48.3964C100.085 48.9342 99.9029 49.385 99.5391 49.7488C99.1753 50.0968 98.7245 50.2708 98.1867 50.2708ZM108.888 77.8883C110.122 78.3312 111.388 78.5685 112.685 78.6001C114.235 78.6476 115.69 78.3945 117.05 77.8409C118.411 77.2714 119.518 76.4568 120.372 75.3971C121.226 74.3373 121.653 73.0956 121.653 71.672C121.669 70.3433 121.289 69.244 120.514 68.374C119.739 67.5041 118.719 66.7765 117.454 66.1912C116.188 65.606 114.836 65.084 113.396 64.6253C112.273 64.2615 111.261 63.9451 110.359 63.6762C109.474 63.3915 108.77 63.0277 108.248 62.5848C107.726 62.1261 107.465 61.4617 107.465 60.5918C107.465 59.7218 107.726 58.9863 108.248 58.3852C108.786 57.7841 109.489 57.3333 110.359 57.0328C111.229 56.7165 112.171 56.5662 113.183 56.582C113.99 56.5978 114.78 56.7402 115.556 57.0091C116.346 57.278 117.05 57.6497 117.667 58.1242C118.133 58.4824 118.504 58.8902 118.78 59.3475C118.923 59.5841 119.229 59.6845 119.467 59.5436L121.329 58.4397C121.538 58.3157 121.616 58.0496 121.492 57.8404C120.772 56.6235 119.687 55.6346 118.237 54.8737C116.655 54.0354 114.899 53.6162 112.969 53.6162C111.467 53.6162 110.051 53.9088 108.722 54.4941C107.409 55.0635 106.342 55.8781 105.519 56.9379C104.713 57.9819 104.309 59.2236 104.309 60.663C104.309 62.0233 104.665 63.1384 105.377 64.0084C106.104 64.8625 107.109 65.5664 108.39 66.12C109.671 66.6736 111.15 67.1798 112.827 67.6385C113.744 67.9074 114.638 68.1921 115.508 68.4927C116.378 68.7774 117.098 69.1728 117.667 69.679C118.237 70.1693 118.521 70.8495 118.521 71.7195C118.521 72.5262 118.252 73.23 117.715 73.8311C117.193 74.4164 116.512 74.8672 115.674 75.1835C114.836 75.4999 113.934 75.6581 112.969 75.6581C112.099 75.6581 111.221 75.5078 110.336 75.2072C109.45 74.8909 108.659 74.4796 107.963 73.9735C107.439 73.5717 107.042 73.1417 106.772 72.6836C106.641 72.4621 106.37 72.3484 106.133 72.45L104.108 73.3202C103.877 73.4194 103.767 73.6863 103.88 73.9107C104.283 74.7108 104.877 75.4356 105.662 76.0851C106.579 76.8444 107.655 77.4454 108.888 77.8883ZM81.9785 60.3877C81.9512 60.2336 82.0077 60.079 82.1056 59.9569C82.3372 59.6678 82.4757 59.301 82.4757 58.9018C82.4757 57.9691 81.7197 57.2131 80.787 57.2131C79.8544 57.2131 79.0983 57.9691 79.0983 58.9018C79.0983 59.3136 79.2457 59.6911 79.4907 59.9841C79.5937 60.1074 79.6539 60.2657 79.626 60.4238L78.995 63.9904C78.9452 64.2723 79.162 64.531 79.4484 64.531H82.1624C82.4488 64.531 82.6657 64.2723 82.6158 63.9904L81.9785 60.3877Z" fill="white"/>
</svg>
