<svg width="777" height="373" viewBox="0 0 777 373" fill="none" xmlns="http://www.w3.org/2000/svg">
<mask id="mask0_1_271" style="mask-type:alpha" maskUnits="userSpaceOnUse" x="4" y="0" width="769" height="365">
<path d="M65.2122 7.28277C69.6815 2.62993 75.8543 0 82.306 0H749.149C762.24 0 772.851 10.6118 772.851 23.7022V341.298C772.851 354.388 762.24 365 749.149 365H27.7022C14.6118 365 4 354.388 4 341.298V80.5485C4 74.4273 6.36809 68.5436 10.6084 64.1291L65.2122 7.28277Z" fill="#3E82DB"/>
</mask>
<g mask="url(#mask0_1_271)">
<path d="M65.3963 7.09112C69.748 2.56073 75.7584 0 82.0402 0H749.773C762.519 0 772.851 10.3326 772.851 23.0785V341.922C772.851 354.667 762.519 365 749.773 365H27.0785C14.3326 365 4 354.667 4 341.922V80.2974C4 74.3374 6.30577 68.6084 10.4345 64.3101L65.3963 7.09112Z" fill="#1E2F43"/>
<path d="M-167.931 -115.371L-140.699 -88.1388M-140.699 -88.1388L-113.467 -115.371M-140.699 -88.1388L-113.467 -60.9066L-167.931 -6.44208M-59.0021 -88.1388L-86.2344 -115.371L-113.467 -88.1388L-86.2344 -60.9066M-59.0021 -88.1388L-31.7699 -115.371L-4.53763 -88.1388M-59.0021 -88.1388L-86.2344 -60.9066M-59.0021 -88.1388L-31.7699 -60.9066M-4.53763 -88.1388L22.6946 -115.371L49.9269 -88.1388M-4.53763 -88.1388L-31.7699 -60.9066M-4.53763 -88.1388L22.6946 -60.9066M49.9269 -115.371L77.1591 -88.1388L49.9269 -60.9066L22.6946 -88.1388M77.1591 -115.371L104.391 -88.1388M104.391 -88.1388L131.624 -115.371M104.391 -88.1388L49.9269 -33.6743L22.6946 -60.9066M131.624 -88.1388L158.856 -115.371L186.088 -88.1388M131.624 -88.1388L104.391 -60.9066M131.624 -88.1388L158.856 -60.9066M186.088 -115.371L213.32 -88.1388M213.32 -88.1388L240.553 -115.371L267.785 -88.1388M213.32 -88.1388L186.088 -60.9066M267.785 -88.1388L295.017 -115.371L322.249 -88.1388M267.785 -88.1388L240.553 -60.9066M322.249 -88.1388L349.482 -115.371M322.249 -88.1388L295.017 -60.9066M322.249 -88.1388L349.482 -60.9066M376.714 -115.371L349.482 -88.1388L403.946 -33.6743M431.178 -115.371L485.643 -60.9066L431.178 -6.44208L403.946 -33.6743M458.411 -115.371L512.875 -60.9066M485.643 -115.371L512.875 -88.1388L540.107 -115.371L567.34 -88.1388M567.34 -88.1388L594.572 -115.371L621.804 -88.1388L649.036 -115.371M567.34 -88.1388L540.107 -60.9066M567.34 -88.1388L594.572 -60.9066M676.269 -115.371L649.036 -88.1388M649.036 -88.1388L621.804 -60.9066L594.572 -88.1388M649.036 -88.1388L676.269 -60.9066L649.036 -33.6743L676.269 -6.44208M703.501 -115.371L676.269 -88.1388L703.501 -60.9066L676.269 -33.6743M730.733 -115.371L703.501 -88.1388L730.733 -60.9066M757.965 -115.371L730.733 -88.1388M757.965 -88.1388L785.198 -115.371L812.43 -88.1388M757.965 -88.1388L730.733 -60.9066M757.965 -88.1388L785.198 -60.9066M812.43 -88.1388L839.662 -115.371M812.43 -88.1388L785.198 -60.9066M894.127 -88.1388L866.894 -115.371L812.43 -60.9066M894.127 -88.1388L921.359 -115.371L948.591 -88.1388L921.359 -60.9066M894.127 -88.1388L866.895 -60.9066M948.591 -115.371L975.824 -88.1388L921.359 -33.6743M-167.931 -88.1388L-140.699 -60.9066L-167.931 -33.6743M-86.2344 -60.9066L-167.931 20.7902M-31.7699 -60.9066L-4.53763 -33.6743L22.6946 -60.9066M104.391 -60.9066L131.624 -33.6743M104.391 -60.9066L49.9269 -6.44208M158.856 -88.1388L186.088 -60.9066M186.088 -60.9066L158.856 -33.6743M186.088 -60.9066L213.32 -33.6743M240.553 -88.1388L213.32 -60.9066L240.553 -33.6743L295.017 -88.1388M295.017 -60.9066L322.249 -33.6743M295.017 -60.9066L240.553 -6.44208M349.482 -60.9066L322.249 -33.6743M349.482 -60.9066L376.714 -33.6743L349.482 -6.44208M403.946 -60.9066L376.714 -88.1388L403.946 -115.371L458.411 -60.9066L431.178 -33.6743M403.946 -88.1388L431.178 -60.9066L403.946 -33.6743M512.875 -60.9066L540.107 -88.1388M512.875 -60.9066L458.411 -6.44208M540.107 -60.9066L512.875 -33.6743M540.107 -60.9066L567.34 -33.6743L594.572 -60.9066M594.572 -60.9066L621.804 -33.6743M730.733 -60.9066L703.501 -33.6743M785.198 -60.9066L730.733 -6.44208L703.501 -33.6743M812.43 -60.9066L839.662 -33.6743M812.43 -60.9066L757.965 -6.44208M866.894 -88.1388L839.662 -60.9066M866.895 -60.9066L839.662 -33.6743M866.895 -60.9066L894.127 -33.6743M921.359 -88.1388L894.127 -60.9066L921.359 -33.6743M-86.2344 -33.6743L-59.0021 -60.9066L-31.7699 -33.6743M-86.2344 -33.6743L-113.467 -6.44208M-86.2344 -33.6743L-59.0021 -6.44208M-31.7699 -33.6743L-59.0021 -6.44208M-31.7699 -33.6743L-4.53763 -6.44208L22.6946 -33.6743L49.9269 -6.44208M131.624 -60.9066L158.856 -33.6743M158.856 -33.6743L131.624 -6.44208M213.32 -33.6743L240.553 -6.44208M213.32 -33.6743L158.856 20.7902L131.624 -6.44208M322.249 -33.6743L349.482 -6.44208M403.946 -33.6743L376.714 -6.44208M512.875 -33.6743L485.643 -6.44208M512.875 -33.6743L540.107 -6.44208L458.411 75.2547L485.643 102.487M621.804 -33.6743L649.036 -60.9066M621.804 -33.6743L649.036 -6.44208L621.804 20.7902M703.501 -33.6743L676.269 -6.44208M757.965 -60.9066L730.733 -33.6743M839.662 -33.6743L866.894 -6.44208M921.359 -33.6743L894.127 -6.44208L866.895 -33.6743M975.824 -60.9066L921.359 -6.44208M-113.467 -6.44208L-86.2344 20.7902M-113.467 -6.44208L-167.931 48.0224M-59.0021 -6.44208L-86.2344 20.7902M49.9269 -6.44208L77.1591 20.7902M77.1591 -6.44208L104.391 -33.6743L131.624 -6.44208M131.624 -6.44208L104.391 20.7902L131.624 48.0224M186.088 -33.6743L158.856 -6.44208M240.553 -6.44208L213.32 20.7902L240.553 48.0224M349.482 -6.44208L322.249 20.7902L349.482 48.0224M349.482 -6.44208L376.714 20.7902M458.411 -6.44208L431.178 20.7902M458.411 -6.44208L485.643 20.7902M540.107 -33.6743L567.34 -6.44208M567.34 -6.44208L594.572 -33.6743L621.804 -6.44208L594.572 20.7902M567.34 -6.44208L485.643 75.2547M676.269 -6.44208L703.501 20.7902L676.269 48.0224M676.269 -6.44208L621.804 48.0224M757.965 -6.44208L730.733 20.7902M757.965 -6.44208L785.198 20.7902L812.43 -6.44208M785.198 -6.44208L812.43 -33.6743L839.662 -6.44208L785.198 48.0224M866.894 -6.44208L894.127 20.7902M866.894 -6.44208L785.198 75.2547M921.359 -6.44208L894.127 20.7902M921.359 -6.44208L948.591 20.7902M975.824 -33.6743L948.591 -6.44208M-86.2344 20.7902L-167.931 102.487L-140.699 129.719M-59.0021 20.7902L-31.7699 -6.44208L-4.53763 20.7902M-59.0021 20.7902L-31.7699 48.0224M-59.0021 20.7902L-140.699 102.487M-4.53763 20.7902L22.6946 -6.44208L49.9269 20.7902M-4.53763 20.7902L-31.7699 48.0224M77.1591 20.7902L104.391 -6.44208M77.1591 20.7902L49.9269 48.0224M77.1591 20.7902L104.391 48.0224M213.32 -6.44208L186.088 20.7902M186.088 20.7902L158.856 48.0224M186.088 20.7902L213.32 48.0224M295.017 -6.44208L267.785 20.7902M295.017 20.7902L322.249 -6.44208L295.017 -33.6743L240.553 20.7902L267.785 48.0224M295.017 20.7902L267.785 48.0224M295.017 20.7902L322.249 48.0224L295.017 75.2547M376.714 20.7902L403.946 -6.44208L431.178 20.7902M376.714 20.7902L349.482 48.0224M431.178 20.7902L376.714 75.2547M485.643 20.7902L512.875 -6.44208M485.643 20.7902L431.178 75.2547M594.572 -6.44208L485.643 102.487M594.572 20.7902L567.34 48.0224M594.572 20.7902L621.804 48.0224M703.501 -6.44208L730.733 20.7902M730.733 20.7902L676.269 75.2547M894.127 20.7902L866.895 48.0224M948.591 20.7902L975.824 -6.44208M948.591 20.7902L975.824 48.0224L921.359 102.487M948.591 20.7902L894.127 75.2547M-113.467 20.7902L-167.931 75.2547M-31.7699 48.0224L-4.53763 75.2547M-4.53763 48.0224L22.6946 20.7902L49.9269 48.0224M49.9269 48.0224L22.6946 75.2547M49.9269 48.0224L77.1591 75.2547L104.391 48.0224M104.391 48.0224L131.624 75.2547M131.624 20.7902L158.856 48.0224M158.856 48.0224L131.624 75.2547M213.32 48.0224L240.553 75.2547M213.32 48.0224L131.624 129.719M267.785 48.0224L240.553 75.2547M267.785 48.0224L295.017 75.2547M349.482 48.0224L322.249 75.2547M403.946 20.7902L322.249 102.487M458.411 20.7902L403.946 75.2547M567.34 48.0224L594.572 75.2547M567.34 48.0224L485.643 129.719M621.804 48.0224L594.572 75.2547M621.804 48.0224L649.036 75.2547L594.572 129.719M676.269 20.7902L649.036 48.0224L676.269 75.2547M730.733 48.0224L757.965 20.7902L785.198 48.0224M730.733 48.0224L757.965 75.2547M730.733 48.0224L649.036 129.719M785.198 48.0224L757.965 75.2547M866.894 20.7902L785.198 102.487M866.895 48.0224L894.127 75.2547M866.895 48.0224L812.43 102.487M921.359 20.7902L894.127 48.0224M-86.2344 75.2547L-59.0021 48.0224L-31.7699 75.2547M-86.2344 75.2547L-113.467 102.487M-86.2344 75.2547L-59.0021 102.487L-86.2344 129.719M-4.53763 75.2547L22.6946 48.0224M-4.53763 75.2547L-31.7699 102.487M22.6946 75.2547L-4.53763 102.487M22.6946 75.2547L49.9269 102.487M131.624 75.2547L77.1591 129.719L49.9269 102.487M186.088 48.0224L77.1591 156.951M240.553 75.2547L213.32 102.487M295.017 75.2547L267.785 102.487L295.017 129.719M295.017 75.2547L322.249 102.487M376.714 75.2547L349.482 102.487L376.714 129.719M376.714 75.2547L403.946 102.487L431.178 75.2547M431.178 75.2547L458.411 102.487L403.946 156.951M594.572 75.2547L512.875 156.951M676.269 75.2547L621.804 129.719M757.965 75.2547L785.198 102.487M757.965 75.2547L676.269 156.951M894.127 75.2547L812.43 156.951L839.662 184.184M948.591 48.0224L894.127 102.487M-113.467 102.487L-140.699 129.719M-113.467 102.487L-86.2344 129.719M-59.0021 75.2547L-31.7699 102.487M-31.7699 102.487L-59.0021 129.719M-4.53763 102.487L22.6946 129.719L49.9269 102.487M-4.53763 102.487L-59.0021 156.951M49.9269 75.2547L77.1591 102.487L104.391 75.2547M213.32 75.2547L158.856 129.719M213.32 102.487L240.553 129.719M213.32 102.487L158.856 156.951M267.785 75.2547L240.553 102.487L267.785 129.719L240.553 156.951M322.249 102.487L349.482 129.719M485.643 102.487L431.178 156.951M567.34 75.2547L512.875 129.719M621.804 75.2547L567.34 129.719M730.733 75.2547L676.269 129.719M785.198 102.487L812.43 129.719M866.894 75.2547L812.43 129.719M894.127 102.487L866.895 129.719M894.127 102.487L921.359 129.719M975.824 75.2547L921.359 129.719M-140.699 129.719L-167.931 156.951M-140.699 129.719L-113.467 156.951M-86.2344 129.719L-59.0021 156.951M131.624 129.719L104.391 156.951M131.624 129.719L158.856 156.951M295.017 129.719L267.785 156.951M295.017 129.719L322.249 156.951M295.017 102.487L349.482 156.951M376.714 129.719L349.482 156.951M376.714 129.719L403.946 156.951M376.714 102.487L403.946 129.719L431.178 102.487M485.643 129.719L512.875 156.951M485.643 129.719L431.178 184.184L403.946 156.951M649.036 129.719L635.277 143.479M649.036 129.719L676.269 156.951M812.43 129.719L785.198 156.951M866.895 129.719L839.662 156.951M866.895 129.719L894.127 156.951M921.359 129.719L948.591 156.951M975.824 102.487L948.591 129.719M-113.467 129.719L-86.2344 156.951M-86.2344 156.951L-113.467 184.184M-86.2344 156.951L-59.0021 184.184L-86.2344 211.416L-59.0021 238.648M-59.0021 156.951L-31.7699 184.184M-31.7699 156.951L-4.53763 129.719L22.6946 156.951M22.6946 156.951L49.9269 129.719L77.1591 156.951M22.6946 156.951L49.9269 184.184M77.1591 156.951L104.391 184.184L131.624 156.951L158.856 184.184M158.856 156.951L186.088 184.184M186.088 156.951L213.32 129.719L240.553 156.951M240.553 156.951L267.785 184.184M322.249 156.951L295.017 184.184M322.249 156.951L349.482 184.184L322.249 211.416L295.017 184.184M349.482 156.951L376.714 184.184M512.875 156.951L458.411 211.416M676.269 156.951L649.036 184.184M703.501 156.951L730.733 184.184L703.501 211.416M703.501 156.951L757.965 102.487L785.198 129.719L757.965 156.951M703.501 156.951L635.42 225.032L601.38 259.072L582.044 278.637M757.965 129.719L730.733 156.951L757.965 184.184M785.198 156.951L757.965 184.184M785.198 156.951L812.43 184.184M894.127 129.719L921.359 156.951M921.359 156.951L894.127 184.184M921.359 156.951L948.591 184.184M948.591 156.951L975.824 129.719M948.591 156.951L975.824 184.184L948.591 211.416M-167.931 184.184L-140.699 156.951L-113.467 184.184M-113.467 184.184L-167.931 238.648M-31.7699 184.184L-4.53763 156.951L22.6946 184.184M-31.7699 184.184L-59.0021 211.416M-31.7699 184.184L-4.53763 211.416M49.9269 184.184L22.6946 211.416M49.9269 184.184L77.1591 211.416M49.9269 156.951L104.391 211.416M186.088 184.184L213.32 156.951L240.553 184.184L213.32 211.416M186.088 184.184L158.856 211.416M267.785 184.184L295.017 156.951M267.785 184.184L213.32 238.648L186.088 211.416M295.017 184.184L267.785 211.416M376.714 184.184L403.946 211.416L376.714 238.648M376.714 184.184L322.249 238.648M376.714 156.951L431.178 211.416M485.643 156.951L431.178 211.416M757.965 184.184L730.733 211.416M839.662 184.184L866.894 156.951L894.127 184.184M839.662 184.184L812.43 211.416M894.127 184.184L866.895 211.416L894.127 238.648M-140.699 184.184L-167.931 211.416M-86.2344 184.184L-113.467 211.416M-113.467 211.416L-86.2344 238.648L-167.931 320.345M-113.467 211.416L-167.931 265.88M-4.53763 211.416L-31.7699 238.648M-4.53763 211.416L22.6946 238.648M-4.53763 184.184L22.6946 211.416M22.6946 211.416L49.9269 238.648M104.391 211.416L131.624 184.184L158.856 211.416M104.391 211.416L77.1591 238.648L49.9269 211.416M158.856 211.416L77.1591 293.113M213.32 184.184L186.088 211.416M186.088 211.416L104.391 293.113M267.785 211.416L295.017 238.648L240.553 293.113M267.785 211.416L213.32 265.88L186.088 238.648L158.856 265.88M431.178 211.416L403.946 238.648L458.411 293.113M431.178 211.416L458.411 238.648M512.875 184.184L458.411 238.648M703.501 184.184L676.269 211.416M676.269 211.416L703.501 238.648M676.269 211.416L649.036 238.648L635.42 252.264M730.733 211.416L703.501 238.648M730.733 211.416L757.965 238.648M757.965 211.416L785.198 184.184L812.43 211.416M812.43 211.416L757.965 265.88M866.894 184.184L839.662 211.416M839.662 211.416L866.894 238.648L839.662 265.88L866.894 293.113M839.662 211.416L785.198 265.88M894.127 211.416L921.359 184.184L948.591 211.416M948.591 211.416L975.824 238.648L948.591 265.88M-59.0021 238.648L-31.7699 211.416M-59.0021 238.648L-140.699 320.345M-31.7699 238.648L-113.467 320.345M-31.7699 238.648L22.6946 293.113M49.9269 238.648L22.6946 265.88L-4.53763 238.648M49.9269 238.648L77.1591 265.88L131.624 211.416M295.017 211.416L322.249 238.648M322.249 238.648L295.017 265.88M322.249 238.648L349.482 265.88L376.714 238.648M376.714 211.416L349.482 238.648M376.714 238.648L431.178 293.113M458.411 238.648L485.643 265.88M512.875 211.416L485.643 238.648L512.875 265.88M703.501 238.648L730.733 265.88L757.965 238.648M757.965 238.648L785.198 211.416M894.127 238.648L921.359 211.416L948.591 238.648M894.127 238.648L866.895 265.88M894.127 238.648L921.359 265.88L866.895 320.345M-113.467 238.648L-167.931 293.113M158.856 265.88L104.391 320.345M158.856 265.88L213.32 320.345M267.785 238.648L213.32 293.113L186.088 265.88M295.017 265.88L267.785 293.113M295.017 265.88L322.249 293.113L295.017 320.345M431.178 238.648L458.411 265.88M485.643 265.88L458.411 293.113M485.643 265.88L540.107 320.345M512.875 265.88L540.107 238.648M512.875 265.88L540.107 293.113M649.036 265.88L676.269 238.648L703.501 265.88M703.501 265.88L676.269 293.113M703.501 265.88L730.733 293.113M757.965 265.88L730.733 293.113M757.965 265.88L785.198 293.113M839.662 238.648L812.43 265.88M812.43 265.88L785.198 293.113M812.43 265.88L839.662 293.113L812.43 320.345M921.359 238.648L948.591 265.88M948.591 265.88L975.824 293.113L948.591 320.345M948.591 265.88L894.127 320.345M22.6946 293.113L49.9269 265.88L77.1591 293.113M22.6946 293.113L-31.7699 347.577M77.1591 293.113L104.391 320.345M240.553 293.113L213.32 320.345M240.553 293.113L267.785 320.345M322.249 265.88L349.482 293.113M349.482 293.113L376.714 265.88L431.178 320.345M349.482 293.113L322.249 320.345M349.482 293.113L376.714 320.345L349.482 347.577M458.411 293.113L431.178 320.345M540.107 293.113L567.34 265.88M540.107 293.113L567.34 320.345M567.34 293.113L594.572 320.345M594.572 293.113L621.804 265.88L649.036 293.113M649.036 293.113L676.269 265.88M649.036 293.113L676.269 320.345M730.733 293.113L703.501 320.345M785.198 293.113L730.733 347.577M866.894 293.113L894.127 265.88M866.894 293.113L839.662 320.345M-140.699 320.345L-167.931 347.577M-140.699 320.345L-113.467 347.577M-31.7699 293.113L-113.467 374.809M22.6946 320.345L49.9269 293.113L104.391 347.577M22.6946 320.345L-4.53763 347.577M22.6946 320.345L104.391 402.042M104.391 320.345L131.624 347.577M186.088 320.345L158.856 293.113L131.624 320.345L158.856 347.577M213.32 320.345L186.088 347.577M267.785 320.345L295.017 293.113M267.785 320.345L213.32 374.809M295.017 320.345L322.249 347.577M295.017 320.345L240.553 374.809M376.714 293.113L403.946 320.345M403.946 320.345L431.178 347.577L403.946 374.809M403.946 320.345L349.482 374.809M431.178 320.345L458.411 347.577M458.411 320.345L485.643 293.113L512.875 320.345L485.643 347.577M540.107 320.345L512.875 347.577M540.107 320.345L567.34 347.577M594.572 320.345L621.804 293.113L649.036 320.345M594.572 320.345L567.34 347.577M594.572 320.345L621.804 347.577M676.269 320.345L703.501 293.113M676.269 320.345L649.036 347.577M676.269 320.345L703.501 347.577M757.965 293.113L703.501 347.577M812.43 293.113L785.198 320.345M785.198 320.345L757.965 347.577L785.198 374.809L812.43 347.577M785.198 320.345L812.43 347.577M839.662 320.345L812.43 347.577M839.662 320.345L866.894 347.577L894.127 320.345M894.127 320.345L921.359 347.577M948.591 293.113L921.359 320.345M948.591 320.345L921.359 347.577M948.591 320.345L975.824 347.577L948.591 374.809M-113.467 347.577L-140.699 374.809M-113.467 347.577L-31.7699 265.88L-4.53763 293.113L-59.0021 347.577M-59.0021 347.577L-86.2344 374.809M-59.0021 347.577L-31.7699 374.809L-4.53763 347.577M-4.53763 347.577L22.6946 374.809L-4.53763 402.042L22.6946 429.274L-59.0021 510.971L-86.2344 483.738M49.9269 320.345L104.391 374.809M131.624 347.577L104.391 374.809M131.624 347.577L158.856 374.809M158.856 320.345L186.088 347.577M186.088 347.577L158.856 374.809M240.553 320.345L186.088 374.809M322.249 347.577L349.482 320.345M322.249 347.577L295.017 374.809M322.249 347.577L349.482 374.809M458.411 347.577L485.643 320.345M458.411 347.577L431.178 374.809M458.411 347.577L485.643 374.809L512.875 347.577M512.875 347.577L540.107 374.809M567.34 347.577L594.572 374.809M621.804 347.577L594.572 374.809M621.804 347.577L676.269 402.042L703.501 374.809M621.804 320.345L649.036 347.577M649.036 347.577L676.269 374.809L703.501 347.577M730.733 347.577L703.501 374.809M730.733 347.577L757.965 374.809M921.359 347.577L894.127 374.809M921.359 347.577L948.591 374.809M-140.699 347.577L-167.931 374.809M-140.699 374.809L-167.931 402.042M-140.699 374.809L-113.467 402.042L-86.2344 374.809M-86.2344 374.809L-59.0021 402.042M22.6946 347.577L49.9269 374.809M49.9269 374.809L22.6946 402.042L49.9269 429.274M49.9269 374.809L77.1591 402.042L49.9269 429.274M104.391 374.809L131.624 402.042L158.856 374.809M158.856 374.809L186.088 402.042M213.32 374.809L186.088 402.042M213.32 374.809L240.553 402.042L267.785 374.809M295.017 347.577L267.785 374.809M267.785 374.809L295.017 402.042M349.482 374.809L322.249 402.042M349.482 374.809L376.714 402.042L349.482 429.274M403.946 347.577L376.714 374.809L403.946 402.042M431.178 374.809L403.946 402.042M431.178 374.809L458.411 402.042M540.107 347.577L567.34 374.809M567.34 374.809L540.107 402.042M567.34 374.809L594.572 402.042M594.572 374.809L649.036 429.274M703.501 374.809L730.733 402.042M757.965 374.809L730.733 402.042M757.965 374.809L785.198 402.042L812.43 374.809M812.43 374.809L839.662 347.577L866.894 374.809L894.127 347.577M812.43 374.809L866.894 429.274L839.662 456.506L812.43 429.274L785.198 456.506M894.127 374.809L866.894 402.042M894.127 374.809L921.359 402.042L948.591 374.809M948.591 374.809L975.824 402.042M-59.0021 374.809L-31.7699 402.042M-31.7699 402.042L-4.53763 374.809M-31.7699 402.042L-59.0021 429.274L-86.2344 402.042L-113.467 429.274L-140.699 402.042L-167.931 429.274M-31.7699 402.042L-4.53763 429.274L-59.0021 483.738L-86.2344 456.506L-113.467 483.738M104.391 402.042L77.1591 429.274M104.391 402.042L131.624 429.274M186.088 402.042L213.32 429.274L186.088 456.506M295.017 402.042L322.249 374.809M295.017 402.042L267.785 429.274M295.017 402.042L322.249 429.274M403.946 402.042L376.714 429.274M458.411 374.809L485.643 402.042M485.643 402.042L512.875 374.809L540.107 402.042M485.643 402.042L458.411 429.274L431.178 402.042L403.946 429.274M485.643 402.042L512.875 429.274M540.107 402.042L512.875 429.274M594.572 402.042L540.107 456.506M594.572 402.042L649.036 456.506L676.269 429.274M621.804 374.809L676.269 429.274M730.733 402.042L703.501 429.274M730.733 402.042L757.965 429.274M839.662 374.809L866.894 402.042M866.894 402.042L894.127 429.274L839.662 483.738L812.43 456.506M49.9269 429.274L-4.53763 483.738M77.1591 429.274L104.391 456.506M77.1591 429.274L22.6946 483.738M131.624 429.274L158.856 402.042L186.088 429.274L158.856 456.506M131.624 429.274L158.856 456.506M213.32 402.042L240.553 429.274M240.553 429.274L267.785 402.042M240.553 429.274L213.32 456.506M267.785 429.274L240.553 456.506L267.785 483.738M267.785 429.274L295.017 456.506L322.249 429.274M322.249 429.274L349.482 402.042M322.249 429.274L349.482 456.506L376.714 429.274M376.714 429.274L403.946 456.506M512.875 429.274L540.107 456.506M512.875 429.274L458.411 483.738M567.34 402.042L540.107 429.274M676.269 429.274L703.501 402.042M703.501 429.274L676.269 456.506M703.501 429.274L730.733 456.506M757.965 429.274L730.733 456.506M757.965 429.274L785.198 456.506M757.965 402.042L785.198 429.274L812.43 402.042L839.662 429.274M894.127 402.042L921.359 429.274M921.359 429.274L948.591 402.042L975.824 429.274L948.591 456.506M921.359 429.274L948.591 456.506M921.359 429.274L866.895 483.738M-31.7699 429.274L-59.0021 456.506L-86.2344 429.274L-113.467 456.506L-140.699 429.274L-167.931 456.506L-140.699 483.738M104.391 456.506L77.1591 483.738L104.391 510.971L77.1591 538.203M104.391 456.506L131.624 483.738L158.856 456.506M104.391 429.274L131.624 456.506M158.856 456.506L186.088 483.738M213.32 456.506L186.088 483.738M213.32 456.506L240.553 483.738M403.946 456.506L431.178 429.274L458.411 456.506L485.643 429.274M403.946 456.506L376.714 483.738M540.107 456.506L512.875 483.738M567.34 456.506L594.572 429.274L621.804 456.506M567.34 456.506L540.107 483.738L567.34 510.971M567.34 456.506L594.572 483.738M621.804 456.506L594.572 483.738M621.804 456.506L649.036 483.738L676.269 456.506M676.269 456.506L703.501 483.738M730.733 456.506L703.501 483.738M785.198 456.506L812.43 483.738M948.591 456.506L975.824 483.738M-140.699 483.738L-167.931 510.971M-140.699 483.738L-113.467 510.971M-140.699 456.506L-113.467 483.738M-113.467 483.738L-86.2344 510.971M-4.53763 483.738L-31.7699 510.971M-4.53763 483.738L22.6946 510.971M77.1591 456.506L49.9269 483.738M49.9269 483.738L22.6946 510.971M49.9269 483.738L77.1591 510.971L49.9269 538.203L22.6946 510.971M186.088 483.738L213.32 510.971M240.553 483.738L213.32 510.971M240.553 483.738L267.785 510.971M267.785 456.506L295.017 483.738M295.017 483.738L322.249 456.506L349.482 483.738M295.017 483.738L267.785 510.971M295.017 483.738L322.249 510.971M349.482 483.738L376.714 456.506M349.482 483.738L376.714 510.971M458.411 483.738L431.178 456.506L376.714 510.971M458.411 483.738L485.643 510.971L512.875 483.738M458.411 483.738L403.946 538.203M512.875 456.506L485.643 483.738M512.875 483.738L540.107 510.971M594.572 483.738L567.34 510.971M703.501 483.738L730.733 510.971M785.198 483.738L757.965 456.506L730.733 483.738L757.965 510.971L730.733 538.203L676.269 483.738L649.036 510.971L621.804 483.738L594.572 510.971M812.43 483.738L785.198 510.971M812.43 483.738L839.662 510.971L866.895 483.738M866.895 483.738L894.127 510.971M948.591 483.738L921.359 456.506L894.127 483.738L921.359 510.971M948.591 483.738L921.359 510.971M948.591 483.738L975.824 510.971M-86.2344 510.971L-113.467 538.203L-140.699 510.971L-167.931 538.203M-86.2344 510.971L-59.0021 538.203L-31.7699 510.971M-31.7699 510.971L-4.53763 538.203L22.6946 510.971M104.391 483.738L131.624 510.971M131.624 510.971L158.856 483.738L186.088 510.971M131.624 510.971L104.391 538.203M131.624 510.971L158.856 538.203M213.32 510.971L186.088 538.203L158.856 510.971M213.32 510.971L240.553 538.203M267.785 510.971L295.017 538.203L322.249 510.971M322.249 510.971L349.482 538.203L376.714 510.971M322.249 483.738L349.482 510.971M431.178 483.738L376.714 538.203M567.34 510.971L540.107 538.203L512.875 510.971L485.643 538.203L458.411 510.971L431.178 538.203M594.572 510.971L567.34 538.203M594.572 510.971L621.804 538.203M757.965 483.738L785.198 510.971M785.198 510.971L757.965 538.203M921.359 510.971L894.127 538.203L866.894 510.971L839.662 538.203L812.43 510.971L785.198 538.203M240.553 510.971L267.785 538.203M621.804 510.971L649.036 538.203L676.269 510.971L703.501 538.203M921.359 538.203L948.591 510.971L975.824 538.203" stroke="url(#paint0_linear_1_271)" stroke-opacity="0.2" stroke-width="1.55936" stroke-linecap="round"/>
<path opacity="0.5" d="M549.563 -3.86523L477.65 66.8399C472.738 71.6692 473.508 79.793 479.239 83.614V83.614C483.572 86.5028 489.346 85.9077 492.999 82.1958L577.046 -3.21073" stroke="#DFE1E4" stroke-width="1.24748"/>
<path d="M685.385 -57.9839L613.472 12.7213C608.56 17.5506 609.33 25.6743 615.061 29.4953V29.4953C619.394 32.3841 625.168 31.789 628.821 28.0772L712.868 -57.3294" stroke="#DFE1E4" stroke-width="1.24748"/>
<path d="M699.749 365.126L765.509 299.367C769.191 295.684 769.191 289.715 765.509 286.032V286.032C761.827 282.35 755.857 282.35 752.175 286.032L711.26 326.948C707.229 330.979 700.693 330.979 696.662 326.948V326.948C692.631 322.917 692.631 316.381 696.662 312.35L710.137 298.875C713.548 295.465 713.548 289.934 710.137 286.524V286.524C706.726 283.113 701.196 283.113 697.785 286.524L684.17 300.138C680.062 304.247 673.401 304.247 669.293 300.138V300.138C665.184 296.03 665.184 289.369 669.293 285.261L683.047 271.506C686.536 268.018 686.536 262.362 683.047 258.874V258.874C679.559 255.386 673.904 255.386 670.416 258.874L659.186 270.103C654.071 275.219 645.777 275.219 640.662 270.103L631.112 260.553C625.997 255.438 617.703 255.438 612.588 260.553L587.109 286.032C583.427 289.715 577.457 289.715 573.775 286.032V286.032C570.093 282.35 570.093 276.381 573.775 272.698L580.442 266.031L586.88 259.847C589.451 257.377 590.904 253.966 590.904 250.401V242.715" stroke="#DFE1E4" stroke-width="1.24748"/>
<path d="M292.123 364.975L343.464 313.633C346.835 310.262 352.301 310.262 355.672 313.633V313.633C359.042 317.004 359.042 322.469 355.672 325.84L340.161 341.35C336.553 344.959 336.553 350.811 340.161 354.42V354.42C343.77 358.028 349.622 358.028 353.23 354.42L378.651 328.999C383.766 323.884 383.766 315.59 378.651 310.475L368.741 300.564C364.894 296.717 364.894 290.48 368.741 286.633V286.633C372.588 282.786 378.825 282.786 382.672 286.633L434.662 338.623C439.777 343.738 439.777 352.032 434.662 357.147L423.53 368.278" stroke="url(#paint1_linear_1_271)" stroke-width="1.24748"/>
<g opacity="0.7" filter="url(#filter0_f_1_271)">
<g filter="url(#filter1_f_1_271)">
<circle cx="531.828" cy="259.269" r="103.133" transform="rotate(60 531.828 259.269)" fill="#78F6FC"/>
</g>
<g filter="url(#filter2_f_1_271)">
<ellipse cx="536.747" cy="152.157" rx="116.855" ry="68.6862" transform="rotate(60 536.747 152.157)" fill="#FC78DF"/>
</g>
<g opacity="0.7" filter="url(#filter3_f_1_271)">
<circle cx="711.066" cy="72.1086" r="119.634" transform="rotate(60 711.066 72.1086)" fill="#F7C765"/>
</g>
</g>
<circle cx="582.235" cy="188.327" r="50.3964" fill="#ED970D"/>
<circle opacity="0.5" cx="582.236" cy="188.326" r="55.1817" stroke="#DFE1E4" stroke-width="1.24748"/>
<g filter="url(#filter4_d_1_271)">
<path fill-rule="evenodd" clip-rule="evenodd" d="M563.427 219.8C568.763 223.124 574.661 224.785 581.12 224.785C588.141 224.785 594.483 222.819 600.147 218.888C605.333 215.245 609.321 210.66 612.113 205.134C612.515 204.339 612.047 203.394 611.179 203.192L603.937 201.509C603.316 201.365 602.678 201.657 602.357 202.207C600.131 206.021 597.265 209.053 593.758 211.305C590.013 213.739 585.801 214.956 581.12 214.956C576.814 214.909 572.882 213.879 569.325 211.867C565.814 209.807 562.912 207.022 560.619 203.512C558.642 200.424 557.318 196.973 556.645 193.161C556.498 192.323 557.158 191.576 558.009 191.576H614.598C615.352 191.576 615.975 190.984 615.993 190.23C616.113 184.982 615.418 180.071 613.908 175.498C612.317 170.536 609.93 166.207 606.747 162.509C603.611 158.811 599.843 155.932 595.443 153.873C591.09 151.813 586.316 150.784 581.12 150.784C576.299 150.784 571.759 151.743 567.499 153.662C563.24 155.581 559.495 158.249 556.266 161.666C553.083 165.036 550.579 168.968 548.753 173.462C546.928 177.908 546.015 182.706 546.015 187.855C546.015 194.642 547.583 200.844 550.719 206.46C553.902 212.03 558.138 216.477 563.427 219.8ZM584.325 170.427C584.242 169.954 584.416 169.48 584.714 169.103C585.388 168.252 585.791 167.175 585.791 166.004C585.791 163.244 583.554 161.007 580.794 161.007C578.034 161.007 575.797 163.244 575.797 166.004C575.797 167.213 576.226 168.321 576.94 169.186C577.255 169.566 577.44 170.052 577.354 170.537L575.503 181.002C575.35 181.868 576.016 182.661 576.895 182.661H584.804C585.683 182.661 586.349 181.868 586.196 181.002L584.325 170.427Z" fill="#DFE1E4"/>
</g>
<path d="M65.3963 7.09112C69.748 2.56073 75.7584 0 82.0402 0H749.773C762.519 0 772.851 10.3326 772.851 23.0785V341.922C772.851 354.667 762.519 365 749.773 365H27.0785C14.3326 365 4 354.667 4 341.922V80.2974C4 74.3374 6.30577 68.6084 10.4345 64.3101L65.3963 7.09112Z" fill="url(#paint2_linear_1_271)"/>
</g>
<defs>
<filter id="filter0_f_1_271" x="308.919" y="-167.303" width="641.559" height="649.481" filterUnits="userSpaceOnUse" color-interpolation-filters="sRGB">
<feFlood flood-opacity="0" result="BackgroundImageFix"/>
<feBlend mode="normal" in="SourceGraphic" in2="BackgroundImageFix" result="shape"/>
<feGaussianBlur stdDeviation="59.8793" result="effect1_foregroundBlur_1_271"/>
</filter>
<filter id="filter1_f_1_271" x="359.623" y="87.0638" width="344.41" height="344.41" filterUnits="userSpaceOnUse" color-interpolation-filters="sRGB">
<feFlood flood-opacity="0" result="BackgroundImageFix"/>
<feBlend mode="normal" in="SourceGraphic" in2="BackgroundImageFix" result="shape"/>
<feGaussianBlur stdDeviation="34.5272" result="effect1_foregroundBlur_1_271"/>
</filter>
<filter id="filter2_f_1_271" x="384.313" y="-23.7942" width="304.867" height="351.902" filterUnits="userSpaceOnUse" color-interpolation-filters="sRGB">
<feFlood flood-opacity="0" result="BackgroundImageFix"/>
<feBlend mode="normal" in="SourceGraphic" in2="BackgroundImageFix" result="shape"/>
<feGaussianBlur stdDeviation="34.5272" result="effect1_foregroundBlur_1_271"/>
</filter>
<filter id="filter3_f_1_271" x="522.358" y="-116.599" width="377.416" height="377.416" filterUnits="userSpaceOnUse" color-interpolation-filters="sRGB">
<feFlood flood-opacity="0" result="BackgroundImageFix"/>
<feBlend mode="normal" in="SourceGraphic" in2="BackgroundImageFix" result="shape"/>
<feGaussianBlur stdDeviation="34.5272" result="effect1_foregroundBlur_1_271"/>
</filter>
<filter id="filter4_d_1_271" x="531.045" y="144.546" width="99.9307" height="103.941" filterUnits="userSpaceOnUse" color-interpolation-filters="sRGB">
<feFlood flood-opacity="0" result="BackgroundImageFix"/>
<feColorMatrix in="SourceAlpha" type="matrix" values="0 0 0 0 0 0 0 0 0 0 0 0 0 0 0 0 0 0 127 0" result="hardAlpha"/>
<feOffset dy="8.73239"/>
<feGaussianBlur stdDeviation="7.48491"/>
<feComposite in2="hardAlpha" operator="out"/>
<feColorMatrix type="matrix" values="0 0 0 0 0.00875 0 0 0 0 0.0595 0 0 0 0 0.51625 0 0 0 0.25 0"/>
<feBlend mode="normal" in2="BackgroundImageFix" result="effect1_dropShadow_1_271"/>
<feBlend mode="normal" in="SourceGraphic" in2="effect1_dropShadow_1_271" result="shape"/>
</filter>
<linearGradient id="paint0_linear_1_271" x1="310.535" y1="1.74673" x2="767.941" y2="361.137" gradientUnits="userSpaceOnUse">
<stop stop-color="#ED970D"/>
<stop offset="1" stop-color="#5FD1E9"/>
</linearGradient>
<linearGradient id="paint1_linear_1_271" x1="425.996" y1="338.772" x2="317.065" y2="349.486" gradientUnits="userSpaceOnUse">
<stop stop-color="white"/>
<stop offset="1" stop-color="white" stop-opacity="0"/>
</linearGradient>
<linearGradient id="paint2_linear_1_271" x1="4" y1="207.292" x2="498.904" y2="199.753" gradientUnits="userSpaceOnUse">
<stop offset="0.613305" stop-color="#1E2F43" stop-opacity="0.96"/>
<stop offset="1" stop-color="#1E2F43" stop-opacity="0"/>
</linearGradient>
</defs>
</svg>
