<svg width="161" height="70" viewBox="0 0 161 70" fill="none" xmlns="http://www.w3.org/2000/svg">
<path fill-rule="evenodd" clip-rule="evenodd" d="M35.2568 67.1551C35.5983 67.7442 35.1732 68.4819 34.4922 68.4819H29.2026C28.8875 68.4819 28.5962 68.3141 28.4381 68.0414L16.5742 47.5762C16.2667 47.0457 15.5255 46.982 15.1319 47.4523L7.03899 57.1234C6.90592 57.2824 6.833 57.4831 6.833 57.6905V67.5982C6.833 68.0863 6.43735 68.4819 5.94929 68.4819H1.34075C0.852684 68.4819 0.457031 68.0863 0.457031 67.5982V1.05168C0.457031 0.563621 0.852683 0.167969 1.34075 0.167969H5.94929C6.43735 0.167969 6.833 0.563621 6.833 1.05168V45.0114C6.833 45.8367 7.86379 46.2116 8.39395 45.5792L27.1078 23.2553C27.2757 23.055 27.5237 22.9393 27.7851 22.9393H33.8089C34.56 22.9393 34.9687 23.817 34.4851 24.3919L20.6676 40.818C20.4279 41.103 20.3925 41.5077 20.5793 41.83L35.2568 67.1551ZM46.0828 68.4819C45.5948 68.4819 45.1991 68.0863 45.1991 67.5982V1.05168C45.1991 0.563621 45.5948 0.167969 46.0828 0.167969H50.6914C51.1794 0.167969 51.5751 0.56362 51.5751 1.05168V67.5982C51.5751 68.0863 51.1794 68.4819 50.6914 68.4819H46.0828ZM70.7507 66.4325C74.2119 68.5882 78.0375 69.666 82.2274 69.666C86.7817 69.666 90.8957 68.3908 94.5695 65.8404C97.9443 63.4697 100.538 60.484 102.35 56.8833C102.6 56.3858 102.307 55.7947 101.765 55.6686L97.0035 54.5621C96.6151 54.4719 96.2161 54.6541 96.0156 54.9987C94.5702 57.4827 92.7067 59.4571 90.4251 60.9218C87.9961 62.5007 85.2636 63.2901 82.2274 63.2901C79.4341 63.2597 76.8837 62.5917 74.5762 61.2862C72.2991 59.9503 70.4167 58.1437 68.9289 55.8666C67.6406 53.8536 66.7794 51.6032 66.3452 49.1157C66.2537 48.5916 66.6667 48.1244 67.1988 48.1244H103.975C104.446 48.1244 104.836 47.7543 104.847 47.2831C104.929 43.8665 104.478 40.6705 103.496 37.6951C102.464 34.4767 100.915 31.6683 98.8505 29.2697C96.8162 26.8711 94.3721 25.0039 91.5181 23.668C88.6944 22.3321 85.5975 21.6641 82.2274 21.6641C79.1001 21.6641 76.155 22.2865 73.3921 23.5313C70.6292 24.7762 68.2003 26.5068 66.1053 28.7232C64.0407 30.9092 62.4164 33.4596 61.2322 36.3744C60.0481 39.2587 59.4561 42.3708 59.4561 45.7106C59.4561 50.1131 60.4732 54.136 62.5074 57.7794C64.572 61.3924 67.3198 64.2768 70.7507 66.4325ZM112.179 23.823C112.179 23.3349 112.574 22.9393 113.063 22.9393H117.671C118.159 22.9393 118.555 23.3349 118.555 23.823V67.5982C118.555 68.0863 118.159 68.4819 117.671 68.4819H113.063C112.574 68.4819 112.179 68.0863 112.179 67.5982V23.823ZM115.412 14.9693C114.38 14.9693 113.5 14.6353 112.771 13.9674C112.073 13.2691 111.723 12.4038 111.723 11.3715C111.723 10.3392 112.073 9.48903 112.771 8.82107C113.5 8.12275 114.38 7.77359 115.412 7.77359C116.414 7.77359 117.264 8.12275 117.963 8.82107C118.691 9.48903 119.056 10.3392 119.056 11.3715C119.056 12.4038 118.707 13.2691 118.008 13.9674C117.31 14.6353 116.445 14.9693 115.412 14.9693ZM135.954 67.9809C138.322 68.8311 140.751 69.2865 143.241 69.3472C146.216 69.4383 149.01 68.9525 151.621 67.8899C154.232 66.7968 156.357 65.2332 157.997 63.199C159.636 61.1647 160.456 58.7813 160.456 56.0488C160.486 53.4984 159.758 51.3882 158.27 49.7183C156.782 48.0485 154.824 46.6518 152.395 45.5284C149.966 44.405 147.37 43.4031 144.607 42.5226C142.452 41.8243 140.508 41.2171 138.778 40.7009C137.078 40.1544 135.726 39.4561 134.725 38.606C133.723 37.7255 133.222 36.4503 133.222 34.7804C133.222 33.1105 133.723 31.6987 134.725 30.5449C135.757 29.3912 137.108 28.5258 138.778 27.949C140.448 27.3417 142.254 27.0533 144.197 27.0837C145.746 27.114 147.264 27.3873 148.752 27.9034C150.27 28.4196 151.621 29.1331 152.805 30.0439C153.699 30.7315 154.411 31.5142 154.941 32.3921C155.216 32.8461 155.803 33.039 156.259 32.7684L159.833 30.6495C160.235 30.4115 160.384 29.9007 160.147 29.4991C158.764 27.1633 156.681 25.2651 153.898 23.8046C150.862 22.1954 147.492 21.3908 143.788 21.3908C140.903 21.3908 138.186 21.9525 135.635 23.0759C133.115 24.1689 131.066 25.7326 129.487 27.7668C127.939 29.7707 127.164 32.1541 127.164 34.917C127.164 37.5281 127.848 39.6686 129.214 41.3385C130.611 42.978 132.538 44.3291 134.998 45.3918C137.457 46.4545 140.296 47.426 143.514 48.3065C145.275 48.8227 146.991 49.3692 148.661 49.9461C150.33 50.4926 151.712 51.2516 152.805 52.2232C153.898 53.1644 154.444 54.47 154.444 56.1399C154.444 57.6883 153.928 59.0394 152.896 60.1932C151.894 61.3165 150.589 62.1819 148.979 62.7891C147.37 63.3963 145.64 63.6999 143.788 63.6999C142.118 63.6999 140.433 63.4115 138.732 62.8346C137.032 62.2274 135.514 61.438 134.178 60.4664C133.173 59.6951 132.411 58.8698 131.892 57.9906C131.641 57.5654 131.119 57.3471 130.666 57.5421L126.779 59.2125C126.336 59.4029 126.124 59.9152 126.341 60.3459C127.114 61.8816 128.254 63.2729 129.76 64.5197C131.521 65.9771 133.586 67.1308 135.954 67.9809ZM84.3009 34.3889C84.2486 34.0931 84.3571 33.7964 84.545 33.562C84.9895 33.0071 85.2554 32.3029 85.2554 31.5367C85.2554 29.7465 83.8042 28.2952 82.0139 28.2952C80.2237 28.2952 78.7725 29.7465 78.7725 31.5367C78.7725 32.3272 79.0555 33.0517 79.5257 33.6143C79.7234 33.8508 79.839 34.1547 79.7853 34.4582L78.5743 41.3042C78.4786 41.8454 78.8949 42.3418 79.4445 42.3418H84.654C85.2037 42.3418 85.62 41.8454 85.5242 41.3042L84.3009 34.3889Z" fill="url(#paint0_linear_407_383)"/>
<defs>
<linearGradient id="paint0_linear_407_383" x1="55.0539" y1="-29.168" x2="221.763" y2="77.2364" gradientUnits="userSpaceOnUse">
<stop stop-color="#F3AF39"/>
<stop offset="1" stop-color="#C8933B"/>
</linearGradient>
</defs>
</svg>
