<svg width="159" height="176" viewBox="0 0 159 176" fill="none" xmlns="http://www.w3.org/2000/svg">
<path d="M137.686 25.0977C150.997 39.2822 158.405 58.0037 158.405 77.4554L158.405 141.604C158.405 160.382 143.183 175.604 124.405 175.604L67.7278 175.604C47.7123 175.604 28.7276 166.728 15.8935 151.369V151.369C5.74139 139.219 0.179713 123.889 0.179713 108.056L0.179717 34.9404C0.179717 16.1627 15.402 0.940423 34.1797 0.940424L81.89 0.940426C103.027 0.940427 123.222 9.68415 137.686 25.0977V25.0977Z" fill="#ED970D"/>
<mask id="mask0_1_336" style="mask-type:alpha" maskUnits="userSpaceOnUse" x="0" y="0" width="159" height="176">
<path d="M137.686 25.0977C150.996 39.2822 158.405 58.0037 158.405 77.4554L158.405 141.604C158.405 160.382 143.183 175.604 124.405 175.604L67.7278 175.604C47.7123 175.604 28.7275 166.728 15.8935 151.369V151.369C5.74136 139.219 0.179682 123.889 0.179683 108.056L0.179686 34.9404C0.179687 16.1627 15.402 0.940423 34.1797 0.940424L81.8899 0.940426C103.027 0.940427 123.222 9.68415 137.686 25.0977V25.0977Z" fill="#6E1552"/>
</mask>
<g mask="url(#mask0_1_336)">
<path d="M752.176 -592.458L708.516 -548.799M708.516 -548.799L752.176 -505.139M708.516 -548.799L664.857 -505.139L577.538 -592.458M708.516 -417.82L752.176 -461.48L708.516 -505.139L664.857 -461.48M708.516 -417.82L752.176 -374.161L708.516 -330.501M708.516 -417.82L664.857 -461.48M708.516 -417.82L664.857 -374.161M708.516 -330.501L752.176 -286.842L708.516 -243.182M708.516 -330.501L664.857 -374.161M708.516 -330.501L664.857 -286.842M752.176 -243.182L708.516 -199.523L664.857 -243.182L708.516 -286.842M752.176 -199.523L708.516 -155.863M708.516 -155.863L752.176 -112.204M708.516 -155.863L621.197 -243.182L664.857 -286.842M708.516 -112.204L752.176 -68.5444L708.516 -24.885M708.516 -112.204L664.857 -155.863M708.516 -112.204L664.857 -68.5444M752.176 -24.8849L708.516 18.7745M708.516 18.7745L752.176 62.434L708.516 106.093M708.516 18.7745L664.857 -24.885M708.516 106.093L752.176 149.753L708.516 193.412M708.516 106.093L664.857 62.434M708.516 193.412L752.176 237.072M708.516 193.412L664.857 149.753M708.516 193.412L664.857 237.072M752.176 280.731L708.516 237.072L621.197 324.391M752.176 368.05L664.857 455.369L577.538 368.05L621.197 324.391M752.176 411.71L664.857 499.029M752.176 455.369L708.516 499.029L752.176 542.688L708.516 586.348M708.516 586.348L752.176 630.007L708.516 673.666L752.176 717.326M708.516 586.348L664.857 542.688M708.516 586.348L664.857 630.007M752.176 760.985L708.516 717.326M708.516 717.326L664.857 673.666L708.516 630.007M708.516 717.326L664.857 760.985L621.197 717.326L577.538 760.985M752.176 804.645L708.516 760.985L664.857 804.645L621.197 760.985M752.176 848.304L708.516 804.645L664.857 848.304M752.176 891.964L708.516 848.304M708.516 891.964L752.176 935.623L708.516 979.283M708.516 891.964L664.857 848.304M708.516 891.964L664.857 935.623M708.516 979.283L752.176 1022.94M708.516 979.283L664.857 935.623M708.516 1110.26L752.176 1066.6L664.857 979.283M708.516 1110.26L752.176 1153.92L708.516 1197.58L664.857 1153.92M708.516 1110.26L664.857 1066.6M752.176 1197.58L708.516 1241.24L621.197 1153.92M708.516 -592.458L664.857 -548.799L621.197 -592.458M664.857 -461.48L533.878 -592.458M664.857 -374.161L621.197 -330.501L664.857 -286.842M664.857 -155.863L621.197 -112.204M664.857 -155.863L577.538 -243.182M708.516 -68.5444L664.857 -24.885M664.857 -24.885L621.197 -68.5444M664.857 -24.885L621.197 18.7745M708.516 62.434L664.857 18.7745L621.197 62.434L708.516 149.753M664.857 149.753L621.197 193.412M664.857 149.753L577.538 62.434M664.857 237.072L621.197 193.412M664.857 237.072L621.197 280.731L577.538 237.072M664.857 324.391L708.516 280.731L752.176 324.391L664.857 411.71L621.197 368.05M708.516 324.391L664.857 368.05L621.197 324.391M664.857 499.029L708.516 542.688M664.857 499.029L577.538 411.71M664.857 542.688L621.197 499.029M664.857 542.688L621.197 586.348L664.857 630.007M664.857 630.007L621.197 673.666M664.857 848.304L621.197 804.645M664.857 935.623L577.538 848.304L621.197 804.645M664.857 979.283L621.197 1022.94M664.857 979.283L577.538 891.964M708.516 1066.6L664.857 1022.94M664.857 1066.6L621.197 1022.94M664.857 1066.6L621.197 1110.26M708.516 1153.92L664.857 1110.26L621.197 1153.92M621.197 -461.48L664.857 -417.82L621.197 -374.161M621.197 -461.48L577.538 -505.139M621.197 -461.48L577.538 -417.82M621.197 -374.161L577.538 -417.82M621.197 -374.161L577.538 -330.501L621.197 -286.842L577.538 -243.182M664.857 -112.204L621.197 -68.5444M621.197 -68.5444L577.538 -112.204M621.197 18.7745L577.538 62.434M621.197 18.7745L533.878 -68.5444L577.538 -112.204M621.197 193.412L577.538 237.072M621.197 324.391L577.538 280.731M621.197 499.029L577.538 455.369M621.197 499.029L577.538 542.688L446.559 411.71L402.9 455.369M621.197 673.666L664.857 717.326M621.197 673.666L577.538 717.326L533.878 673.666M621.197 804.645L577.538 760.985M664.857 891.964L621.197 848.304M621.197 1022.94L577.538 1066.6M621.197 1153.92L577.538 1110.26L621.197 1066.6M664.857 1241.24L577.538 1153.92M577.538 -505.139L533.878 -461.48M577.538 -505.139L490.219 -592.458M577.538 -417.82L533.878 -461.48M577.538 -243.182L533.878 -199.523M577.538 -199.523L621.197 -155.863L577.538 -112.204M577.538 -112.204L533.878 -155.863L490.219 -112.204M621.197 -24.885L577.538 -68.5444M577.538 62.434L533.878 18.7745L490.219 62.4339M577.538 237.072L533.878 193.412L490.219 237.072M577.538 237.072L533.878 280.731M577.538 411.71L533.878 368.05M577.538 411.71L533.878 455.369M621.197 542.688L577.538 586.348M577.538 586.348L621.197 630.007L577.538 673.666L533.878 630.007M577.538 586.348L446.559 455.369M577.538 760.985L533.878 804.645L490.219 760.985M577.538 760.985L490.219 673.666M577.538 891.964L533.878 848.304M577.538 891.964L533.878 935.623L577.538 979.283M577.538 935.623L621.197 979.283L577.538 1022.94L490.219 935.623M577.538 1066.6L533.878 1110.26M577.538 1066.6L446.559 935.623M577.538 1153.92L533.878 1110.26M577.538 1153.92L533.878 1197.58M621.197 1241.24L577.538 1197.58M533.878 -461.48L402.9 -592.458L359.241 -548.799M533.878 -417.82L577.538 -374.161L533.878 -330.501M533.878 -417.82L490.219 -374.161M533.878 -417.82L402.9 -548.799M533.878 -330.501L577.538 -286.842L533.878 -243.182M533.878 -330.501L490.219 -374.161M533.878 -199.523L577.538 -155.863M533.878 -199.523L490.219 -243.182M533.878 -199.523L490.219 -155.863M577.538 18.7745L533.878 -24.885M533.878 -24.885L490.219 -68.5444M533.878 -24.885L490.219 18.7745M577.538 149.753L533.878 106.093M533.878 149.753L577.538 193.412L621.197 149.753L533.878 62.434L490.219 106.093M533.878 149.753L490.219 106.093M533.878 149.753L490.219 193.412L446.56 149.753M533.878 280.731L577.538 324.391L533.878 368.05M533.878 280.731L490.219 237.072M533.878 368.05L446.56 280.731M533.878 455.369L577.538 499.029M533.878 455.369L446.559 368.05M577.538 630.007L402.9 455.369M533.878 630.007L490.219 586.348M533.878 630.007L490.219 673.666M577.538 804.645L533.878 848.304M533.878 848.304L446.559 760.985M533.878 1110.26L490.219 1066.6M533.878 1197.58L577.538 1241.24M533.878 1197.58L490.219 1241.24L402.9 1153.92M533.878 1197.58L446.559 1110.26M533.878 -505.139L446.56 -592.458M490.219 -374.161L446.56 -330.501M490.219 -330.501L533.878 -286.842L490.219 -243.182M490.219 -243.182L446.56 -286.842M490.219 -243.182L446.56 -199.523L490.219 -155.863M490.219 -155.863L446.56 -112.204M533.878 -112.204L490.219 -68.5444M490.219 -68.5444L446.56 -112.204M490.219 18.7745L446.56 62.4339M490.219 18.7745L359.241 -112.204M490.219 106.093L446.56 62.4339M490.219 106.093L446.56 149.753M490.219 237.072L446.56 193.412M533.878 324.391L402.9 193.412M533.878 411.71L446.559 324.391M490.219 586.348L446.559 630.007M490.219 586.348L359.241 455.369M490.219 673.666L446.559 630.007M490.219 673.666L446.559 717.326L359.241 630.007M533.878 760.985L490.219 717.326L446.559 760.985M490.219 848.304L533.878 891.964L490.219 935.623M490.219 848.304L446.559 891.964M490.219 848.304L359.241 717.326M490.219 935.623L446.559 891.964M533.878 1066.6L402.9 935.623M490.219 1066.6L446.559 1110.26M490.219 1066.6L402.9 979.283M533.878 1153.92L490.219 1110.26M446.56 -461.48L490.219 -417.82L446.56 -374.161M446.56 -461.48L402.9 -505.139M446.56 -461.48L402.9 -417.82L359.241 -461.48M446.56 -330.501L490.219 -286.842M446.56 -330.501L402.9 -374.161M446.56 -286.842L402.9 -330.501M446.56 -286.842L402.9 -243.182M446.56 -112.204L359.241 -199.523L402.9 -243.182M490.219 -24.885L315.581 -199.523M446.56 62.4339L402.9 18.7745M446.56 149.753L402.9 106.093L359.241 149.753M446.56 149.753L402.9 193.412M446.56 280.731L402.9 237.072L359.241 280.731M446.56 280.731L402.9 324.391L446.559 368.05M446.559 368.05L402.9 411.71L315.581 324.391M446.559 630.007L315.581 499.029M446.559 760.985L359.241 673.666M446.559 891.964L402.9 935.623M446.559 891.964L315.581 760.985M446.559 1110.26L315.581 979.283L271.922 1022.94M490.219 1197.58L402.9 1110.26M402.9 -505.139L359.241 -548.799M402.9 -505.139L359.241 -461.48M446.56 -417.82L402.9 -374.161M402.9 -374.161L359.241 -417.82M402.9 -330.501L359.241 -286.842L402.9 -243.182M402.9 -330.501L315.581 -417.82M446.56 -243.182L402.9 -199.523L446.56 -155.863M446.56 18.7745L359.241 -68.5445M402.9 18.7745L359.241 62.4339M402.9 18.7745L315.581 -68.5445M446.56 106.093L402.9 62.4339L359.241 106.093L315.581 62.4339M402.9 193.412L359.241 237.072M402.9 455.369L315.581 368.05M446.559 586.348L359.241 499.029M446.559 673.666L359.241 586.348M446.559 848.304L359.241 760.985M402.9 935.623L359.241 979.283M446.559 1066.6L359.241 979.283M402.9 1110.26L359.241 1066.6M402.9 1110.26L359.241 1153.92M446.559 1241.24L359.241 1153.92M359.241 -548.799L315.581 -592.458M359.241 -548.799L315.581 -505.139M359.241 -461.48L315.581 -417.82M359.241 -112.204L315.581 -155.863M359.241 -112.204L315.581 -68.5445M359.241 149.753L315.581 106.093M359.241 149.753L315.581 193.412M402.9 149.753L315.581 237.072M359.241 280.731L315.581 237.072M359.241 280.731L315.581 324.391M402.9 280.731L359.241 324.391L402.9 368.05M359.241 455.369L315.581 499.029M359.241 455.369L271.922 368.05L315.581 324.391M359.241 717.326L337.181 695.266M359.241 717.326L315.581 760.985M359.241 979.283L315.581 935.623M359.241 1066.6L315.581 1022.94M359.241 1066.6L315.581 1110.26M359.241 1153.92L315.581 1197.58M402.9 1241.24L359.241 1197.58M359.241 -505.139L315.581 -461.48M315.581 -461.48L271.922 -505.139M315.581 -461.48L271.922 -417.82L228.262 -461.48L184.603 -417.82M315.581 -417.82L271.922 -374.161M315.581 -374.161L359.241 -330.501L315.581 -286.842M315.581 -286.842L359.241 -243.182L315.581 -199.523M315.581 -286.842L271.922 -243.182M315.581 -199.523L271.922 -155.863L315.581 -112.204L271.922 -68.5445M315.581 -68.5445L271.922 -24.885M315.581 -24.885L359.241 18.7745L315.581 62.4339M315.581 62.4339L271.922 106.093M315.581 193.412L271.922 149.753M315.581 193.412L271.922 237.072L228.262 193.412L271.922 149.753M315.581 237.072L271.922 280.731M315.581 499.029L228.262 411.71M315.581 760.985L271.922 717.326M315.581 804.645L271.922 848.304L228.262 804.645M315.581 804.645L402.9 891.964L359.241 935.623L315.581 891.964M315.581 804.645L97.2838 586.348L53.6243 630.007M359.241 891.964L315.581 848.304L271.922 891.964M315.581 935.623L271.922 891.964M315.581 935.623L271.922 979.283M359.241 1110.26L315.581 1153.92M315.581 1153.92L271.922 1110.26M315.581 1153.92L271.922 1197.58M315.581 1197.58L359.241 1241.24M315.581 1197.58L271.922 1241.24L228.262 1197.58M271.922 -592.458L315.581 -548.799L271.922 -505.139M271.922 -505.139L184.603 -592.458M271.922 -374.161L315.581 -330.501L271.922 -286.842M271.922 -374.161L228.262 -417.82M271.922 -374.161L228.262 -330.501M271.922 -243.182L228.262 -286.842M271.922 -243.182L228.262 -199.523M315.581 -243.182L228.262 -155.863M271.922 -24.885L315.581 18.7745L271.922 62.4339L228.262 18.7745M271.922 -24.885L228.262 -68.5445M271.922 106.093L315.581 149.753M271.922 106.093L184.603 18.7745L228.262 -24.885M271.922 149.753L228.262 106.093M271.922 280.731L228.262 324.391L184.603 280.731M271.922 280.731L184.603 193.412M315.581 280.731L228.262 368.05M315.581 455.369L228.262 368.05M271.922 891.964L228.262 848.304M271.922 1022.94L315.581 1066.6L271.922 1110.26M271.922 1022.94L228.262 979.283M271.922 1110.26L228.262 1066.6L184.603 1110.26M271.922 -548.799L228.262 -592.458M271.922 -461.48L228.262 -505.139M228.262 -505.139L184.603 -461.48L53.6243 -592.458M228.262 -505.139L140.943 -592.458M228.262 -330.501L184.603 -374.161M228.262 -330.501L184.603 -286.842M271.922 -330.501L228.262 -286.842M228.262 -286.842L184.603 -243.182M228.262 -155.863L271.922 -112.204L228.262 -68.5445M228.262 -155.863L184.603 -199.523L228.262 -243.182M228.262 -68.5445L97.2838 -199.523M271.922 18.7745L228.262 -24.885M228.262 -24.885L97.2838 -155.863M228.262 106.093L184.603 149.753L75.2838 40.4339M228.262 106.093L140.943 18.7745L184.603 -24.885L140.943 -68.5445M228.262 368.05L184.603 324.391L97.2838 411.71M228.262 368.05L184.603 411.71M271.922 499.029L184.603 411.71M271.922 804.645L228.262 760.985M228.262 760.985L184.603 804.645M228.262 760.985L140.943 673.666M228.262 848.304L184.603 804.645M228.262 848.304L184.603 891.964M228.262 891.964L271.922 935.623L228.262 979.283M228.262 979.283L140.943 891.964M271.922 1066.6L228.262 1022.94M228.262 1022.94L184.603 1066.6L140.943 1022.94L97.2837 1066.6M228.262 1022.94L140.943 935.623M228.262 1110.26L271.922 1153.92L228.262 1197.58M228.262 1197.58L184.603 1241.24L140.943 1197.58M184.603 -417.82L228.262 -374.161M184.603 -417.82L53.6243 -548.799M184.603 -374.161L53.6243 -505.139M184.603 -374.161L97.2838 -286.842M184.603 -243.182L140.943 -286.842L184.603 -330.501M184.603 -243.182L140.943 -199.523L228.262 -112.204M228.262 149.753L184.603 193.412M184.603 193.412L140.943 149.753L97.2838 193.412L53.6243 149.753M184.603 193.412L140.943 237.072L184.603 280.731M228.262 280.731L184.603 237.072M184.603 280.731L97.2838 368.05M184.603 411.71L140.943 455.369M228.262 499.029L184.603 455.369L140.943 499.029M184.603 804.645L140.943 848.304L184.603 891.964M184.603 891.964L228.262 935.623M184.603 1110.26L228.262 1153.92L184.603 1197.58M184.603 1110.26L140.943 1066.6M184.603 1110.26L140.943 1153.92L53.6243 1066.6M184.603 -505.139L97.2838 -592.458M140.943 -68.5445L53.6243 -155.863M140.943 -68.5445L53.6243 18.7745M184.603 106.093L97.2838 18.7745L140.943 -24.885M184.603 368.05L140.943 411.71M140.943 455.369L97.2838 411.71M140.943 455.369L53.6243 542.688M140.943 499.029L184.603 542.688M140.943 499.029L97.2838 542.688M140.943 673.666L97.2838 630.007M140.943 673.666L97.2838 717.326M140.943 717.326L184.603 760.985L140.943 804.645M140.943 804.645L97.2838 760.985M140.943 804.645L97.2838 848.304M140.943 891.964L97.2838 848.304M140.943 891.964L97.2837 935.623M184.603 1022.94L140.943 979.283M140.943 979.283L97.2837 935.623M140.943 979.283L97.2837 1022.94L53.6243 979.283M184.603 1153.92L140.943 1197.58M140.943 1197.58L97.2837 1241.24L53.6243 1197.58M140.943 1197.58L53.6243 1110.26M97.2838 -286.842L140.943 -243.182L97.2838 -199.523M97.2838 -286.842L9.96483 -374.161M97.2838 -199.523L53.6243 -155.863M75.2838 40.4339L53.6243 18.7745M75.2838 40.4339L31.6243 84.0934M140.943 193.412L97.2838 237.072M97.2838 237.072L140.943 280.731L53.6243 368.05M97.2838 237.072L53.6243 193.412M97.2838 237.072L53.6243 280.731L9.96481 237.072M97.2838 411.71L53.6243 368.05M97.2838 542.688L140.943 586.348M97.2838 542.688L53.6243 586.348M97.2838 717.326L140.943 760.985M97.2838 717.326L53.6243 760.985M97.2838 848.304L53.6243 804.645M97.2837 935.623L9.96478 848.304M97.2837 1066.6L140.943 1110.26M97.2837 1066.6L53.6243 1022.94M53.6243 -548.799L9.96484 -592.458M53.6243 -548.799L9.96484 -505.139M97.2838 -374.161L-33.6946 -505.139M53.6243 -286.842L97.2838 -243.182L9.96482 -155.863M53.6243 -286.842L9.96483 -330.501M53.6243 -286.842L-77.3541 -155.863M53.6243 -155.863L9.96482 -112.204M53.6243 -24.885L97.2838 -68.5445L53.6243 -112.204L9.96482 -68.5445M53.6243 18.7745L9.96482 -24.885M31.6243 84.0934L97.2838 149.753M31.6243 84.0934L-33.6946 18.7744M53.6243 149.753L9.96481 193.412M53.6243 149.753L-33.6946 62.4339M97.2838 280.731L53.6243 324.391M53.6243 324.391L9.9648 368.05L-33.6946 324.391M53.6243 324.391L-33.6946 237.072M53.6243 368.05L9.9648 411.71M53.6243 411.71L97.2838 455.369L53.6243 499.029L9.9648 455.369M53.6243 542.688L9.9648 499.029M53.6243 542.688L9.96479 586.348M53.6243 630.007L97.2838 673.666L53.6243 717.326M53.6243 630.007L9.96479 586.348M53.6243 630.007L9.96479 673.666M53.6243 760.985L97.2838 804.645M53.6243 760.985L9.96479 717.326M53.6243 760.985L9.96478 804.645M97.2837 891.964L9.96478 804.645M97.2837 979.283L53.6243 935.623M53.6243 935.623L9.96478 891.964L-33.6946 935.623L9.96478 979.283M53.6243 935.623L9.96478 979.283M53.6243 1022.94L9.96478 979.283M53.6243 1022.94L9.96477 1066.6L53.6243 1110.26M53.6243 1110.26L9.96477 1153.92M97.2837 1197.58L53.6243 1153.92M53.6243 1197.58L9.96477 1153.92M53.6243 1197.58L9.96476 1241.24L-33.6947 1197.58M9.96484 -505.139L-33.6946 -548.799M9.96484 -505.139L140.943 -374.161L97.2838 -330.501L9.96484 -417.82M9.96484 -417.82L-33.6946 -461.48M9.96484 -417.82L-33.6946 -374.161L9.96483 -330.501M9.96483 -330.501L-33.6946 -286.842L-77.3541 -330.501L-121.014 -286.842L-251.992 -417.82L-208.332 -461.48M53.6243 -243.182L-33.6946 -155.863M9.96482 -112.204L-33.6946 -155.863M9.96482 -112.204L-33.6946 -68.5445M53.6243 -68.5445L9.96482 -24.885M9.96482 -24.885L-33.6946 -68.5445M53.6243 62.4339L-33.6946 -24.885M9.96481 193.412L53.6243 237.072M9.96481 193.412L-33.6946 149.753M9.96481 193.412L-33.6946 237.072M9.9648 411.71L53.6243 455.369M9.9648 411.71L-33.6946 368.05M9.9648 411.71L-33.6946 455.369L9.9648 499.029M9.9648 499.029L-33.6946 542.688M9.96479 586.348L-33.6946 630.007M9.96479 673.666L-33.6946 630.007M9.96479 673.666L-77.3541 760.985L-33.6946 804.645M53.6243 673.666L9.96479 717.326M9.96479 717.326L-33.6946 760.985L9.96478 804.645M9.96478 848.304L-33.6946 804.645M9.96478 848.304L-33.6946 891.964M9.96477 1153.92L-33.6947 1110.26M9.96477 1153.92L-33.6947 1197.58M9.9649 -548.799L-33.6946 -592.458M-33.6946 -548.799L-77.3541 -592.458M-33.6946 -548.799L-77.3541 -505.139L-33.6946 -461.48M-33.6946 -461.48L-77.3541 -417.82M9.96489 -286.842L-33.6946 -243.182M-33.6946 -243.182L-77.3541 -286.842L-121.014 -243.182M-33.6946 -243.182L-77.3541 -199.523L-121.014 -243.182M-33.6946 -155.863L-77.3541 -112.204L-33.6946 -68.5445M-33.6946 -68.5445L-77.3541 -24.885M-33.6946 18.7744L-77.3541 -24.885M-33.6946 18.7744L-77.3541 62.4339L-33.6946 106.093M9.96487 149.753L-33.6946 106.093M-33.6946 106.093L-77.3541 149.753M-33.6946 237.072L-77.3541 193.412M-33.6946 237.072L-77.3541 280.731L-121.014 237.072M9.96486 324.391L-33.6946 280.731L-77.3541 324.391M-33.6946 368.05L-77.3541 324.391M-33.6946 368.05L-77.3541 411.71M9.96486 542.688L-33.6946 586.347M-33.6946 586.347L-77.3541 542.688M-33.6946 586.347L-77.3541 630.007M-33.6946 630.007L-121.014 717.326M-33.6946 804.645L-77.3541 848.304M-33.6946 891.964L-77.3541 848.304M-33.6946 891.964L-77.3541 935.623L-33.6946 979.283M-33.6946 979.283L9.96483 1022.94L-33.6947 1066.6L9.96483 1110.26M-33.6946 979.283L-121.014 1066.6L-164.673 1022.94L-121.014 979.283L-164.673 935.623M-33.6947 1110.26L-77.3541 1066.6M-33.6947 1110.26L-77.3541 1153.92L-33.6947 1197.58M-33.6947 1197.58L-77.3541 1241.24M-33.6946 -417.82L-77.3541 -374.161M-77.3541 -374.161L-33.6946 -330.501M-77.3541 -374.161L-121.014 -417.82L-77.3541 -461.48L-121.014 -505.139L-77.3541 -548.799L-121.014 -592.458M-77.3541 -374.161L-121.014 -330.501L-208.332 -417.82L-164.673 -461.48L-208.332 -505.139M-77.3541 -155.863L-121.014 -199.523M-77.3541 -155.863L-121.014 -112.204M-77.3541 -24.885L-121.014 18.7745L-164.673 -24.885M-77.3541 149.753L-33.6946 193.412M-77.3541 149.753L-121.014 106.093M-77.3541 149.753L-121.014 193.412M-77.3541 324.391L-121.014 280.731M-33.6946 411.71L-77.3541 455.369M-77.3541 455.369L-33.6946 499.029L-77.3541 542.688M-77.3541 455.369L-121.014 411.71L-77.3541 368.05L-121.014 324.391M-77.3541 455.369L-121.014 499.029M-77.3541 542.688L-121.014 499.029M-77.3541 630.007L-164.673 542.688M-77.3541 630.007L-164.673 717.326L-121.014 760.985M-33.6946 673.666L-121.014 760.985M-77.3541 848.304L-121.014 804.645M-77.3541 848.304L-121.014 891.964M-33.6947 1022.94L-77.3541 1066.6M-77.3541 1066.6L-121.014 1110.26L-208.333 1022.94L-164.673 979.283M-121.014 -243.182L-208.332 -330.501M-121.014 -199.523L-164.673 -155.863M-121.014 -199.523L-208.332 -286.842M-121.014 -112.204L-77.3541 -68.5445L-121.014 -24.885L-142.843 -46.7148M-121.014 -112.204L-164.673 -68.5445M-77.3541 18.7744L-121.014 62.4339M-121.014 62.4339L-77.3541 106.093M-121.014 62.4339L-164.673 18.7744M-121.014 106.093L-164.673 62.4339L-208.332 106.093M-121.014 106.093L-164.673 149.753L-121.014 193.412M-121.014 193.412L-77.3541 237.072M-121.014 193.412L-164.673 237.072L-121.014 280.731M-121.014 280.731L-164.673 324.391M-121.014 499.029L-164.673 542.688M-121.014 499.029L-208.333 411.71M-77.3541 586.347L-121.014 542.688M-121.014 760.985L-77.3541 804.645M-121.014 804.645L-164.673 760.985M-121.014 804.645L-164.673 848.304M-121.014 891.964L-164.673 848.304M-121.014 891.964L-164.673 935.623M-77.3541 891.964L-121.014 935.623L-77.3541 979.283L-121.014 1022.94M-77.3541 1110.26L-121.014 1153.92M-121.014 1153.92L-77.3541 1197.58L-121.014 1241.24L-164.673 1197.58M-121.014 1153.92L-164.673 1197.58M-121.014 1153.92L-208.333 1066.6M-121.013 -374.161L-164.673 -417.82L-121.013 -461.48L-164.673 -505.139L-121.013 -548.799L-164.673 -592.458L-208.332 -548.799M-164.673 -155.863L-208.332 -199.523L-251.992 -155.863L-295.651 -199.523M-164.673 -155.863L-208.332 -112.204L-164.673 -68.5445M-121.014 -155.863L-164.673 -112.204M-164.673 -68.5445L-208.332 -24.885M-164.673 18.7744L-208.332 -24.885M-164.673 18.7744L-208.332 62.4339M-164.673 324.391L-121.014 368.05L-164.673 411.71L-121.014 455.369M-164.673 324.391L-208.332 280.731M-164.673 542.688L-208.333 499.029M-164.673 586.347L-121.014 630.007L-164.673 673.666M-164.673 586.347L-208.333 542.688L-251.992 586.347M-164.673 586.347L-208.333 630.007M-164.673 673.666L-208.333 630.007M-164.673 673.666L-208.333 717.326L-164.673 760.985M-164.673 760.985L-208.333 804.645M-164.673 848.304L-208.333 804.645M-164.673 935.623L-208.333 979.283M-164.673 1197.58L-208.333 1241.24M-208.332 -548.799L-251.992 -592.458M-208.332 -548.799L-251.992 -505.139M-164.673 -548.799L-208.332 -505.139M-208.332 -505.139L-251.992 -461.48M-208.332 -330.501L-251.992 -374.161M-208.332 -330.501L-251.992 -286.842M-164.673 -199.523L-208.332 -243.182M-208.332 -243.182L-251.992 -286.842M-208.332 -243.182L-251.992 -199.523L-295.651 -243.182L-251.992 -286.842M-208.332 -24.885L-251.992 18.7745M-208.332 62.4339L-251.992 18.7745M-208.332 62.4339L-251.992 106.093M-164.673 106.093L-208.332 149.753M-208.332 149.753L-164.673 193.412L-208.332 237.072M-208.332 149.753L-251.992 106.093M-208.332 149.753L-251.992 193.412M-208.332 237.072L-164.673 280.731M-208.332 237.072L-251.992 280.731M-208.333 411.71L-164.673 368.05L-251.992 280.731M-208.333 411.71L-251.992 455.369L-208.333 499.029M-208.333 411.71L-295.651 324.391M-164.673 499.029L-208.333 455.369M-208.333 499.029L-251.992 542.688M-208.333 630.007L-251.992 586.347M-208.333 804.645L-251.992 848.304M-208.333 935.623L-164.673 891.964L-208.333 848.304L-251.992 891.964L-295.651 848.304L-208.333 760.985L-251.992 717.326L-208.333 673.666L-251.992 630.007M-208.333 979.283L-251.992 935.623M-208.333 979.283L-251.992 1022.94L-208.333 1066.6M-208.333 1066.6L-251.992 1110.26M-208.333 1197.58L-164.673 1153.92L-208.333 1110.26L-251.992 1153.92M-208.333 1197.58L-251.992 1153.92M-208.333 1197.58L-251.992 1241.24M-251.992 -461.48L-295.651 -505.139L-251.992 -548.799L-295.651 -592.458M-251.992 -461.48L-295.651 -417.82L-251.992 -374.161M-251.992 -374.161L-295.651 -330.501L-251.992 -286.842M-208.332 -155.863L-251.992 -112.204M-251.992 -112.204L-208.332 -68.5445L-251.992 -24.885M-251.992 -112.204L-295.651 -155.863M-251.992 -112.204L-295.651 -68.5445M-251.992 18.7745L-295.651 -24.885L-251.992 -68.5445M-251.992 18.7745L-295.651 62.4339M-251.992 106.093L-295.651 149.753L-251.992 193.412M-251.992 193.412L-295.651 237.072L-251.992 280.731M-208.332 193.412L-251.992 237.072M-208.333 368.05L-295.651 280.731M-251.992 586.347L-295.651 542.688L-251.992 499.029L-295.651 455.369L-251.992 411.71L-295.651 368.05M-251.992 630.007L-295.651 586.347M-251.992 630.007L-295.651 673.666M-208.333 891.964L-251.992 935.623M-251.992 935.623L-295.651 891.964M-251.992 1153.92L-295.651 1110.26L-251.992 1066.6L-295.651 1022.94L-251.992 979.283L-295.651 935.623M-251.992 62.4339L-295.651 106.093M-251.992 673.666L-295.651 717.326L-251.992 760.985L-295.651 804.645M-295.651 1153.92L-251.992 1197.58L-295.651 1241.24" stroke="white" stroke-opacity="0.3" stroke-width="2" stroke-linecap="round"/>
</g>
<path d="M58.6486 78.9106V89.7125C58.6337 94.0787 59.8427 98.3619 62.1381 102.076C64.4335 105.79 67.724 108.787 71.6359 110.727L77.7008 113.76V113.76C79.0184 114.414 80.5669 114.414 81.8845 113.76L87.9518 110.726V110.727C91.8638 108.787 95.1534 105.79 97.4488 102.076C99.7442 98.3616 100.953 94.0788 100.938 89.7121V78.9102C100.94 77.8204 100.56 76.7639 99.8633 75.9253C99.1671 75.0871 98.1988 74.5192 97.127 74.3213C94.6999 73.8749 92.3148 73.2255 89.9962 72.3803C87.2984 71.3959 84.7041 70.1487 82.2506 68.6565C81.51 68.2057 80.6592 67.9674 79.7924 67.9678C78.9251 67.9682 78.0747 68.2073 77.335 68.6588C74.8811 70.1495 72.2872 71.396 69.5902 72.3804C67.272 73.2252 64.8873 73.8746 62.4605 74.3214C61.3884 74.5188 60.4196 75.0864 59.723 75.9249C59.0264 76.7635 58.6461 77.8199 58.6484 78.9102L58.6486 78.9106ZM72.2588 89.3732C72.6989 88.9323 73.2968 88.6849 73.9197 88.6849C74.5427 88.6849 75.1402 88.9323 75.5807 89.3732L78.6187 92.4112L86.3552 84.6746V84.6743C86.9507 84.0917 87.81 83.8684 88.614 84.087C89.418 84.3057 90.0457 84.9338 90.2644 85.7374C90.4831 86.5414 90.2597 87.4008 89.6772 87.9963L80.2793 97.3942C79.8392 97.8347 79.2413 98.0825 78.6184 98.0825C77.9954 98.0825 77.3979 97.8347 76.9574 97.3942L72.2585 92.6952C71.8179 92.2547 71.5702 91.6572 71.5702 91.0343C71.5705 90.4112 71.8179 89.8138 72.2588 89.3733L72.2588 89.3732Z" fill="#DFE1E4"/>
</svg>
