<svg width="1184" height="996" viewBox="0 0 1184 996" fill="none" xmlns="http://www.w3.org/2000/svg">
<path d="M95.2578 11.7577C102.256 4.25824 112.053 0.000244141 122.31 0.000244141H1160.43C1180.87 0.000244141 1197.43 16.5657 1197.43 37.0002V958.377C1197.43 978.812 1180.87 995.377 1160.43 995.377H37C16.5655 995.377 0 978.812 0 958.377V128.425C0 119.055 3.55526 110.033 9.94799 103.183L95.2578 11.7577Z" fill="#1E2F43"/>
<mask id="mask0_1_146" style="mask-type:alpha" maskUnits="userSpaceOnUse" x="0" y="0" width="1198" height="996">
<path d="M95.258 11.7574C102.256 4.25799 112.053 0 122.31 0H1160.43C1180.87 0 1197.43 16.5655 1197.43 37V958.377C1197.43 978.811 1180.87 995.377 1160.43 995.377H37.0002C16.5657 995.377 0.000244141 978.811 0.000244141 958.377V128.425C0.000244141 119.055 3.5555 110.033 9.94823 103.182L95.258 11.7574Z" fill="#1E2F43"/>
</mask>
<g mask="url(#mask0_1_146)">
<path opacity="0.4" d="M-187.094 -11.1318L-143.434 32.5276M-143.434 32.5276L-99.7746 -11.1318M-143.434 32.5276L-99.7746 76.1871L-187.094 163.506M-12.4556 32.5276L-56.1151 -11.1318L-99.7746 32.5276L-56.1151 76.1871M-12.4556 32.5276L31.2038 -11.1318L74.8633 32.5276M-12.4556 32.5276L-56.1151 76.1871M-12.4556 32.5276L31.2038 76.1871M74.8633 32.5276L118.523 -11.1318L162.182 32.5276M74.8633 32.5276L31.2038 76.1871M74.8633 32.5276L118.523 76.1871M162.182 -11.1318L205.842 32.5276L162.182 76.1871L118.523 32.5276M205.842 -11.1318L249.501 32.5276M249.501 32.5276L293.161 -11.1318M249.501 32.5276L162.182 119.847L118.523 76.1871M293.161 32.5276L336.82 -11.1318L380.48 32.5276M293.161 32.5276L249.501 76.1871M293.161 32.5276L336.82 76.1871M380.48 -11.1318L424.139 32.5276M424.139 32.5276L467.798 -11.1318L511.458 32.5276M424.139 32.5276L380.48 76.1871M511.458 32.5276L555.117 -11.1318L598.777 32.5276M511.458 32.5276L467.798 76.1871M598.777 32.5276L642.436 -11.1318M598.777 32.5276L555.117 76.1871M598.777 32.5276L642.436 76.1871M686.096 -11.1318L642.436 32.5276L729.755 119.847M773.415 -11.1318L860.734 76.1871L773.415 163.506L729.755 119.847M817.074 -11.1318L904.393 76.1871M860.734 -11.1318L904.393 32.5276L948.052 -11.1318L991.712 32.5276M991.712 32.5276L1035.37 -11.1318L1079.03 32.5276L1122.69 -11.1318M991.712 32.5276L948.053 76.1871M991.712 32.5276L1035.37 76.1871M1166.35 -11.1318L1122.69 32.5276M1122.69 32.5276L1079.03 76.1871L1035.37 32.5276M1122.69 32.5276L1166.35 76.1871L1122.69 119.847L1166.35 163.506M1210.01 -11.1318L1166.35 32.5276L1210.01 76.1871L1166.35 119.847M1253.67 -11.1318L1210.01 32.5276L1253.67 76.1871M1297.33 -11.1318L1253.67 32.5276M1297.33 32.5276L1340.99 -11.1318L1384.65 32.5276M1297.33 32.5276L1253.67 76.1871M1297.33 32.5276L1340.99 76.1871M1384.65 32.5276L1428.31 -11.1318M1384.65 32.5276L1340.99 76.1871M1515.63 32.5276L1471.97 -11.1318L1384.65 76.1871M1515.63 32.5276L1559.29 -11.1318L1602.94 32.5276L1559.29 76.1871M1515.63 32.5276L1471.97 76.1871M1602.94 -11.1318L1646.6 32.5276L1559.29 119.847M-187.094 32.5276L-143.434 76.1871L-187.094 119.847M-56.1151 76.1871L-187.094 207.165M31.2038 76.1871L74.8633 119.847L118.523 76.1871M249.501 76.1871L293.161 119.847M249.501 76.1871L162.182 163.506M336.82 32.5276L380.48 76.1871M380.48 76.1871L336.82 119.847M380.48 76.1871L424.139 119.847M467.798 32.5276L424.139 76.1871L467.798 119.847L555.117 32.5276M555.117 76.1871L598.777 119.847M555.117 76.1871L467.798 163.506M642.436 76.1871L598.777 119.847M642.436 76.1871L686.096 119.847L642.436 163.506M729.755 76.1871L686.096 32.5276L729.755 -11.1318L817.074 76.1871L773.415 119.847M729.755 32.5276L773.415 76.1871L729.755 119.847M904.393 76.1871L948.052 32.5276M904.393 76.1871L817.074 163.506M948.053 76.1871L904.393 119.847M948.053 76.1871L991.712 119.847L1035.37 76.1871M1035.37 76.1871L1079.03 119.847M1253.67 76.1871L1210.01 119.847M1340.99 76.1871L1253.67 163.506L1210.01 119.847M1384.65 76.1871L1428.31 119.847M1384.65 76.1871L1297.33 163.506M1471.97 32.5276L1428.31 76.1871M1471.97 76.1871L1428.31 119.847M1471.97 76.1871L1515.63 119.847M1559.29 32.5276L1515.63 76.1871L1559.29 119.847M-56.1151 119.847L-12.4556 76.1871L31.2038 119.847M-56.1151 119.847L-99.7746 163.506M-56.1151 119.847L-12.4556 163.506M31.2038 119.847L-12.4556 163.506M31.2038 119.847L74.8633 163.506L118.523 119.847L162.182 163.506M293.161 76.1871L336.82 119.847M336.82 119.847L293.161 163.506M424.139 119.847L467.798 163.506M424.139 119.847L336.82 207.165L293.161 163.506M598.777 119.847L642.436 163.506M729.755 119.847L686.096 163.506M904.393 119.847L860.734 163.506M904.393 119.847L948.052 163.506L817.074 294.484L860.734 338.144M1079.03 119.847L1122.69 76.1871M1079.03 119.847L1122.69 163.506L1079.03 207.165M1210.01 119.847L1166.35 163.506M1297.33 76.1871L1253.67 119.847M1428.31 119.847L1471.97 163.506M1559.29 119.847L1515.63 163.506L1471.97 119.847M1646.6 76.1871L1559.29 163.506M-99.7746 163.506L-56.1151 207.165M-99.7746 163.506L-187.094 250.825M-12.4556 163.506L-56.1151 207.165M162.182 163.506L205.842 207.165M205.842 163.506L249.501 119.847L293.161 163.506M293.161 163.506L249.501 207.165L293.161 250.825M380.48 119.847L336.82 163.506M467.798 163.506L424.139 207.165L467.798 250.825M642.436 163.506L598.777 207.165L642.436 250.825M642.436 163.506L686.096 207.165M817.074 163.506L773.415 207.165M817.074 163.506L860.734 207.165M948.053 119.847L991.712 163.506M991.712 163.506L1035.37 119.847L1079.03 163.506L1035.37 207.165M991.712 163.506L860.734 294.484M1166.35 163.506L1210.01 207.165L1166.35 250.825M1166.35 163.506L1079.03 250.825M1297.33 163.506L1253.67 207.165M1297.33 163.506L1340.99 207.165L1384.65 163.506M1340.99 163.506L1384.65 119.847L1428.31 163.506L1340.99 250.825M1471.97 163.506L1515.63 207.165M1471.97 163.506L1340.99 294.484M1559.29 163.506L1515.63 207.165M1559.29 163.506L1602.94 207.165M1646.6 119.847L1602.94 163.506M-56.1151 207.165L-187.094 338.144L-143.434 381.803M-12.4556 207.165L31.2038 163.506L74.8633 207.165M-12.4556 207.165L31.2038 250.825M-12.4556 207.165L-143.434 338.144M74.8633 207.165L118.523 163.506L162.182 207.165M74.8633 207.165L31.2038 250.825M205.842 207.165L249.501 163.506M205.842 207.165L162.182 250.825M205.842 207.165L249.501 250.825M424.139 163.506L380.48 207.165M380.48 207.165L336.82 250.825M380.48 207.165L424.139 250.825M555.117 163.506L511.458 207.165M555.117 207.165L598.777 163.506L555.117 119.847L467.798 207.165L511.458 250.825M555.117 207.165L511.458 250.825M555.117 207.165L598.777 250.825L555.117 294.484M686.096 207.165L729.755 163.506L773.415 207.165M686.096 207.165L642.436 250.825M773.415 207.165L686.096 294.484M860.734 207.165L904.393 163.506M860.734 207.165L773.415 294.484M1035.37 163.506L860.734 338.144M1035.37 207.165L991.712 250.825M1035.37 207.165L1079.03 250.825M1210.01 163.506L1253.67 207.165M1253.67 207.165L1166.35 294.484M1515.63 207.165L1471.97 250.825M1602.94 207.165L1646.6 163.506M1602.94 207.165L1646.6 250.825L1559.29 338.144M1602.94 207.165L1515.63 294.484M-99.7746 207.165L-187.094 294.484M31.2038 250.825L74.8633 294.484M74.8633 250.825L118.523 207.165L162.182 250.825M162.182 250.825L118.523 294.484M162.182 250.825L205.842 294.484L249.501 250.825M249.501 250.825L293.161 294.484M293.161 207.165L336.82 250.825M336.82 250.825L293.161 294.484M424.139 250.825L467.798 294.484M424.139 250.825L293.161 381.803M511.458 250.825L467.798 294.484M511.458 250.825L555.117 294.484M642.436 250.825L598.777 294.484M729.755 207.165L598.777 338.144M817.074 207.165L729.755 294.484M991.712 250.825L1035.37 294.484M991.712 250.825L860.734 381.803M1079.03 250.825L1035.37 294.484M1079.03 250.825L1122.69 294.484L1035.37 381.803M1166.35 207.165L1122.69 250.825L1166.35 294.484M1253.67 250.825L1297.33 207.165L1340.99 250.825M1253.67 250.825L1297.33 294.484M1253.67 250.825L1122.69 381.803M1340.99 250.825L1297.33 294.484M1471.97 207.165L1340.99 338.144M1471.97 250.825L1515.63 294.484M1471.97 250.825L1384.65 338.144M1559.29 207.165L1515.63 250.825M-56.1151 294.484L-12.4556 250.825L31.2038 294.484M-56.1151 294.484L-99.7746 338.144M-56.1151 294.484L-12.4556 338.144L-56.1151 381.803M74.8633 294.484L118.523 250.825M74.8633 294.484L31.2038 338.144M118.523 294.484L74.8633 338.144M118.523 294.484L162.182 338.144M293.161 294.484L205.842 381.803L162.182 338.144M380.48 250.825L205.842 425.463M467.798 294.484L424.139 338.144M555.117 294.484L511.458 338.144L555.117 381.803M555.117 294.484L598.777 338.144M686.096 294.484L642.436 338.144L686.096 381.803M686.096 294.484L729.755 338.144L773.415 294.484M773.415 294.484L817.074 338.144L729.755 425.463M1035.37 294.484L904.393 425.463M1166.35 294.484L1079.03 381.803M1297.33 294.484L1340.99 338.144M1297.33 294.484L1166.35 425.463M1515.63 294.484L1384.65 425.463L1428.31 469.122M1602.94 250.825L1515.63 338.144M-99.7746 338.144L-143.434 381.803M-99.7746 338.144L-56.1151 381.803M-12.4556 294.484L31.2038 338.144M31.2038 338.144L-12.4556 381.803M74.8633 338.144L118.523 381.803L162.182 338.144M74.8633 338.144L-12.4556 425.463M162.182 294.484L205.842 338.144L249.501 294.484M424.139 294.484L336.82 381.803M424.139 338.144L467.798 381.803M424.139 338.144L336.82 425.463M511.458 294.484L467.798 338.144L511.458 381.803L467.798 425.463M598.777 338.144L642.436 381.803M860.734 338.144L773.415 425.463M991.712 294.484L904.393 381.803M1079.03 294.484L991.712 381.803M1253.67 294.484L1166.35 381.803M1340.99 338.144L1384.65 381.803M1471.97 294.484L1384.65 381.803M1515.63 338.144L1471.97 381.803M1515.63 338.144L1559.29 381.803M1646.6 294.484L1559.29 381.803M-143.434 381.803L-187.094 425.463M-143.434 381.803L-99.7746 425.463M-56.1151 381.803L-12.4556 425.463M293.161 381.803L249.501 425.463M293.161 381.803L336.82 425.463M555.117 381.803L511.458 425.463M555.117 381.803L598.777 425.463M555.117 338.144L642.436 425.463M686.096 381.803L642.436 425.463M686.096 381.803L729.755 425.463M686.096 338.144L729.755 381.803L773.415 338.144M860.734 381.803L904.393 425.463M860.734 381.803L773.415 469.122L729.755 425.463M1122.69 381.803L1100.63 403.863M1122.69 381.803L1166.35 425.463M1384.65 381.803L1340.99 425.463M1471.97 381.803L1428.31 425.463M1471.97 381.803L1515.63 425.463M1559.29 381.803L1602.94 425.463M1646.6 338.144L1602.94 381.803M-99.7746 381.803L-56.1151 425.463M-56.1151 425.463L-99.7746 469.122M-56.1151 425.463L-12.4556 469.122L-56.1151 512.782L-12.4556 556.441M-12.4556 425.463L31.2038 469.122M31.2038 425.463L74.8633 381.803L118.523 425.463M118.523 425.463L162.182 381.803L205.842 425.463M118.523 425.463L162.182 469.122M205.842 425.463L249.501 469.122L293.161 425.463L336.82 469.122M336.82 425.463L380.48 469.122M380.48 425.463L424.139 381.803L467.798 425.463M467.798 425.463L511.458 469.122M598.777 425.463L555.117 469.122M598.777 425.463L642.436 469.122L598.777 512.782L555.117 469.122M642.436 425.463L686.096 469.122M904.393 425.463L817.074 512.782M1166.35 425.463L1122.69 469.122M1210.01 425.463L1253.67 469.122L1210.01 512.782M1210.01 425.463L1297.33 338.144L1340.99 381.803L1297.33 425.463M1210.01 425.463L1100.86 534.611L1046.29 589.186L1015.29 620.553M1297.33 381.803L1253.67 425.463L1297.33 469.122M1340.99 425.463L1297.33 469.122M1340.99 425.463L1384.65 469.122M1515.63 381.803L1559.29 425.463M1559.29 425.463L1515.63 469.122M1559.29 425.463L1602.94 469.122M1602.94 425.463L1646.6 381.803M1602.94 425.463L1646.6 469.122L1602.94 512.782M-187.094 469.122L-143.434 425.463L-99.7746 469.122M-99.7746 469.122L-187.094 556.441M31.2038 469.122L74.8633 425.463L118.523 469.122M31.2038 469.122L-12.4556 512.782M31.2038 469.122L74.8633 512.782M162.182 469.122L118.523 512.782M162.182 469.122L205.842 512.782M162.182 425.463L249.501 512.782M380.48 469.122L424.139 425.463L467.798 469.122L424.139 512.782M380.48 469.122L336.82 512.782M511.458 469.122L555.117 425.463M511.458 469.122L424.139 556.441L380.48 512.782M555.117 469.122L511.458 512.782M686.096 469.122L729.755 512.782L686.096 556.441M686.096 469.122L598.777 556.441M686.096 425.463L773.415 512.782M860.734 425.463L773.415 512.782M1297.33 469.122L1253.67 512.782M1428.31 469.122L1471.97 425.463L1515.63 469.122M1428.31 469.122L1384.65 512.782M1515.63 469.122L1471.97 512.782L1515.63 556.441M-143.434 469.122L-187.094 512.782M-56.1151 469.122L-99.7746 512.782M-99.7746 512.782L-56.1151 556.441L-187.094 687.42M-99.7746 512.782L-187.094 600.101M74.8633 512.782L31.2038 556.441M74.8633 512.782L118.523 556.441M74.8633 469.122L118.523 512.782M118.523 512.782L162.182 556.441M249.501 512.782L293.161 469.122L336.82 512.782M249.501 512.782L205.842 556.441L162.182 512.782M336.82 512.782L205.842 643.76M424.139 469.122L380.48 512.782M380.48 512.782L249.501 643.76M511.458 512.782L555.117 556.441L467.798 643.76M511.458 512.782L424.139 600.101L380.48 556.441L336.82 600.101M773.415 512.782L729.755 556.441L817.074 643.76M773.415 512.782L817.074 556.441M904.393 469.122L817.074 556.441M1210.01 469.122L1166.35 512.782M1166.35 512.782L1210.01 556.441M1166.35 512.782L1122.69 556.441L1100.86 578.271M1253.67 512.782L1210.01 556.441M1253.67 512.782L1297.33 556.441M1297.33 512.782L1340.99 469.122L1384.65 512.782M1384.65 512.782L1297.33 600.101M1471.97 469.122L1428.31 512.782M1428.31 512.782L1471.97 556.441L1428.31 600.101L1471.97 643.76M1428.31 512.782L1340.99 600.101M1515.63 512.782L1559.29 469.122L1602.94 512.782M1602.94 512.782L1646.6 556.441L1602.94 600.101M-12.4556 556.441L31.2038 512.782M-12.4556 556.441L-143.434 687.42M31.2038 556.441L-99.7746 687.42M31.2038 556.441L118.523 643.76M162.182 556.441L118.523 600.101L74.8633 556.441M162.182 556.441L205.842 600.101L293.161 512.782M555.117 512.782L598.777 556.441M598.777 556.441L555.117 600.101M598.777 556.441L642.436 600.101L686.096 556.441M686.096 512.782L642.436 556.441M686.096 556.441L773.415 643.76M817.074 556.441L860.734 600.101M904.393 512.782L860.734 556.441L904.393 600.101M1210.01 556.441L1253.67 600.101L1297.33 556.441M1297.33 556.441L1340.99 512.782M1515.63 556.441L1559.29 512.782L1602.94 556.441M1515.63 556.441L1471.97 600.101M1515.63 556.441L1559.29 600.101L1471.97 687.42M-99.7746 556.441L-187.094 643.76M336.82 600.101L249.501 687.42M336.82 600.101L424.139 687.42M511.458 556.441L424.139 643.76L380.48 600.101M555.117 600.101L511.458 643.76M555.117 600.101L598.777 643.76L555.117 687.42M773.415 556.441L817.074 600.101M860.734 600.101L817.074 643.76M860.734 600.101L948.052 687.42M904.393 600.101L948.052 556.441M904.393 600.101L948.052 643.76M1122.69 600.101L1166.35 556.441L1210.01 600.101M1210.01 600.101L1166.35 643.76M1210.01 600.101L1253.67 643.76M1297.33 600.101L1253.67 643.76M1297.33 600.101L1340.99 643.76M1428.31 556.441L1384.65 600.101M1384.65 600.101L1340.99 643.76M1384.65 600.101L1428.31 643.76L1384.65 687.42M1559.29 556.441L1602.94 600.101M1602.94 600.101L1646.6 643.76L1602.94 687.42M1602.94 600.101L1515.63 687.42M118.523 643.76L162.182 600.101L205.842 643.76M118.523 643.76L31.2038 731.079M205.842 643.76L249.501 687.42M467.798 643.76L424.139 687.42M467.798 643.76L511.458 687.42M598.777 600.101L642.436 643.76M642.436 643.76L686.096 600.101L773.415 687.42M642.436 643.76L598.777 687.42M642.436 643.76L686.096 687.42L642.436 731.079M817.074 643.76L773.415 687.42M948.052 643.76L991.712 600.101M948.052 643.76L991.712 687.42M991.712 643.76L1035.37 687.42M1035.37 643.76L1079.03 600.101L1122.69 643.76M1122.69 643.76L1166.35 600.101M1122.69 643.76L1166.35 687.42M1253.67 643.76L1210.01 687.42M1340.99 643.76L1253.67 731.079M1471.97 643.76L1515.63 600.101M1471.97 643.76L1428.31 687.42M-143.434 687.42L-187.094 731.079M-143.434 687.42L-99.7746 731.079M31.2038 643.76L-99.7746 774.739M118.523 687.42L162.182 643.76L249.501 731.079M118.523 687.42L74.8633 731.079M118.523 687.42L249.501 818.398M249.501 687.42L293.161 731.079M380.48 687.42L336.82 643.76L293.161 687.42L336.82 731.079M424.139 687.42L380.48 731.079M511.458 687.42L555.117 643.76M511.458 687.42L424.139 774.739M555.117 687.42L598.777 731.079M555.117 687.42L467.798 774.739M686.096 643.76L729.755 687.42M729.755 687.42L773.415 731.079L729.755 774.739M729.755 687.42L642.436 774.739M773.415 687.42L817.074 731.079M817.074 687.42L860.734 643.76L904.393 687.42L860.734 731.079M948.052 687.42L904.393 731.079M948.052 687.42L991.712 731.079M1035.37 687.42L1079.03 643.76L1122.69 687.42M1035.37 687.42L991.712 731.079M1035.37 687.42L1079.03 731.079M1166.35 687.42L1210.01 643.76M1166.35 687.42L1122.69 731.079M1166.35 687.42L1210.01 731.079M1297.33 643.76L1210.01 731.079M1384.65 643.76L1340.99 687.42M1340.99 687.42L1297.33 731.079L1340.99 774.739L1384.65 731.079M1340.99 687.42L1384.65 731.079M1428.31 687.42L1384.65 731.079M1428.31 687.42L1471.97 731.079L1515.63 687.42M1515.63 687.42L1559.29 731.079M1602.94 643.76L1559.29 687.42M1602.94 687.42L1559.29 731.079M1602.94 687.42L1646.6 731.079L1602.94 774.739M-99.7746 731.079L-143.434 774.739M-99.7746 731.079L31.2038 600.101L74.8633 643.76L-12.4556 731.079M-12.4556 731.079L-56.1151 774.739M-12.4556 731.079L31.2038 774.739L74.8633 731.079M74.8633 731.079L118.523 774.739L74.8633 818.398L118.523 862.057L-12.4556 993.036L-56.1151 949.376M162.182 687.42L249.501 774.739M293.161 731.079L249.501 774.739M293.161 731.079L336.82 774.739M336.82 687.42L380.48 731.079M380.48 731.079L336.82 774.739M467.798 687.42L380.48 774.739M598.777 731.079L642.436 687.42M598.777 731.079L555.117 774.739M598.777 731.079L642.436 774.739M817.074 731.079L860.734 687.42M817.074 731.079L773.415 774.739M817.074 731.079L860.734 774.739L904.393 731.079M904.393 731.079L948.052 774.739M991.712 731.079L1035.37 774.739M1079.03 731.079L1035.37 774.739M1079.03 731.079L1166.35 818.398L1210.01 774.739M1079.03 687.42L1122.69 731.079M1122.69 731.079L1166.35 774.739L1210.01 731.079M1253.67 731.079L1210.01 774.739M1253.67 731.079L1297.33 774.739M1559.29 731.079L1515.63 774.739M1559.29 731.079L1602.94 774.739M-143.434 731.079L-187.094 774.739M-143.434 774.739L-187.094 818.398M-143.434 774.739L-99.7746 818.398L-56.1151 774.739M-56.1151 774.739L-12.4556 818.398M118.523 731.079L162.182 774.739M162.182 774.739L118.523 818.398L162.182 862.057M162.182 774.739L205.842 818.398L162.182 862.057M249.501 774.739L293.161 818.398L336.82 774.739M336.82 774.739L380.48 818.398M424.139 774.739L380.48 818.398M424.139 774.739L467.798 818.398L511.458 774.739M555.117 731.079L511.458 774.739M511.458 774.739L555.117 818.398M642.436 774.739L598.777 818.398M642.436 774.739L686.096 818.398L642.436 862.057M729.755 731.079L686.096 774.739L729.755 818.398M773.415 774.739L729.755 818.398M773.415 774.739L817.074 818.398M948.053 731.079L991.712 774.739M991.712 774.739L948.052 818.398M991.712 774.739L1035.37 818.398M1035.37 774.739L1122.69 862.057M1210.01 774.739L1253.67 818.398M1297.33 774.739L1253.67 818.398M1297.33 774.739L1340.99 818.398L1384.65 774.739M1384.65 774.739L1428.31 731.079L1471.97 774.739L1515.63 731.079M1384.65 774.739L1471.97 862.057L1428.31 905.717L1384.65 862.057L1340.99 905.717M1515.63 774.739L1471.97 818.398M1515.63 774.739L1559.29 818.398L1602.94 774.739M1602.94 774.739L1646.6 818.398M-12.4556 774.739L31.2038 818.398M31.2038 818.398L74.8633 774.739M31.2038 818.398L-12.4556 862.057L-56.1151 818.398L-99.7746 862.057L-143.434 818.398L-187.094 862.057M31.2038 818.398L74.8633 862.057L-12.4556 949.376L-56.1151 905.717L-99.7746 949.376M249.501 818.398L205.842 862.057M249.501 818.398L293.161 862.057M380.48 818.398L424.139 862.057L380.48 905.717M555.117 818.398L598.777 774.739M555.117 818.398L511.458 862.057M555.117 818.398L598.777 862.057M729.755 818.398L686.096 862.057M817.074 774.739L860.734 818.398M860.734 818.398L904.393 774.739L948.052 818.398M860.734 818.398L817.074 862.057L773.415 818.398L729.755 862.057M860.734 818.398L904.393 862.057M948.052 818.398L904.393 862.057M1035.37 818.398L948.052 905.717M1035.37 818.398L1122.69 905.717L1166.35 862.057M1079.03 774.739L1166.35 862.057M1253.67 818.398L1210.01 862.057M1253.67 818.398L1297.33 862.057M1428.31 774.739L1471.97 818.398M1471.97 818.398L1515.63 862.057L1428.31 949.376L1384.65 905.717M162.182 862.057L74.8633 949.376M205.842 862.057L249.501 905.717M205.842 862.057L118.523 949.376M293.161 862.057L336.82 818.398L380.48 862.057L336.82 905.717M293.161 862.057L336.82 905.717M424.139 818.398L467.798 862.057M467.798 862.057L511.458 818.398M467.798 862.057L424.139 905.717M511.458 862.057L467.798 905.717L511.458 949.376M511.458 862.057L555.117 905.717L598.777 862.057M598.777 862.057L642.436 818.398M598.777 862.057L642.436 905.717L686.096 862.057M686.096 862.057L729.755 905.717M904.393 862.057L948.052 905.717M904.393 862.057L817.074 949.376M991.712 818.398L948.053 862.057M1166.35 862.057L1210.01 818.398M1210.01 862.057L1166.35 905.717M1210.01 862.057L1253.67 905.717M1297.33 862.057L1253.67 905.717M1297.33 862.057L1340.99 905.717M1297.33 818.398L1340.99 862.057L1384.65 818.398L1428.31 862.057M1515.63 818.398L1559.29 862.057M1559.29 862.057L1602.94 818.398L1646.6 862.057L1602.94 905.717M1559.29 862.057L1602.94 905.717M1559.29 862.057L1471.97 949.376M31.2038 862.057L-12.4556 905.717L-56.1151 862.057L-99.7746 905.717L-143.434 862.057L-187.094 905.717L-143.434 949.376M249.501 905.717L205.842 949.376L249.501 993.036L205.842 1036.7M249.501 905.717L293.161 949.376L336.82 905.717M249.501 862.057L293.161 905.717M336.82 905.717L380.48 949.376M424.139 905.717L380.48 949.376M424.139 905.717L467.798 949.376M729.755 905.717L773.415 862.057L817.074 905.717L860.734 862.057M729.755 905.717L686.096 949.376M948.052 905.717L904.393 949.376M991.712 905.717L1035.37 862.057L1079.03 905.717M991.712 905.717L948.053 949.376L991.712 993.036M991.712 905.717L1035.37 949.376M1079.03 905.717L1035.37 949.376M1079.03 905.717L1122.69 949.376L1166.35 905.717M1166.35 905.717L1210.01 949.376M1253.67 905.717L1210.01 949.376M1340.99 905.717L1384.65 949.376M1602.94 905.717L1646.6 949.376M-143.434 949.376L-187.094 993.036M-143.434 949.376L-99.7746 993.036M-143.434 905.717L-99.7746 949.376M-99.7746 949.376L-56.1151 993.036M74.8633 949.376L31.2038 993.036M74.8633 949.376L118.523 993.036M205.842 905.717L162.182 949.376M162.182 949.376L118.523 993.036M162.182 949.376L205.842 993.036L162.182 1036.7L118.523 993.036M380.48 949.376L424.139 993.036M467.798 949.376L424.139 993.036M467.798 949.376L511.458 993.036M511.458 905.717L555.117 949.376M555.117 949.376L598.777 905.717L642.436 949.376M555.117 949.376L511.458 993.036M555.117 949.376L598.777 993.036M642.436 949.376L686.096 905.717M642.436 949.376L686.096 993.036M817.074 949.376L773.415 905.717L686.096 993.036M817.074 949.376L860.734 993.036L904.393 949.376M817.074 949.376L729.755 1036.7M904.393 905.717L860.734 949.376M904.393 949.376L948.052 993.036M1035.37 949.376L991.712 993.036M1210.01 949.376L1253.67 993.036M1340.99 949.376L1297.33 905.717L1253.67 949.376L1297.33 993.036L1253.67 1036.7L1166.35 949.376L1122.69 993.036L1079.03 949.376L1035.37 993.036M1384.65 949.376L1340.99 993.036M1384.65 949.376L1428.31 993.036L1471.97 949.376M1471.97 949.376L1515.63 993.036M1602.94 949.376L1559.29 905.717L1515.63 949.376L1559.29 993.036M1602.94 949.376L1559.29 993.036M1602.94 949.376L1646.6 993.036M-56.1151 993.036L-99.7746 1036.7L-143.434 993.036L-187.094 1036.7M-56.1151 993.036L-12.4556 1036.7L31.2038 993.036M31.2038 993.036L74.8633 1036.7L118.523 993.036M249.501 949.376L293.161 993.036M293.161 993.036L336.82 949.376L380.48 993.036M293.161 993.036L249.501 1036.7M293.161 993.036L336.82 1036.7M424.139 993.036L380.48 1036.7L336.82 993.036M424.139 993.036L467.798 1036.7M511.458 993.036L555.117 1036.7L598.777 993.036M598.777 993.036L642.436 1036.7L686.096 993.036M598.777 949.376L642.436 993.036M773.415 949.376L686.096 1036.7M991.712 993.036L948.052 1036.7L904.393 993.036L860.734 1036.7L817.074 993.036L773.415 1036.7M1035.37 993.036L991.712 1036.7M1035.37 993.036L1079.03 1036.7M1297.33 949.376L1340.99 993.036M1340.99 993.036L1297.33 1036.7M1559.29 993.036L1515.63 1036.7L1471.97 993.036L1428.31 1036.7L1384.65 993.036L1340.99 1036.7M467.798 993.036L511.458 1036.7M1079.03 993.036L1122.69 1036.7L1166.35 993.036L1210.01 1036.7M1559.29 1036.7L1602.94 993.036L1646.6 1036.7" stroke="url(#paint0_linear_1_146)" stroke-opacity="0.2" stroke-width="2.5" stroke-linecap="round"/>
<path d="M97.8519 12.021C104.861 4.36222 114.765 0.000488281 125.147 0.000488281H1195.14C1215.58 0.000488281 1232.14 16.566 1232.14 37.0005V958.377C1232.14 978.812 1215.58 995.377 1195.14 995.377H36.5002C16.0657 995.377 -0.499756 978.812 -0.499756 958.377V133.865C-0.499756 124.618 2.96248 115.707 9.20508 108.886L97.8519 12.021Z" fill="url(#paint1_linear_1_146)"/>
<g opacity="0.4" filter="url(#filter0_f_1_146)">
<ellipse cx="271.717" cy="377.105" rx="271.717" ry="377.105" transform="matrix(0.6085 0.793554 -0.917096 0.398666 1127.55 -159.376)" fill="#78F6FC"/>
</g>
<g opacity="0.4" filter="url(#filter1_f_1_146)">
<ellipse cx="356.013" cy="404.255" rx="356.013" ry="404.255" transform="matrix(0.6085 0.793554 -0.917096 0.398666 1261.84 132.736)" fill="#FC78DF"/>
</g>
<g opacity="0.4" filter="url(#filter2_f_1_146)">
<ellipse cx="-113.001" cy="896.18" rx="409.466" ry="218.01" transform="rotate(60 -113.001 896.18)" fill="#FC78DF"/>
</g>
</g>
<defs>
<filter id="filter0_f_1_146" x="351.627" y="-268.297" width="1190.84" height="949.764" filterUnits="userSpaceOnUse" color-interpolation-filters="sRGB">
<feFlood flood-opacity="0" result="BackgroundImageFix"/>
<feBlend mode="normal" in="SourceGraphic" in2="BackgroundImageFix" result="shape"/>
<feGaussianBlur stdDeviation="106" result="effect1_foregroundBlur_1_146"/>
</filter>
<filter id="filter1_f_1_146" x="466.27" y="39.107" width="1282.93" height="1074.61" filterUnits="userSpaceOnUse" color-interpolation-filters="sRGB">
<feFlood flood-opacity="0" result="BackgroundImageFix"/>
<feBlend mode="normal" in="SourceGraphic" in2="BackgroundImageFix" result="shape"/>
<feGaussianBlur stdDeviation="106" result="effect1_foregroundBlur_1_146"/>
</filter>
<filter id="filter2_f_1_146" x="-558.502" y="358.098" width="891.001" height="1076.16" filterUnits="userSpaceOnUse" color-interpolation-filters="sRGB">
<feFlood flood-opacity="0" result="BackgroundImageFix"/>
<feBlend mode="normal" in="SourceGraphic" in2="BackgroundImageFix" result="shape"/>
<feGaussianBlur stdDeviation="83.5" result="effect1_foregroundBlur_1_146"/>
</filter>
<linearGradient id="paint0_linear_1_146" x1="579.995" y1="176.635" x2="1313.32" y2="752.819" gradientUnits="userSpaceOnUse">
<stop stop-color="#ED970D"/>
<stop offset="1" stop-color="#5FD1E9"/>
</linearGradient>
<linearGradient id="paint1_linear_1_146" x1="-0.49975" y1="565.299" x2="793.064" y2="558.192" gradientUnits="userSpaceOnUse">
<stop offset="0.613305" stop-color="#1E2F43" stop-opacity="0.96"/>
<stop offset="1" stop-color="#1E2F43" stop-opacity="0"/>
</linearGradient>
</defs>
</svg>
