<svg width="184" height="156" viewBox="0 0 184 156" fill="none" xmlns="http://www.w3.org/2000/svg">
<path d="M89.0273 1.00472C106.121 1.54818 122.367 8.58174 134.46 20.6752L174.343 60.5579C186.018 72.2324 186.018 91.1604 174.343 102.835L139.106 138.072C126.662 150.516 109.34 156.801 91.8116 155.231C77.9462 153.989 64.9576 147.916 55.114 138.072L9.65638 92.6145C-2.01806 80.9401 -2.01806 62.012 9.65639 50.3376L39.3188 20.6752C52.4601 7.53392 70.4521 0.41418 89.0273 1.00472Z" fill="#ED970D"/>
<mask id="mask0_1_46" style="mask-type:alpha" maskUnits="userSpaceOnUse" x="0" y="0" width="184" height="156">
<path d="M89.0273 1.00472C106.121 1.54818 122.367 8.58174 134.46 20.6752L174.343 60.5579C186.018 72.2324 186.018 91.1604 174.343 102.835L139.106 138.072C126.662 150.516 109.34 156.801 91.8116 155.231C77.9462 153.989 64.9576 147.916 55.114 138.072L9.65638 92.6145C-2.01806 80.9401 -2.01806 62.012 9.65639 50.3376L39.3188 20.6752C52.4601 7.53392 70.4521 0.41418 89.0273 1.00472Z" fill="#6E1552"/>
</mask>
<g mask="url(#mask0_1_46)">
<path d="M-670.318 -1003.9V-949.612M-670.318 -949.612H-616.03M-670.318 -949.612V-895.324H-778.894M-588.886 -868.18L-588.886 -922.468L-643.174 -922.468L-643.174 -868.18M-588.886 -868.18L-534.599 -868.18L-534.599 -813.892M-588.886 -868.18L-643.174 -868.18M-588.886 -868.18L-588.886 -813.892M-534.599 -813.892L-480.311 -813.892L-480.311 -759.605M-534.599 -813.892L-588.886 -813.892M-534.599 -813.892L-534.599 -759.605M-453.167 -786.748L-453.167 -732.461L-507.455 -732.461L-507.455 -786.749M-426.023 -759.605L-426.023 -705.317M-426.023 -705.317L-371.735 -705.317M-426.023 -705.317L-534.599 -705.317L-534.599 -759.605M-398.879 -678.173L-344.591 -678.173L-344.591 -623.885M-398.879 -678.173L-453.167 -678.173M-398.879 -678.173L-398.879 -623.885M-317.447 -651.029L-317.447 -596.741M-317.447 -596.741L-263.159 -596.741L-263.159 -542.453M-317.447 -596.741L-371.735 -596.741M-263.159 -542.453L-208.871 -542.453L-208.871 -488.165M-263.159 -542.453L-317.447 -542.453M-208.871 -488.165L-154.584 -488.165M-208.871 -488.165L-263.159 -488.165M-208.871 -488.165L-208.871 -433.877M-127.44 -461.021L-181.728 -461.021L-181.728 -352.446M-73.1518 -406.734L-73.1518 -298.158L-181.728 -298.158L-181.728 -352.446M-46.0079 -379.59L-46.0079 -271.014M-18.864 -352.446L-18.864 -298.158L35.4238 -298.158L35.4239 -243.87M35.4239 -243.87L89.7117 -243.87L89.7117 -189.582L144 -189.582M35.4239 -243.87L-18.8639 -243.87M35.4239 -243.87L35.4239 -189.582M171.143 -162.438L116.856 -162.438M116.856 -162.438L62.5678 -162.438L62.5678 -216.726M116.856 -162.438L116.856 -108.15L62.5678 -108.15L62.5678 -53.8625M198.287 -135.294L144 -135.294L144 -81.0065L89.7117 -81.0065M225.431 -108.15L171.144 -108.15L171.144 -53.8625M252.575 -81.0065L198.287 -81.0064M225.431 -53.8625L279.719 -53.8626L279.719 0.425333M225.431 -53.8625L171.144 -53.8625M225.431 -53.8625L225.431 0.425283M279.719 0.425333L334.007 0.425307M279.719 0.425333L225.431 0.425283M361.151 81.8571L361.151 27.5692L252.575 27.5693M361.151 81.8571L415.439 81.8571L415.439 136.145L361.151 136.145M361.151 81.8571L306.863 81.8571M442.583 109.001L442.583 163.289L334.007 163.289M-697.462 -976.756V-922.468L-751.75 -922.468M-643.174 -868.18L-806.038 -868.18M-588.886 -813.892L-588.886 -759.605L-534.599 -759.605M-453.167 -678.173L-453.167 -623.885M-453.167 -678.173L-561.742 -678.173M-371.735 -651.029L-371.735 -596.741M-371.735 -596.741L-426.023 -596.741M-371.735 -596.741L-371.735 -542.453M-290.303 -569.597L-344.591 -569.597L-344.591 -515.309L-236.015 -515.309M-263.159 -488.165L-263.159 -433.877M-263.159 -488.165L-371.735 -488.165M-208.871 -433.877L-263.159 -433.877M-208.871 -433.877L-208.871 -379.59L-263.159 -379.59M-154.584 -379.59L-154.584 -433.877L-100.296 -433.877L-100.296 -325.302L-154.584 -325.302M-127.44 -406.734L-127.44 -352.446L-181.728 -352.446M-46.0079 -271.014L8.2799 -271.014M-46.0079 -271.014L-154.584 -271.014M-18.8639 -243.87L-73.1518 -243.87M-18.8639 -243.87L-18.864 -189.582L35.4239 -189.582M35.4239 -189.582L35.4238 -135.294M171.144 -53.8625L116.856 -53.8625M225.431 0.425283L116.856 0.425335L116.856 -53.8625M252.575 27.5693L252.575 81.8571M252.575 27.5693L144 27.5692M334.007 54.7131L279.719 54.7132M306.863 81.8571L252.575 81.8571M306.863 81.8571L306.863 136.145M388.295 109.001L334.007 109.001L334.007 163.289M-670.318 -841.036L-616.03 -841.036L-616.03 -786.748M-670.318 -841.036L-724.606 -841.036M-670.318 -841.036V-786.748M-616.03 -786.748H-670.318M-616.03 -786.748L-616.03 -732.461L-561.742 -732.461L-561.742 -678.173M-426.023 -651.029L-426.023 -596.741M-426.023 -596.741L-480.311 -596.741M-371.735 -542.453L-371.735 -488.165M-371.735 -542.453L-480.311 -542.453L-480.311 -596.741M-263.159 -433.877L-263.159 -379.59M-181.728 -352.446L-236.015 -352.446M-73.1518 -243.87L-127.44 -243.87M-73.1518 -243.87L-73.1519 -189.582L-236.015 -189.582L-236.015 -135.294M35.4238 -135.294L89.7117 -135.294M35.4238 -135.294L35.4239 -81.0064L-18.864 -81.0064M116.856 -53.8625L62.5678 -53.8625M198.287 -26.7186L144 -26.7186M252.575 81.8571L252.575 136.145M334.007 163.289L279.719 163.289L279.719 109.001M415.439 190.433L306.863 190.433M-724.606 -841.036L-724.606 -786.748M-724.606 -841.036L-833.182 -841.036M-670.318 -786.748H-724.606M-561.742 -678.173L-561.742 -623.885M-534.599 -651.029L-480.311 -651.029L-480.311 -596.741M-480.311 -596.741L-534.599 -596.741V-542.453M-398.879 -569.597L-453.167 -569.597M-371.735 -488.165L-426.023 -488.165L-426.023 -433.877M-263.159 -379.59L-317.447 -379.59L-317.447 -325.302M-263.159 -379.59L-263.159 -325.302M-154.584 -271.014L-208.871 -271.014M-154.584 -271.014L-154.584 -216.726M-46.0079 -216.726L-46.0079 -162.438M-46.0079 -162.438L8.27993 -162.438L8.2799 -108.15L-46.0079 -108.15M-46.0079 -162.438L-208.871 -162.438M62.5678 -53.8625L62.5677 0.425288L8.27993 0.425307M62.5678 -53.8625L-46.0079 -53.8626M144 27.5692L89.7117 27.5693M144 27.5692L144 81.8571L198.287 81.8571M171.144 54.7132L225.431 54.7132L225.431 109.001L116.856 109.001M252.575 136.145L252.575 190.433M252.575 136.145L89.7118 136.145M306.863 190.433L252.575 190.433M306.863 190.433L306.863 244.721M388.295 217.577L334.007 217.577M-724.606 -786.748L-887.47 -786.749L-887.47 -732.461M-697.462 -759.605H-643.174L-643.174 -705.317M-697.462 -759.605L-697.462 -705.317M-697.462 -759.605L-860.326 -759.605M-643.174 -705.317L-588.886 -705.317L-588.886 -651.029M-643.174 -705.317H-697.462M-561.742 -623.885L-507.455 -623.885M-561.742 -623.885L-616.03 -623.885M-561.742 -623.885V-569.597M-398.879 -515.309L-453.167 -515.309M-453.167 -515.309L-507.455 -515.309M-453.167 -515.309L-453.167 -461.021M-317.447 -433.877L-371.735 -433.877M-344.591 -406.734L-290.303 -406.734L-290.303 -461.021L-398.879 -461.021L-398.879 -406.734M-344.591 -406.734L-398.879 -406.734M-344.591 -406.734L-344.591 -352.446L-398.879 -352.446M-263.159 -325.302L-208.871 -325.302L-208.871 -271.014M-263.159 -325.302L-317.447 -325.302M-208.871 -271.014L-317.447 -271.014M-154.584 -216.726L-100.296 -216.726M-154.584 -216.726L-263.159 -216.726M-18.864 -135.294L-236.015 -135.294M-46.0079 -108.15L-100.296 -108.15M-46.0079 -108.15L-46.0079 -53.8626M89.7118 -26.7186L89.7117 27.5693M89.7117 27.5693L-18.864 27.5692M252.575 190.433L198.287 190.433M306.863 244.721L361.151 244.721M306.863 244.721L306.863 299.009L198.287 299.008M306.863 244.721L198.287 244.721M-751.75 -813.892L-860.326 -813.892M-697.462 -705.317V-651.029M-670.318 -678.173L-616.03 -678.173L-616.03 -623.885M-616.03 -623.885H-670.318M-616.03 -623.885L-616.03 -569.597L-561.742 -569.597M-561.742 -569.597V-515.309M-507.455 -569.597L-507.455 -515.309M-507.455 -515.309L-561.742 -515.309M-453.167 -461.021L-453.167 -406.734M-453.167 -461.021L-616.03 -461.021M-398.879 -406.734L-453.167 -406.734M-398.879 -406.734L-398.879 -352.446M-317.447 -325.302L-371.735 -325.302M-236.015 -298.158L-398.879 -298.158M-181.727 -243.87L-290.303 -243.87M-100.296 -108.15L-100.296 -53.8625M-100.296 -108.15H-263.159M-46.0079 -53.8626L-100.296 -53.8625M-46.0079 -53.8626L-46.0079 0.425326L-154.584 0.425307M35.4239 -26.7186L-18.864 -26.7186L-18.864 27.5692M116.856 54.7132L62.5678 54.7132M62.5678 54.7132L62.5678 109.001M62.5678 54.7132H-100.296M116.856 109.001L62.5678 109.001M116.856 109.001L116.856 81.8571M225.431 163.289L62.5678 163.289M198.287 190.433L198.287 244.721M198.287 190.433L89.7117 190.433M279.719 217.577L225.431 217.577M-778.894 -732.461L-724.606 -732.461L-724.606 -678.173M-778.894 -732.461L-833.182 -732.461M-778.894 -732.461L-778.894 -678.173L-833.182 -678.173M-697.462 -651.029H-643.174M-697.462 -651.029H-751.75M-670.318 -623.885H-724.606M-670.318 -623.885V-569.597M-561.742 -515.309L-670.318 -515.309V-569.597M-480.311 -488.165L-697.462 -488.165M-453.167 -406.734L-507.455 -406.734M-398.879 -352.446L-453.167 -352.446V-298.158M-398.879 -352.446L-398.879 -298.158M-317.447 -271.014L-371.735 -271.014V-216.726M-317.447 -271.014L-317.447 -216.726L-263.159 -216.726M-263.159 -216.726L-263.159 -162.438L-371.735 -162.438M-100.296 -53.8625H-263.159M-18.864 27.5692L-127.44 27.5693M62.5678 109.001L62.5678 163.289M62.5678 109.001H-100.296M198.287 244.721H35.4239L35.4239 299.008M279.719 271.865L171.144 271.865M-833.182 -732.461L-887.47 -732.461M-833.182 -732.461L-833.182 -678.173M-751.75 -705.317L-751.75 -651.029M-751.75 -651.029L-806.038 -651.029M-724.606 -623.885L-724.606 -569.597L-670.318 -569.597M-724.606 -623.885L-833.182 -623.885M-643.174 -596.741V-542.453H-588.886M-480.311 -433.877L-588.886 -433.877M-507.455 -406.734V-352.446M-507.455 -406.734L-616.03 -406.734M-426.023 -379.59L-480.311 -379.59V-325.302L-534.599 -325.302M-398.879 -298.158L-398.879 -243.87M-236.015 -135.294L-344.591 -135.294M-127.44 -81.0064L-236.015 -81.0065M-73.1519 -26.7186L-181.728 -26.7186M35.4239 81.8571L-73.1518 81.8571M62.5678 163.289L62.5678 217.577M171.143 217.577L62.5678 217.577M171.144 271.865L116.856 271.865M171.144 271.865L171.143 326.152M279.719 326.152L171.143 326.152M-887.47 -732.461L-941.757 -732.461M-887.47 -732.461L-887.47 -678.173M-833.182 -678.173L-833.182 -623.885M-616.03 -461.021L-670.318 -461.021M-616.03 -461.021V-406.734M-453.167 -298.158L-507.455 -298.158M-453.167 -298.158L-453.167 -243.87M-426.023 -325.302L-426.023 -216.726M-371.735 -216.726L-426.023 -216.726M-371.735 -216.726L-371.735 -162.438M-344.591 -243.87L-344.591 -189.582L-290.303 -189.582M-263.159 -108.15L-263.159 -53.8625M-263.159 -108.15H-371.735L-371.735 -162.438M-100.296 54.7132L-127.726 54.7134M-100.296 54.7132L-100.296 109.001M62.5678 217.577L8.27999 217.577M116.856 271.865L62.5678 271.865M116.856 271.865L116.856 326.152M171.143 326.152L171.143 380.44M252.575 353.296L198.287 353.296M-860.326 -705.317L-860.326 -651.029M-860.326 -651.029L-914.613 -651.029M-860.326 -651.029L-860.326 -596.741L-914.614 -596.741L-914.614 -542.453M-833.182 -623.885L-833.182 -569.597M-806.038 -596.741L-751.75 -596.741L-751.75 -542.453M-751.75 -542.453H-697.462L-697.462 -488.165M-751.75 -542.453L-751.75 -488.165M-697.462 -488.165V-433.877H-643.174L-643.174 -379.59M-616.03 -406.734L-616.03 -352.446M-588.886 -379.59L-534.599 -379.59L-534.599 -325.302M-534.599 -325.302L-534.599 -271.014M-453.167 -243.87L-507.455 -243.87M-453.167 -243.87L-453.167 -189.582H-507.455V-243.87M-426.023 -216.726L-426.023 -162.438M-263.159 -53.8625L-371.735 -53.8625M-100.296 109.001L-154.584 109.001M-73.1518 136.145L-73.1518 190.433L-127.44 190.433M-73.1518 136.145L35.4238 136.145L35.4238 190.433L-18.864 190.433M-73.1518 136.145L-344.591 136.145L-344.591 190.433M8.27993 163.289L-46.0079 163.289L-46.0079 217.577M8.27999 217.577L-46.0079 217.577M8.27999 217.577L8.27997 271.865M144 299.009L144 353.296M144 353.296L89.7117 353.296M144 353.296L144 407.584M171.143 380.44L225.431 380.44M171.143 380.44L171.144 434.728L116.856 434.728M-968.901 -705.317L-914.613 -705.317L-914.613 -651.029M-914.613 -651.029L-1023.19 -651.029M-833.182 -569.597L-778.894 -569.597V-515.309M-833.182 -569.597L-887.47 -569.597M-833.182 -569.597L-833.182 -515.309M-751.75 -488.165L-806.038 -488.165M-751.75 -488.165V-433.877M-724.606 -515.309L-724.606 -406.734M-616.03 -352.446L-561.742 -352.446L-561.742 -298.158H-616.03M-616.03 -352.446H-670.318M-534.599 -271.014L-480.311 -271.014M-534.599 -271.014L-643.174 -271.014V-325.302M-507.455 -243.87L-561.742 -243.87M-426.023 -162.438L-426.023 -108.15H-480.311M-426.023 -162.438L-534.599 -162.438M-398.879 -189.582L-398.879 -81.0064M-290.303 -81.0064L-398.879 -81.0064M-46.0079 217.577L-100.296 217.577M35.4239 299.008L89.7117 299.008L89.7117 353.296M35.4239 299.008L-18.864 299.009M89.7117 353.296L35.4239 353.296L35.4239 407.584M-941.757 -678.173L-996.045 -678.173M-887.47 -623.885L-941.757 -623.885M-941.757 -623.885L-941.757 -569.597H-1104.62M-941.757 -623.885L-1050.33 -623.885M-833.182 -515.309L-887.47 -515.309M-833.182 -515.309L-833.182 -461.021M-806.038 -542.453V-488.165M-806.038 -488.165L-806.038 -433.877M-724.606 -406.734H-670.318L-670.318 -352.446M-724.606 -406.734L-778.894 -406.734L-778.894 -461.021M-670.318 -352.446H-833.182M-588.886 -325.302L-643.174 -325.302M-643.174 -325.302L-806.038 -325.302M-561.742 -243.87V-189.582L-670.318 -189.582M-561.742 -243.87L-670.318 -243.87V-298.158H-724.606M-398.879 -81.0064H-453.167L-453.167 27.5693M-398.879 -81.0064V-26.7186M-290.303 -26.7186L-398.879 -26.7186M-100.296 163.289L-154.584 163.289M-154.584 163.289L-154.584 217.577M-154.584 163.289L-263.159 163.289M-100.296 217.577L-154.584 217.577M-100.296 217.577L-100.296 271.865M-73.1518 244.721L-18.864 244.721L-18.864 299.009M-18.864 299.009H-127.44M62.5677 326.152L8.27993 326.152M8.27993 326.152L8.27989 380.44L-46.0079 380.44L-46.0079 434.728M8.27993 326.152L-100.296 326.152M62.5678 380.44L116.856 380.44L116.856 434.728M116.856 434.728L116.856 489.016L62.5677 489.016M-914.614 -542.453L-860.326 -542.453M-914.614 -542.453L-1077.48 -542.453M-887.47 -515.309L-1050.33 -515.309M-887.47 -515.309L-887.47 -406.734M-806.038 -433.877L-860.326 -433.877L-860.326 -488.165M-806.038 -433.877V-379.59L-697.462 -379.59M-534.599 -216.726V-162.438M-534.599 -162.438H-588.886M-534.599 -162.438L-534.599 -108.15L-480.311 -108.15M-453.167 -135.294H-507.455M-480.311 -108.15L-480.311 0.425345M-398.879 -26.7186L-398.879 27.5693M-317.447 0.425307L-371.735 0.425345L-371.735 54.7132M-154.584 217.577L-154.584 271.865L-100.296 271.865M-100.296 271.865L-46.0079 271.865M35.4239 407.584L89.7117 407.584L89.7117 461.872M35.4239 407.584L-18.864 407.584M35.4239 407.584L35.4238 461.872L-73.1518 461.872M-968.901 -596.741L-1077.48 -596.741M-724.606 -298.158L-833.182 -298.158M-724.606 -298.158L-724.606 -189.582M-588.886 -216.726H-697.462V-271.014M-588.886 -162.438L-643.174 -162.438M-588.886 -162.438L-588.886 -108.15H-643.174M-426.023 -53.8625V0.425383M-398.879 27.5693H-453.167M-398.879 27.5693L-398.879 136.145M-371.735 54.7132L-317.447 54.7131M-371.735 54.7132V109.001M-263.159 163.289L-317.447 163.289M-263.159 163.289V217.577M-236.015 190.433L-181.728 190.433L-181.728 244.721M-181.728 244.721L-236.015 244.721M-181.728 244.721L-181.728 299.009M-127.44 299.009H-181.728M-127.44 299.009V353.296M-18.864 353.296L-73.1518 353.296M-73.1518 353.296L-127.44 353.296M-73.1518 353.296V407.584L-127.44 407.584M62.5678 434.728L62.5677 489.016M62.5677 489.016L62.5678 543.304L8.27997 543.304M62.5677 489.016L-46.0079 489.016M-887.47 -406.734L-833.182 -406.734V-352.446M-887.47 -406.734L-996.045 -406.734M-833.182 -352.446L-833.182 -298.158M-670.318 -189.582L-724.606 -189.582M-670.318 -189.582V-135.294M-561.742 -135.294V-81.0064M-561.742 -81.0064H-507.455L-507.455 27.5693M-561.742 -81.0064H-616.03M-561.742 -81.0064V-26.7186H-616.03M-453.167 27.5693H-507.455M-371.735 109.001L-317.447 109.001M-371.735 109.001L-371.735 163.289M-263.159 217.577L-208.871 217.577M-263.159 217.577L-263.159 271.865M-181.728 299.009L-236.015 299.009M-127.44 353.296L-236.015 353.296M-46.0079 434.728L8.27997 434.728M-46.0079 434.728L-100.296 434.728M-1077.48 -542.453L-1131.76 -542.453M-1077.48 -542.453L-1077.48 -488.165M-941.757 -461.021L-1104.62 -461.021M-914.614 -379.59L-860.326 -379.59L-860.326 -271.014M-914.614 -379.59L-968.901 -379.59M-914.614 -379.59L-914.614 -216.726M-833.182 -298.158L-833.182 -243.87M-751.75 -216.726V-271.014L-806.038 -271.014L-806.038 -216.726M-724.606 -189.582H-778.894M-670.318 -135.294H-616.03M-670.318 -135.294L-778.894 -135.294M-643.174 -108.15V-53.8625M-643.174 -108.15H-751.75M-534.599 -53.8625V0.425345M-534.599 0.425345V54.7132L-588.886 54.7132M-534.599 0.425345H-643.174M-507.455 27.5693V81.8572M-480.311 54.7132H-426.023L-426.023 109.001L-480.311 109.001M-398.879 136.145L-453.167 136.145M-398.879 136.145L-398.879 190.433M-344.591 190.433L-290.303 190.433L-290.303 244.721M-344.591 190.433L-398.879 190.433M-344.591 190.433L-344.591 244.721M-263.159 271.865L-208.871 271.865M-263.159 271.865L-317.447 271.865M-263.159 271.865L-263.159 326.152M-154.584 326.152H-263.159M-100.296 380.44L-154.584 380.44M-154.584 380.44L-208.871 380.44L-208.871 434.728L-154.584 434.728M-154.584 380.44L-154.584 434.728M-100.296 434.728L-154.584 434.728M-100.296 434.728L-100.296 489.016L-46.0079 489.016M-46.0079 489.016L-46.0079 543.304M35.4238 516.16L-18.864 516.16M8.27997 543.304L-46.0079 543.304M8.27997 543.304L8.27993 597.592L-46.0079 597.592M-1077.48 -488.165L-1131.76 -488.165M-1077.48 -488.165L-914.613 -488.165L-914.614 -433.877L-1023.19 -433.877M-1023.19 -433.877L-1077.48 -433.877M-1023.19 -433.877L-1023.19 -379.59L-968.901 -379.59M-968.901 -379.59L-968.901 -325.302L-1023.19 -325.302L-1023.19 -271.014L-1186.05 -271.014L-1186.05 -325.302M-887.47 -352.446V-243.87M-833.182 -243.87L-887.47 -243.87M-833.182 -243.87L-833.182 -189.582M-778.894 -243.87V-189.582M-778.894 -189.582L-833.182 -189.582M-697.462 -162.438L-806.038 -162.438M-643.174 -53.8625L-588.886 -53.8625M-643.174 -53.8625L-697.462 -53.8625M-643.174 -53.8625L-643.174 0.425345M-507.455 81.8572L-453.167 81.8571M-507.455 81.8572L-561.742 81.8571M-507.455 81.8572L-507.455 136.145L-453.167 136.145M-453.167 136.145L-453.167 190.433M-398.879 190.433L-398.879 244.721M-344.591 244.721L-398.879 244.721M-344.591 244.721L-344.591 353.296L-290.303 353.296M-317.447 217.577L-317.447 271.865M-317.447 271.865L-317.447 326.152H-263.159M-236.015 353.296L-290.303 353.296M-236.015 353.296L-236.015 407.584M-46.0079 543.304H-100.296M-46.0079 543.304L-46.0079 597.592M-1104.62 -515.309L-1158.91 -515.309M-1131.76 -488.165L-1186.05 -488.165M-1131.76 -488.165L-1131.76 -433.877L-1077.48 -433.877M-1077.48 -433.877L-1077.48 -379.59M-941.757 -352.446L-941.757 -298.158M-941.757 -298.158L-996.045 -298.158L-996.045 -243.87M-941.757 -298.158L-941.757 -243.87H-996.045M-887.47 -243.87L-887.47 -189.582H-833.182M-833.182 -189.582V-135.294M-778.894 -135.294L-833.182 -135.294M-778.894 -135.294V-81.0064H-724.606M-670.318 -81.0064H-724.606M-724.606 -81.0064V-26.7186M-643.174 0.425345H-697.462M-643.174 0.425345L-643.174 54.7132H-697.462M-561.742 27.5692H-616.03L-616.03 81.8571M-561.742 81.8571H-616.03M-561.742 81.8571L-561.742 136.145M-426.023 163.289L-426.023 217.577M-426.023 217.577L-480.311 217.577M-426.023 217.577L-426.023 271.865M-398.879 244.721L-398.879 353.296M-290.303 353.296L-290.303 407.584M-236.015 407.584L-290.303 407.584M-236.015 407.584L-236.015 461.872L-181.728 461.872M-181.728 461.872L-127.44 461.872L-127.44 516.16L-73.1518 516.16M-181.728 461.872L-181.728 570.448L-236.015 570.448L-236.015 516.16L-290.303 516.16M-100.296 543.304L-154.584 543.304M-100.296 543.304L-100.296 597.592L-46.0079 597.592M-46.0079 597.592L-46.0079 651.88M-1050.33 -406.734L-1050.33 -352.446M-1050.33 -352.446L-996.045 -352.446M-1050.33 -352.446L-1104.62 -352.446L-1104.62 -406.734L-1158.91 -406.734L-1158.91 -461.021L-1213.2 -461.021M-1050.33 -352.446L-1050.33 -298.158L-1158.91 -298.158L-1158.91 -352.446L-1213.2 -352.446M-914.614 -216.726L-968.901 -216.726M-914.614 -216.726L-914.614 -162.438M-833.182 -135.294V-81.0064L-887.47 -81.0064M-724.606 -26.7186L-670.318 -26.7186M-724.606 -26.7186H-778.894M-724.606 -26.7186L-724.606 27.5693M-616.03 81.8571H-670.318M-534.599 109.001V163.289M-534.599 163.289L-480.311 163.289L-480.311 217.577M-534.599 163.289L-588.886 163.289V109.001H-643.174M-534.599 163.289L-534.599 217.577M-480.311 217.577L-534.599 217.577M-426.023 271.865L-534.599 271.865M-426.023 271.865L-426.023 380.44L-371.735 380.44M-371.735 271.865L-371.735 380.44M-290.303 407.584L-344.591 407.584M-290.303 407.584L-290.303 461.872M-154.584 489.016L-154.584 543.304M-154.584 543.304L-154.584 597.592L-263.159 597.592L-263.159 543.304M-996.045 -243.87H-1104.62M-968.901 -216.726L-968.901 -162.438M-968.901 -216.726L-1077.48 -216.726M-914.614 -162.438H-860.326V-108.15L-914.614 -108.15M-914.614 -162.438L-914.614 -108.15M-806.038 -108.15V-53.8625M-806.038 -53.8625H-751.75M-806.038 -53.8625L-860.326 -53.8625M-778.894 -26.7186L-833.182 -26.7186V27.5693M-778.894 -26.7186L-778.894 27.5693H-724.606M-724.606 27.5693H-670.318M-724.606 27.5693L-724.606 81.8571H-670.318M-670.318 81.8571L-670.318 136.145M-534.599 217.577L-534.599 271.865M-534.599 217.577L-643.174 217.577M-453.167 244.721L-507.455 244.721M-371.735 380.44L-317.447 380.44M-344.591 407.584L-398.879 407.584M-344.591 407.584L-344.591 461.872M-290.303 461.872H-344.591M-290.303 461.872L-290.303 516.16M-263.159 434.728L-263.159 489.016L-208.871 489.016L-208.871 543.304M-127.44 570.448L-127.44 624.736M-127.44 624.736L-73.1519 624.736L-73.1518 679.023L-127.44 679.023M-127.44 624.736L-127.44 679.023M-127.44 624.736L-236.015 624.736M-1077.48 -325.302L-1131.76 -325.302L-1131.76 -379.59L-1186.05 -379.59L-1186.05 -433.877L-1240.34 -433.877L-1240.34 -379.59M-968.901 -162.438L-1023.19 -162.438L-1023.19 -108.15L-1077.48 -108.15M-968.901 -162.438L-968.901 -108.15H-914.614M-941.757 -189.582L-941.757 -135.294M-914.614 -108.15V-53.8625M-860.326 -53.8625L-914.614 -53.8625M-860.326 -53.8625V0.425345M-670.318 136.145H-616.03V190.433L-561.742 190.433M-670.318 136.145H-724.606M-534.599 271.865L-588.886 271.865M-507.455 299.009L-453.167 299.008L-453.167 353.296M-507.455 299.009L-561.742 299.009L-561.743 353.296M-507.455 299.009L-507.455 353.296M-453.167 353.296L-507.455 353.296M-453.167 353.296L-453.167 407.584L-398.879 407.584M-398.879 407.584L-398.879 461.872M-344.591 461.872L-398.879 461.872M-290.303 516.16L-290.303 570.448M-127.44 679.023L-127.44 733.311M-1240.34 -379.59L-1294.63 -379.59M-1240.34 -379.59L-1240.34 -325.302M-1213.2 -406.734L-1213.2 -352.446M-1213.2 -352.446L-1213.2 -298.158M-1104.62 -243.87L-1158.91 -243.87M-1104.62 -243.87L-1104.62 -189.582M-996.045 -189.582L-1050.33 -189.582M-1050.33 -189.582H-1104.62M-1050.33 -189.582L-1050.33 -135.294L-1104.62 -135.294L-1104.62 -189.582M-914.614 -53.8625V0.425383M-860.326 0.425345L-914.614 0.425383M-860.326 0.425345V54.7132M-806.038 0.425345V54.7132M-806.038 54.7132L-751.75 54.7132V109.001M-806.038 54.7132H-860.326M-806.038 54.7132L-806.038 109.001M-751.75 109.001H-697.462M-751.75 109.001V163.289M-643.174 217.577V163.289L-751.75 163.289M-643.174 217.577L-643.174 271.865L-588.886 271.865M-643.174 217.577L-751.75 217.577M-561.743 244.721L-616.03 244.721M-588.886 271.865L-588.886 326.152M-507.455 353.296L-561.743 353.296M-398.879 461.872L-398.879 516.16M-317.447 543.304L-317.447 489.016L-371.735 489.016L-371.735 543.304L-426.023 543.304L-426.023 434.728L-480.311 434.728L-480.311 380.44L-534.599 380.44M-290.303 570.448L-344.591 570.448M-290.303 570.448L-290.303 624.736L-236.015 624.736M-236.015 624.736L-236.015 679.023M-154.584 706.167L-154.584 651.88L-208.871 651.88L-208.871 706.167M-154.584 706.167L-208.871 706.167M-154.584 706.167L-154.584 760.455M-1213.2 -298.158L-1267.48 -298.158L-1267.48 -352.446L-1321.77 -352.446M-1213.2 -298.158L-1213.2 -243.87L-1158.91 -243.87M-1158.91 -243.87L-1158.91 -189.582L-1104.62 -189.582M-996.045 -135.294L-996.045 -81.0064M-996.045 -81.0064H-941.757V-26.7186M-996.045 -81.0064L-1050.33 -81.0064M-996.045 -81.0064L-996.045 -26.7186M-914.614 0.425383L-968.901 0.425345V-53.8625M-914.614 0.425383V54.7132M-860.326 54.7132L-860.326 109.001H-806.038M-806.038 109.001L-806.038 163.289L-751.75 163.289M-778.894 81.8571L-778.894 136.145M-670.318 190.433L-778.894 190.433M-561.743 353.296L-616.03 353.296L-616.03 299.008L-670.318 299.009L-670.318 244.721H-724.606M-534.599 380.44H-588.886M-534.599 380.44V434.728M-344.591 516.16L-344.591 570.448M-344.591 570.448H-398.879M-208.871 706.167H-263.159L-263.159 651.879L-317.447 651.88L-317.447 597.592L-371.735 597.592M-887.47 27.5692V81.8571M-507.455 407.584L-507.455 461.872L-453.167 461.872L-453.167 516.16M-236.015 733.311L-181.728 733.311L-181.728 787.599" stroke="white" stroke-opacity="0.3" stroke-width="1.75849" stroke-linecap="round"/>
</g>
<path d="M86.8069 81.9983H91.8526C93.7104 81.9983 95.2165 83.8561 95.2165 85.3622V98.0862C95.2165 99.944 93.7104 101.45 91.8526 101.45H86.8069C84.9492 101.45 83.443 99.5923 83.443 98.0862V85.3622C83.443 83.5044 84.9492 81.9983 86.8069 81.9983Z" fill="#DFE1E4"/>
<path d="M73.3504 86.8083H78.3961C80.2538 86.8083 81.76 88.6661 81.76 90.1723V98.0855C81.76 99.9433 80.2538 101.449 78.3961 101.449H73.3504C71.4926 101.449 69.9865 99.5917 69.9865 98.0855V90.1723C69.9865 88.3145 71.4926 86.8083 73.3504 86.8083Z" fill="#DFE1E4"/>
<path d="M100.26 76.2206H105.306C107.163 76.2206 108.67 78.0783 108.67 79.5845V98.0856C108.67 99.9433 107.163 101.449 105.306 101.449H100.26C98.4023 101.449 96.8962 99.5917 96.8962 98.0856V79.5845C96.8962 77.7267 98.4023 76.2206 100.26 76.2206Z" fill="#DFE1E4"/>
<path d="M106.004 72.4445C106.248 72.6882 106.61 72.7557 106.921 72.6295C107.232 72.5034 107.442 72.1922 107.442 71.8558L107.442 63.522C107.442 63.0595 107.064 62.6812 106.601 62.6812H98.2755C97.9391 62.6812 97.6279 62.8829 97.5018 63.2026C97.3672 63.5138 97.4428 63.8755 97.6869 64.1192L99.5285 65.9608C98.721 66.9026 96.7785 68.9293 93.5073 71.0402C89.3867 73.7061 82.2385 77.0529 71.6003 77.9024C71.205 77.9361 70.8856 78.2388 70.8351 78.6256C70.7847 79.0125 71.0032 79.3908 71.3734 79.5255C71.5247 79.5759 74.6364 80.7028 79.5224 80.7028C80.2372 80.7028 80.9942 80.6776 81.7762 80.6271C87.3181 80.2403 95.6437 78.1798 104.179 70.628L105.996 72.4444L106.004 72.4445Z" fill="#DFE1E4"/>
</svg>
